Source_Serif_Display-ExtrapoBlack.ufo
<glyph name="A" format="2">
	<advance width="628"/>
	<outline>
		<contour>
			<point x="12" y="0" type="line"/>
			<point x="161" y="0" type="line"/>
			<point x="161" y="28" type="line"/>
			<point x="92" y="38" type="line"/>
			<point x="76" y="38" type="line"/>
			<point x="12" y="28" type="line"/>
		</contour>
		<contour>
			<point x="56" y="0" type="line"/>
			<point x="92" y="0" type="line"/>
			<point x="229" y="466" type="line"/>
			<point x="233" y="480" type="line"/>
			<point x="215" y="480" type="line"/>
			<point x="351" y="0" type="line"/>
			<point x="573" y="0" type="line"/>
			<point x="377" y="642" type="line"/>
			<point x="253" y="642" type="line"/>
		</contour>
		<contour>
			<point x="135" y="195" type="line"/>
			<point x="417" y="195" type="line"/>
			<point x="417" y="225" type="line"/>
			<point x="135" y="225" type="line"/>
		</contour>
		<contour>
			<point x="284" y="0" type="line"/>
			<point x="616" y="0" type="line"/>
			<point x="616" y="28" type="line"/>
			<point x="532" y="44" type="line"/>
			<point x="398" y="44" type="line"/>
			<point x="284" y="28" type="line"/>
		</contour>
	</outline>
	<anchor name="aboveUC" x="312" y="664"/>
	<anchor name="belowLC" x="232" y="-20"/>
	<anchor name="ogonek" x="481" y="0"/>
</glyph>
<glyph name="AE" format="2">
	<advance width="796"/>
	<outline>
		<contour>
			<point x="340" y="0" type="curve"/>
			<point x="561" y="0" type="line"/>
			<point x="557" y="78"/>
			<point x="555" y="202"/>
			<point x="555" y="304" type="curve" smooth="yes"/>
			<point x="555" y="348" type="line" smooth="yes"/>
			<point x="555" y="447"/>
			<point x="557" y="568"/>
			<point x="561" y="644" type="curve"/>
			<point x="346" y="644" type="line"/>
			<point x="346" y="304" type="line" smooth="yes"/>
			<point x="346" y="202"/>
			<point x="344" y="78"/>
		</contour>
		<contour>
			<point x="12" y="0" type="line"/>
			<point x="159" y="0" type="line"/>
			<point x="159" y="28" type="line"/>
			<point x="92" y="38" type="line"/>
			<point x="76" y="38" type="line"/>
			<point x="12" y="28" type="line"/>
		</contour>
		<contour>
			<point x="662" y="216" type="line"/>
			<point x="686" y="216" type="line"/>
			<point x="686" y="440" type="line"/>
			<point x="662" y="440" type="line"/>
			<point x="621" y="336" type="line"/>
			<point x="621" y="320" type="line"/>
		</contour>
		<contour>
			<point x="735" y="469" type="line"/>
			<point x="763" y="469" type="line"/>
			<point x="751" y="644" type="line"/>
			<point x="424" y="644" type="line"/>
			<point x="424" y="614" type="line"/>
			<point x="654" y="614" type="line"/>
		</contour>
		<contour>
			<point x="458" y="0" type="line"/>
			<point x="767" y="0" type="line"/>
			<point x="779" y="188" type="line"/>
			<point x="751" y="188" type="line"/>
			<point x="670" y="30" type="line"/>
			<point x="458" y="30" type="line"/>
		</contour>
		<contour>
			<point x="227" y="618" type="line"/>
			<point x="331" y="600" type="line"/>
			<point x="446" y="600" type="line"/>
			<point x="446" y="644" type="line"/>
			<point x="227" y="644" type="line"/>
		</contour>
		<contour>
			<point x="292" y="0" type="line"/>
			<point x="509" y="0" type="line"/>
			<point x="509" y="44" type="line"/>
			<point x="396" y="44" type="line"/>
			<point x="292" y="28" type="line"/>
		</contour>
		<contour>
			<point x="45" y="0" type="line"/>
			<point x="83" y="0" type="line"/>
			<point x="165" y="194" type="line"/>
			<point x="355" y="644" type="line"/>
			<point x="321" y="644" type="line"/>
		</contour>
		<contour>
			<point x="144" y="177" type="line"/>
			<point x="460" y="177" type="line"/>
			<point x="460" y="213" type="line"/>
			<point x="144" y="213" type="line"/>
		</contour>
		<contour>
			<point x="458" y="312" type="line"/>
			<point x="638" y="312" type="line"/>
			<point x="638" y="346" type="line"/>
			<point x="458" y="346" type="line"/>
		</contour>
	</outline>
	<anchor name="aboveUC" x="477" y="664"/>
</glyph>
<glyph name="B" format="2">
	<advance width="591"/>
	<outline>
		<contour>
			<point x="17" y="0" type="line"/>
			<point x="133" y="0" type="line"/>
			<point x="133" y="44" type="line"/>
			<point x="121" y="44" type="line"/>
			<point x="17" y="28" type="line"/>
		</contour>
		<contour>
			<point x="67" y="0" type="curve"/>
			<point x="288" y="0" type="line"/>
			<point x="284" y="78"/>
			<point x="282" y="202"/>
			<point x="282" y="304" type="curve" smooth="yes"/>
			<point x="282" y="348" type="line" smooth="yes"/>
			<point x="282" y="447"/>
			<point x="284" y="568"/>
			<point x="288" y="644" type="curve"/>
			<point x="69" y="644" type="line"/>
			<point x="73" y="568"/>
			<point x="73" y="447"/>
			<point x="73" y="348" type="curve" smooth="yes"/>
			<point x="73" y="304" type="line" smooth="yes"/>
			<point x="73" y="202"/>
			<point x="71" y="78"/>
		</contour>
		<contour>
			<point x="173" y="0" type="line"/>
			<point x="268" y="0" type="line" smooth="yes"/>
			<point x="403" y="0"/>
			<point x="584" y="22"/>
			<point x="584" y="183" type="curve" smooth="yes"/>
			<point x="584" y="293"/>
			<point x="449" y="332"/>
			<point x="283" y="340" type="curve"/>
			<point x="283" y="336" type="line"/>
			<point x="466" y="354"/>
			<point x="550" y="407"/>
			<point x="550" y="495" type="curve" smooth="yes"/>
			<point x="550" y="572"/>
			<point x="509" y="644"/>
			<point x="276" y="644" type="curve" smooth="yes"/>
			<point x="173" y="644" type="line"/>
			<point x="173" y="614" type="line"/>
			<point x="273" y="614" type="line" smooth="yes"/>
			<point x="326" y="614"/>
			<point x="360" y="567"/>
			<point x="360" y="491" type="curve" smooth="yes"/>
			<point x="360" y="404"/>
			<point x="320" y="350"/>
			<point x="275" y="350" type="curve" smooth="yes"/>
			<point x="173" y="350" type="line"/>
			<point x="173" y="324" type="line"/>
			<point x="279" y="324" type="line" smooth="yes"/>
			<point x="347" y="324"/>
			<point x="377" y="271"/>
			<point x="377" y="175" type="curve" smooth="yes"/>
			<point x="377" y="86"/>
			<point x="337" y="30"/>
			<point x="276" y="30" type="curve" smooth="yes"/>
			<point x="173" y="30" type="line"/>
		</contour>
		<contour>
			<point x="17" y="618" type="line"/>
			<point x="121" y="600" type="line"/>
			<point x="133" y="600" type="line"/>
			<point x="133" y="644" type="line"/>
			<point x="17" y="644" type="line"/>
		</contour>
	</outline>
	<anchor name="aboveUC" x="290" y="664"/>
	<anchor name="belowLC" x="297" y="-20"/>
</glyph>
<glyph name="C" format="2">
	<advance width="560"/>
	<outline>
		<contour>
			<point x="351" y="-16" type="curve" smooth="yes"/>
			<point x="407" y="-16"/>
			<point x="471" y="-1"/>
			<point x="506" y="16" type="curve"/>
			<point x="516" y="200" type="line"/>
			<point x="489" y="200" type="line"/>
			<point x="389" y="4" type="line"/>
			<point x="461" y="34" type="line"/>
			<point x="467" y="51" type="line"/>
			<point x="438" y="30"/>
			<point x="401" y="15"/>
			<point x="367" y="15" type="curve" smooth="yes"/>
			<point x="303" y="15"/>
			<point x="241" y="85"/>
			<point x="241" y="320" type="curve" smooth="yes"/>
			<point x="241" y="556"/>
			<point x="303" y="629"/>
			<point x="364" y="629" type="curve" smooth="yes"/>
			<point x="390" y="629"/>
			<point x="438" y="618"/>
			<point x="469" y="594" type="curve"/>
			<point x="465" y="610" type="line"/>
			<point x="391" y="641" type="line"/>
			<point x="492" y="462" type="line"/>
			<point x="520" y="462" type="line"/>
			<point x="508" y="627" type="line"/>
			<point x="469" y="645"/>
			<point x="416" y="660"/>
			<point x="350" y="660" type="curve" smooth="yes"/>
			<point x="211" y="660"/>
			<point x="25" y="585"/>
			<point x="25" y="320" type="curve" smooth="yes"/>
			<point x="25" y="63"/>
			<point x="198" y="-16"/>
		</contour>
	</outline>
	<anchor name="aboveUC" x="343" y="664"/>
	<anchor name="baseLC" x="330" y="0"/>
	<anchor name="belowLC" x="340" y="-20"/>
</glyph>
<glyph name="D" format="2">
	<advance width="644"/>
	<outline>
		<contour>
			<point x="17" y="0" type="line"/>
			<point x="133" y="0" type="line"/>
			<point x="133" y="44" type="line"/>
			<point x="121" y="44" type="line"/>
			<point x="17" y="28" type="line"/>
		</contour>
		<contour>
			<point x="67" y="0" type="curve"/>
			<point x="288" y="0" type="line"/>
			<point x="284" y="78"/>
			<point x="282" y="202"/>
			<point x="282" y="304" type="curve" smooth="yes"/>
			<point x="282" y="348" type="line" smooth="yes"/>
			<point x="282" y="447"/>
			<point x="284" y="568"/>
			<point x="288" y="644" type="curve"/>
			<point x="69" y="644" type="line"/>
			<point x="73" y="568"/>
			<point x="73" y="447"/>
			<point x="73" y="348" type="curve" smooth="yes"/>
			<point x="73" y="304" type="line" smooth="yes"/>
			<point x="73" y="202"/>
			<point x="71" y="78"/>
		</contour>
		<contour>
			<point x="200" y="0" type="line"/>
			<point x="290" y="0" type="line" smooth="yes"/>
			<point x="508" y="0"/>
			<point x="619" y="130"/>
			<point x="619" y="332" type="curve" smooth="yes"/>
			<point x="619" y="519"/>
			<point x="516" y="644"/>
			<point x="281" y="644" type="curve" smooth="yes"/>
			<point x="200" y="644" type="line"/>
			<point x="200" y="614" type="line"/>
			<point x="273" y="614" type="line" smooth="yes"/>
			<point x="350" y="614"/>
			<point x="403" y="497"/>
			<point x="403" y="324" type="curve" smooth="yes"/>
			<point x="403" y="143"/>
			<point x="351" y="30"/>
			<point x="278" y="30" type="curve" smooth="yes"/>
			<point x="200" y="30" type="line"/>
		</contour>
		<contour>
			<point x="17" y="618" type="line"/>
			<point x="121" y="600" type="line"/>
			<point x="133" y="600" type="line"/>
			<point x="133" y="644" type="line"/>
			<point x="17" y="644" type="line"/>
		</contour>
	</outline>
	<anchor name="aboveUC" x="316" y="664"/>
	<anchor name="belowLC" x="314" y="-20"/>
</glyph>
<glyph name="E" format="2">
	<advance width="521"/>
	<outline>
		<contour>
			<point x="17" y="0" type="line"/>
			<point x="235" y="0" type="line"/>
			<point x="235" y="44" type="line"/>
			<point x="121" y="44" type="line"/>
			<point x="17" y="28" type="line"/>
		</contour>
		<contour>
			<point x="67" y="0" type="curve"/>
			<point x="288" y="0" type="line"/>
			<point x="284" y="78"/>
			<point x="282" y="202"/>
			<point x="282" y="304" type="curve" smooth="yes"/>
			<point x="282" y="348" type="line" smooth="yes"/>
			<point x="282" y="447"/>
			<point x="284" y="568"/>
			<point x="288" y="644" type="curve"/>
			<point x="69" y="644" type="line"/>
			<point x="73" y="568"/>
			<point x="73" y="447"/>
			<point x="73" y="348" type="curve" smooth="yes"/>
			<point x="73" y="304" type="line" smooth="yes"/>
			<point x="73" y="202"/>
			<point x="71" y="78"/>
		</contour>
		<contour>
			<point x="184" y="0" type="line"/>
			<point x="494" y="0" type="line"/>
			<point x="506" y="188" type="line"/>
			<point x="478" y="188" type="line"/>
			<point x="387" y="12" type="line"/>
			<point x="419" y="30" type="line"/>
			<point x="184" y="30" type="line"/>
		</contour>
		<contour>
			<point x="184" y="312" type="line"/>
			<point x="364" y="312" type="line"/>
			<point x="364" y="346" type="line"/>
			<point x="184" y="346" type="line"/>
		</contour>
		<contour>
			<point x="387" y="216" type="line"/>
			<point x="413" y="216" type="line"/>
			<point x="413" y="440" type="line"/>
			<point x="387" y="440" type="line"/>
			<point x="347" y="336" type="line"/>
			<point x="347" y="320" type="line"/>
		</contour>
		<contour>
			<point x="17" y="618" type="line"/>
			<point x="121" y="600" type="line"/>
			<point x="235" y="600" type="line"/>
			<point x="235" y="644" type="line"/>
			<point x="17" y="644" type="line"/>
		</contour>
		<contour>
			<point x="462" y="469" type="line"/>
			<point x="490" y="469" type="line"/>
			<point x="478" y="644" type="line"/>
			<point x="149" y="644" type="line"/>
			<point x="149" y="614" type="line"/>
			<point x="403" y="614" type="line"/>
			<point x="371" y="632" type="line"/>
		</contour>
	</outline>
	<anchor name="aboveUC" x="289" y="664"/>
	<anchor name="belowLC" x="278" y="-20"/>
	<anchor name="ogonek" x="389" y="0"/>
</glyph>
<glyph name="Eng" format="2">
	<advance width="595"/>
	<outline>
		<contour>
			<point x="13" y="0" type="line"/>
			<point x="174" y="0" type="line"/>
			<point x="174" y="28" type="line"/>
			<point x="107" y="38" type="line"/>
			<point x="75" y="38" type="line"/>
			<point x="13" y="28" type="line"/>
		</contour>
		<contour>
			<point x="74" y="0" type="line"/>
			<point x="106" y="0" type="line"/>
			<point x="106" y="323" type="line"/>
			<point x="106" y="649" type="line"/>
			<point x="74" y="649" type="line"/>
		</contour>
		<contour>
			<point x="269" y="-163" type="curve" smooth="yes"/>
			<point x="331" y="-163"/>
			<point x="386" y="-139"/>
			<point x="440" y="-75" type="curve" smooth="yes"/>
			<point x="509" y="9"/>
			<point x="525" y="77"/>
			<point x="525" y="236" type="curve" smooth="yes"/>
			<point x="525" y="644" type="line"/>
			<point x="491" y="644" type="line"/>
			<point x="491" y="323" type="line"/>
			<point x="491" y="207" type="line" smooth="yes"/>
			<point x="491" y="54"/>
			<point x="445" y="-47"/>
			<point x="343" y="-109" type="curve"/>
			<point x="343" y="-129" type="line"/>
			<point x="365" y="-128" type="line"/>
			<point x="365" y="-108" type="line"/>
			<point x="315" y="-67" type="line" smooth="yes"/>
			<point x="258" y="-22"/>
			<point x="241" y="-19"/>
			<point x="215" y="-19" type="curve" smooth="yes"/>
			<point x="179" y="-19"/>
			<point x="156" y="-40"/>
			<point x="144" y="-79" type="curve"/>
			<point x="153" y="-138"/>
			<point x="202" y="-163"/>
		</contour>
		<contour>
			<point x="432" y="0" type="line"/>
			<point x="480" y="0" type="line"/>
			<point x="512" y="276" type="line"/>
			<point x="501" y="276" type="line"/>
			<point x="271" y="644" type="line"/>
			<point x="13" y="644" type="line"/>
			<point x="13" y="618" type="line"/>
			<point x="50" y="611" type="line"/>
			<point x="98" y="530" type="line"/>
			<point x="102" y="530" type="line"/>
		</contour>
		<contour>
			<point x="491" y="608" type="line"/>
			<point x="523" y="608" type="line"/>
			<point x="579" y="618" type="line"/>
			<point x="579" y="644" type="line"/>
			<point x="415" y="644" type="line"/>
			<point x="415" y="618" type="line"/>
		</contour>
	</outline>
</glyph>
<glyph name="Eth" format="2">
	<advance width="644"/>
	<outline>
		<contour>
			<point x="377" y="316" type="line"/>
			<point x="377" y="344" type="line"/>
			<point x="12" y="344" type="line"/>
			<point x="12" y="316" type="line"/>
		</contour>
		<component base="D"/>
	</outline>
</glyph>
<glyph name="F" format="2">
	<advance width="508"/>
	<outline>
		<contour>
			<point x="17" y="0" type="line"/>
			<point x="350" y="0" type="line"/>
			<point x="350" y="28" type="line"/>
			<point x="235" y="44" type="line"/>
			<point x="121" y="44" type="line"/>
			<point x="17" y="28" type="line"/>
		</contour>
		<contour>
			<point x="67" y="0" type="curve"/>
			<point x="288" y="0" type="line"/>
			<point x="284" y="78"/>
			<point x="282" y="202"/>
			<point x="282" y="304" type="curve" smooth="yes"/>
			<point x="282" y="348" type="line" smooth="yes"/>
			<point x="282" y="447"/>
			<point x="284" y="568"/>
			<point x="288" y="644" type="curve"/>
			<point x="69" y="644" type="line"/>
			<point x="73" y="568"/>
			<point x="73" y="447"/>
			<point x="73" y="348" type="curve" smooth="yes"/>
			<point x="73" y="304" type="line" smooth="yes"/>
			<point x="73" y="202"/>
			<point x="71" y="78"/>
		</contour>
		<contour>
			<point x="184" y="312" type="line"/>
			<point x="360" y="312" type="line"/>
			<point x="360" y="346" type="line"/>
			<point x="184" y="346" type="line"/>
		</contour>
		<contour>
			<point x="383" y="216" type="line"/>
			<point x="409" y="216" type="line"/>
			<point x="409" y="440" type="line"/>
			<point x="383" y="440" type="line"/>
			<point x="343" y="336" type="line"/>
			<point x="343" y="320" type="line"/>
		</contour>
		<contour>
			<point x="17" y="618" type="line"/>
			<point x="121" y="600" type="line"/>
			<point x="235" y="600" type="line"/>
			<point x="235" y="644" type="line"/>
			<point x="17" y="644" type="line"/>
		</contour>
		<contour>
			<point x="458" y="469" type="line"/>
			<point x="486" y="469" type="line"/>
			<point x="474" y="644" type="line"/>
			<point x="149" y="644" type="line"/>
			<point x="149" y="614" type="line"/>
			<point x="399" y="614" type="line"/>
			<point x="367" y="632" type="line"/>
		</contour>
	</outline>
	<anchor name="aboveUC" x="272" y="664"/>
	<anchor name="belowLC" x="185" y="-20"/>
</glyph>
<glyph name="G" format="2">
	<advance width="616"/>
	<outline>
		<contour>
			<point x="340" y="-16" type="curve" smooth="yes"/>
			<point x="415" y="-16"/>
			<point x="498" y="-6"/>
			<point x="551" y="31" type="curve"/>
			<point x="551" y="72" type="line" smooth="yes"/>
			<point x="551" y="152"/>
			<point x="554" y="243"/>
			<point x="561" y="332" type="curve"/>
			<point x="354" y="332" type="line"/>
			<point x="363" y="243"/>
			<point x="364" y="152"/>
			<point x="364" y="72" type="curve" smooth="yes"/>
			<point x="364" y="-14" type="line"/>
			<point x="391" y="13" type="line"/>
			<point x="385" y="15"/>
			<point x="377" y="15"/>
			<point x="364" y="15" type="curve" smooth="yes"/>
			<point x="315" y="15"/>
			<point x="241" y="85"/>
			<point x="241" y="320" type="curve" smooth="yes"/>
			<point x="241" y="556"/>
			<point x="307" y="629"/>
			<point x="379" y="629" type="curve" smooth="yes"/>
			<point x="414" y="629"/>
			<point x="452" y="614"/>
			<point x="481" y="589" type="curve"/>
			<point x="477" y="621" type="line"/>
			<point x="407" y="641" type="line"/>
			<point x="512" y="462" type="line"/>
			<point x="540" y="462" type="line"/>
			<point x="526" y="623" type="line"/>
			<point x="488" y="643"/>
			<point x="430" y="660"/>
			<point x="358" y="660" type="curve" smooth="yes"/>
			<point x="211" y="660"/>
			<point x="25" y="585"/>
			<point x="25" y="320" type="curve" smooth="yes"/>
			<point x="25" y="63"/>
			<point x="202" y="-16"/>
		</contour>
		<contour>
			<point x="333" y="304" type="line"/>
			<point x="423" y="288" type="line"/>
			<point x="475" y="288" type="line"/>
			<point x="582" y="304" type="line"/>
			<point x="582" y="332" type="line"/>
			<point x="333" y="332" type="line"/>
		</contour>
	</outline>
	<anchor name="aboveUC" x="354" y="664"/>
	<anchor name="belowLC" x="347" y="-20"/>
</glyph>
<glyph name="Germandbls" format="2">
	<advance width="698"/>
	<outline>
		<contour>
			<point x="18" y="0" type="line"/>
			<point x="128" y="0" type="line"/>
			<point x="128" y="44" type="line"/>
			<point x="116" y="44" type="line"/>
			<point x="18" y="28" type="line"/>
		</contour>
		<contour>
			<point x="64" y="0" type="curve"/>
			<point x="281" y="0" type="line"/>
			<point x="279" y="107"/>
			<point x="277" y="202"/>
			<point x="277" y="304" type="curve" smooth="yes"/>
			<point x="277" y="436" type="line" smooth="yes"/>
			<point x="277" y="577"/>
			<point x="327" y="629"/>
			<point x="438" y="629" type="curve" smooth="yes"/>
			<point x="475" y="629"/>
			<point x="515" y="620"/>
			<point x="566" y="602" type="curve"/>
			<point x="572" y="610" type="line"/>
			<point x="430" y="586"/>
			<point x="348" y="515"/>
			<point x="348" y="406" type="curve" smooth="yes"/>
			<point x="348" y="333"/>
			<point x="380" y="289"/>
			<point x="418" y="248" type="curve" smooth="yes"/>
			<point x="446" y="214" type="line" smooth="yes"/>
			<point x="474" y="185"/>
			<point x="501" y="147"/>
			<point x="501" y="106" type="curve" smooth="yes"/>
			<point x="501" y="40"/>
			<point x="466" y="14"/>
			<point x="433" y="14" type="curve" smooth="yes"/>
			<point x="422" y="14"/>
			<point x="399" y="20"/>
			<point x="388" y="19" type="curve"/>
			<point x="412" y="16" type="line"/>
			<point x="333" y="196" type="line"/>
			<point x="307" y="196" type="line"/>
			<point x="295" y="5" type="line"/>
			<point x="343" y="-12"/>
			<point x="394" y="-16"/>
			<point x="455" y="-16" type="curve" smooth="yes"/>
			<point x="600" y="-16"/>
			<point x="690" y="64"/>
			<point x="690" y="185" type="curve" smooth="yes"/>
			<point x="690" y="259"/>
			<point x="646" y="313"/>
			<point x="609" y="354" type="curve" smooth="yes"/>
			<point x="579" y="386" type="line" smooth="yes"/>
			<point x="552" y="416"/>
			<point x="527" y="447"/>
			<point x="527" y="487" type="curve" smooth="yes"/>
			<point x="527" y="532"/>
			<point x="554" y="568"/>
			<point x="600" y="602" type="curve"/>
			<point x="600" y="621" type="line"/>
			<point x="541" y="649"/>
			<point x="477" y="660"/>
			<point x="404" y="660" type="curve" smooth="yes"/>
			<point x="191" y="660"/>
			<point x="68" y="599"/>
			<point x="68" y="391" type="curve" smooth="yes"/>
			<point x="68" y="304" type="line" smooth="yes"/>
			<point x="68" y="200"/>
			<point x="66" y="109"/>
		</contour>
	</outline>
</glyph>
<glyph name="H" format="2">
	<advance width="684"/>
	<outline>
		<contour>
			<point x="17" y="0" type="line"/>
			<point x="337" y="0" type="line"/>
			<point x="337" y="28" type="line"/>
			<point x="233" y="44" type="line"/>
			<point x="121" y="44" type="line"/>
			<point x="17" y="28" type="line"/>
		</contour>
		<contour>
			<point x="67" y="0" type="curve"/>
			<point x="288" y="0" type="line"/>
			<point x="284" y="78"/>
			<point x="282" y="202"/>
			<point x="282" y="304" type="curve" smooth="yes"/>
			<point x="282" y="348" type="line" smooth="yes"/>
			<point x="282" y="447"/>
			<point x="284" y="568"/>
			<point x="288" y="644" type="curve"/>
			<point x="69" y="644" type="line"/>
			<point x="73" y="568"/>
			<point x="73" y="447"/>
			<point x="73" y="348" type="curve" smooth="yes"/>
			<point x="73" y="304" type="line" smooth="yes"/>
			<point x="73" y="202"/>
			<point x="71" y="78"/>
		</contour>
		<contour>
			<point x="186" y="314" type="line"/>
			<point x="497" y="314" type="line"/>
			<point x="497" y="346" type="line"/>
			<point x="186" y="346" type="line"/>
		</contour>
		<contour>
			<point x="346" y="0" type="line"/>
			<point x="666" y="0" type="line"/>
			<point x="666" y="28" type="line"/>
			<point x="562" y="44" type="line"/>
			<point x="450" y="44" type="line"/>
			<point x="346" y="28" type="line"/>
		</contour>
		<contour>
			<point x="397" y="0" type="curve"/>
			<point x="615" y="0" type="line"/>
			<point x="611" y="78"/>
			<point x="609" y="202"/>
			<point x="609" y="304" type="curve" smooth="yes"/>
			<point x="609" y="348" type="line" smooth="yes"/>
			<point x="609" y="447"/>
			<point x="611" y="568"/>
			<point x="615" y="644" type="curve"/>
			<point x="397" y="644" type="line"/>
			<point x="401" y="568"/>
			<point x="401" y="447"/>
			<point x="401" y="348" type="curve" smooth="yes"/>
			<point x="401" y="304" type="line" smooth="yes"/>
			<point x="401" y="202"/>
			<point x="401" y="78"/>
		</contour>
		<contour>
			<point x="17" y="618" type="line"/>
			<point x="121" y="600" type="line"/>
			<point x="233" y="600" type="line"/>
			<point x="337" y="618" type="line"/>
			<point x="337" y="644" type="line"/>
			<point x="17" y="644" type="line"/>
		</contour>
		<contour>
			<point x="346" y="618" type="line"/>
			<point x="450" y="600" type="line"/>
			<point x="562" y="600" type="line"/>
			<point x="666" y="618" type="line"/>
			<point x="666" y="644" type="line"/>
			<point x="346" y="644" type="line"/>
		</contour>
	</outline>
	<anchor name="aboveUC" x="342" y="664"/>
	<anchor name="belowLC" x="342" y="-20"/>
</glyph>
<glyph name="Hbar" format="2">
	<advance width="684"/>
	<outline>
		<contour>
			<point x="67" y="0" type="curve"/>
			<point x="288" y="0" type="line"/>
			<point x="284" y="78"/>
			<point x="282" y="202"/>
			<point x="282" y="304" type="curve" smooth="yes"/>
			<point x="282" y="348" type="line" smooth="yes"/>
			<point x="282" y="447"/>
			<point x="284" y="568"/>
			<point x="288" y="644" type="curve"/>
			<point x="69" y="644" type="line"/>
			<point x="73" y="568"/>
			<point x="73" y="447"/>
			<point x="73" y="348" type="curve" smooth="yes"/>
			<point x="73" y="304" type="line" smooth="yes"/>
			<point x="73" y="202"/>
			<point x="71" y="78"/>
		</contour>
		<contour>
			<point x="397" y="0" type="curve"/>
			<point x="615" y="0" type="line"/>
			<point x="611" y="78"/>
			<point x="609" y="202"/>
			<point x="609" y="304" type="curve" smooth="yes"/>
			<point x="609" y="348" type="line" smooth="yes"/>
			<point x="609" y="447"/>
			<point x="611" y="568"/>
			<point x="615" y="644" type="curve"/>
			<point x="397" y="644" type="line"/>
			<point x="401" y="568"/>
			<point x="401" y="447"/>
			<point x="401" y="348" type="curve" smooth="yes"/>
			<point x="401" y="304" type="line" smooth="yes"/>
			<point x="401" y="202"/>
			<point x="401" y="78"/>
		</contour>
		<contour>
			<point x="17" y="0" type="line"/>
			<point x="337" y="0" type="line"/>
			<point x="337" y="28" type="line"/>
			<point x="233" y="44" type="line"/>
			<point x="121" y="44" type="line"/>
			<point x="17" y="28" type="line"/>
		</contour>
		<contour>
			<point x="17" y="618" type="line"/>
			<point x="121" y="600" type="line"/>
			<point x="233" y="600" type="line"/>
			<point x="337" y="618" type="line"/>
			<point x="337" y="644" type="line"/>
			<point x="17" y="644" type="line"/>
		</contour>
		<contour>
			<point x="346" y="0" type="line"/>
			<point x="666" y="0" type="line"/>
			<point x="666" y="28" type="line"/>
			<point x="562" y="44" type="line"/>
			<point x="450" y="44" type="line"/>
			<point x="346" y="28" type="line"/>
		</contour>
		<contour>
			<point x="346" y="618" type="line"/>
			<point x="450" y="600" type="line"/>
			<point x="562" y="600" type="line"/>
			<point x="666" y="618" type="line"/>
			<point x="666" y="644" type="line"/>
			<point x="346" y="644" type="line"/>
		</contour>
		<contour>
			<point x="21" y="460" type="line"/>
			<point x="663" y="460" type="line"/>
			<point x="663" y="488" type="line"/>
			<point x="21" y="488" type="line"/>
		</contour>
		<contour>
			<point x="187" y="295" type="line"/>
			<point x="496" y="295" type="line"/>
			<point x="496" y="327" type="line"/>
			<point x="187" y="327" type="line"/>
		</contour>
	</outline>
</glyph>
<glyph name="I" format="2">
	<advance width="355"/>
	<outline>
		<contour>
			<point x="17" y="0" type="line"/>
			<point x="337" y="0" type="line"/>
			<point x="337" y="28" type="line"/>
			<point x="233" y="44" type="line"/>
			<point x="121" y="44" type="line"/>
			<point x="17" y="28" type="line"/>
		</contour>
		<contour>
			<point x="67" y="0" type="curve"/>
			<point x="288" y="0" type="line"/>
			<point x="284" y="78"/>
			<point x="282" y="202"/>
			<point x="282" y="304" type="curve" smooth="yes"/>
			<point x="282" y="348" type="line" smooth="yes"/>
			<point x="282" y="447"/>
			<point x="284" y="568"/>
			<point x="288" y="644" type="curve"/>
			<point x="67" y="644" type="line"/>
			<point x="71" y="568"/>
			<point x="73" y="447"/>
			<point x="73" y="348" type="curve" smooth="yes"/>
			<point x="73" y="304" type="line" smooth="yes"/>
			<point x="73" y="202"/>
			<point x="71" y="78"/>
		</contour>
		<contour>
			<point x="17" y="618" type="line"/>
			<point x="121" y="600" type="line"/>
			<point x="233" y="600" type="line"/>
			<point x="337" y="618" type="line"/>
			<point x="337" y="644" type="line"/>
			<point x="17" y="644" type="line"/>
		</contour>
	</outline>
	<anchor name="aboveUC" x="178" y="664"/>
	<anchor name="belowLC" x="178" y="-20"/>
	<anchor name="ogonek" x="240" y="0"/>
</glyph>
<glyph name="Idieresis" format="2">
	<advance width="355"/>
	<outline>
		<contour>
			<point x="90" y="692" type="curve" smooth="yes"/>
			<point x="130" y="692"/>
			<point x="163" y="717"/>
			<point x="163" y="762" type="curve" smooth="yes"/>
			<point x="163" y="806"/>
			<point x="130" y="831"/>
			<point x="90" y="831" type="curve" smooth="yes"/>
			<point x="50" y="831"/>
			<point x="16" y="806"/>
			<point x="16" y="762" type="curve" smooth="yes"/>
			<point x="16" y="717"/>
			<point x="50" y="692"/>
		</contour>
		<contour>
			<point x="263" y="692" type="curve" smooth="yes"/>
			<point x="303" y="692"/>
			<point x="337" y="717"/>
			<point x="337" y="762" type="curve" smooth="yes"/>
			<point x="337" y="806"/>
			<point x="303" y="831"/>
			<point x="263" y="831" type="curve" smooth="yes"/>
			<point x="224" y="831"/>
			<point x="190" y="806"/>
			<point x="190" y="762" type="curve" smooth="yes"/>
			<point x="190" y="717"/>
			<point x="224" y="692"/>
		</contour>
		<component base="I"/>
	</outline>
</glyph>
<glyph name="J" format="2">
	<advance width="361"/>
	<outline>
		<contour>
			<point x="22" y="-163" type="curve" smooth="yes"/>
			<point x="82" y="-163"/>
			<point x="151" y="-139"/>
			<point x="205" y="-75" type="curve" smooth="yes"/>
			<point x="272" y="6"/>
			<point x="290" y="69"/>
			<point x="290" y="184" type="curve" smooth="yes"/>
			<point x="290" y="352" type="line" smooth="yes"/>
			<point x="290" y="451"/>
			<point x="290" y="548"/>
			<point x="292" y="644" type="curve"/>
			<point x="76" y="644" type="line"/>
			<point x="79" y="353"/>
			<point x="82" y="288"/>
			<point x="82" y="188" type="curve" smooth="yes"/>
			<point x="82" y="114"/>
			<point x="93" y="-4"/>
			<point x="106" y="-115" type="curve"/>
			<point x="106" y="-128" type="line"/>
			<point x="116" y="-128" type="line"/>
			<point x="116" y="-108" type="line"/>
			<point x="66" y="-67" type="line" smooth="yes"/>
			<point x="9" y="-22"/>
			<point x="-6" y="-19"/>
			<point x="-32" y="-19" type="curve" smooth="yes"/>
			<point x="-70" y="-19"/>
			<point x="-93" y="-40"/>
			<point x="-105" y="-79" type="curve"/>
			<point x="-96" y="-146"/>
			<point x="-49" y="-163"/>
		</contour>
		<contour>
			<point x="13" y="618" type="line"/>
			<point x="129" y="600" type="line"/>
			<point x="241" y="600" type="line"/>
			<point x="345" y="618" type="line"/>
			<point x="345" y="644" type="line"/>
			<point x="13" y="644" type="line"/>
		</contour>
	</outline>
	<anchor name="aboveUC" x="186" y="664"/>
	<anchor name="belowLC" x="96" y="-173"/>
</glyph>
<glyph name="K" format="2">
	<advance width="682"/>
	<outline>
		<contour>
			<point x="67" y="0" type="curve"/>
			<point x="288" y="0" type="line"/>
			<point x="284" y="78"/>
			<point x="282" y="202"/>
			<point x="282" y="304" type="curve" smooth="yes"/>
			<point x="282" y="348" type="line" smooth="yes"/>
			<point x="282" y="447"/>
			<point x="284" y="568"/>
			<point x="288" y="644" type="curve"/>
			<point x="69" y="644" type="line"/>
			<point x="73" y="568"/>
			<point x="73" y="447"/>
			<point x="73" y="348" type="curve" smooth="yes"/>
			<point x="73" y="304" type="line" smooth="yes"/>
			<point x="73" y="202"/>
			<point x="71" y="78"/>
		</contour>
		<contour>
			<point x="17" y="0" type="line"/>
			<point x="333" y="0" type="line"/>
			<point x="333" y="28" type="line"/>
			<point x="233" y="44" type="line"/>
			<point x="121" y="44" type="line"/>
			<point x="17" y="28" type="line"/>
		</contour>
		<contour>
			<point x="17" y="618" type="line"/>
			<point x="121" y="600" type="line"/>
			<point x="233" y="600" type="line"/>
			<point x="337" y="618" type="line"/>
			<point x="337" y="644" type="line"/>
			<point x="17" y="644" type="line"/>
		</contour>
		<contour>
			<point x="364" y="0" type="line"/>
			<point x="680" y="0" type="line"/>
			<point x="680" y="28" type="line"/>
			<point x="573" y="44" type="line"/>
			<point x="457" y="44" type="line"/>
			<point x="364" y="28" type="line"/>
		</contour>
		<contour>
			<point x="429" y="618" type="line"/>
			<point x="527" y="600" type="line"/>
			<point x="520" y="600" type="line"/>
			<point x="619" y="618" type="line"/>
			<point x="619" y="644" type="line"/>
			<point x="429" y="644" type="line"/>
		</contour>
		<contour>
			<point x="168" y="122" type="line"/>
			<point x="578" y="644" type="line"/>
			<point x="532" y="644" type="line"/>
			<point x="239" y="258" type="line"/>
			<point x="195" y="201" type="line"/>
			<point x="168" y="201" type="line"/>
		</contour>
		<contour>
			<point x="411" y="0" type="line"/>
			<point x="644" y="0" type="line"/>
			<point x="422" y="488" type="line"/>
			<point x="292" y="294" type="line"/>
		</contour>
	</outline>
	<anchor name="aboveUC" x="386" y="664"/>
	<anchor name="belowLC" x="355" y="-20"/>
</glyph>
<glyph name="L" format="2">
	<advance width="504"/>
	<outline>
		<contour>
			<point x="17" y="0" type="line"/>
			<point x="235" y="0" type="line"/>
			<point x="235" y="44" type="line"/>
			<point x="121" y="44" type="line"/>
			<point x="17" y="28" type="line"/>
		</contour>
		<contour>
			<point x="67" y="0" type="curve"/>
			<point x="288" y="0" type="line"/>
			<point x="284" y="78"/>
			<point x="282" y="202"/>
			<point x="282" y="304" type="curve" smooth="yes"/>
			<point x="282" y="348" type="line" smooth="yes"/>
			<point x="282" y="447"/>
			<point x="284" y="568"/>
			<point x="288" y="644" type="curve"/>
			<point x="69" y="644" type="line"/>
			<point x="73" y="568"/>
			<point x="73" y="447"/>
			<point x="73" y="348" type="curve" smooth="yes"/>
			<point x="73" y="304" type="line" smooth="yes"/>
			<point x="73" y="202"/>
			<point x="71" y="78"/>
		</contour>
		<contour>
			<point x="184" y="0" type="line"/>
			<point x="480" y="0" type="line"/>
			<point x="492" y="216" type="line"/>
			<point x="464" y="216" type="line"/>
			<point x="373" y="12" type="line"/>
			<point x="407" y="30" type="line"/>
			<point x="184" y="30" type="line"/>
		</contour>
		<contour>
			<point x="17" y="618" type="line"/>
			<point x="121" y="600" type="line"/>
			<point x="233" y="600" type="line"/>
			<point x="337" y="618" type="line"/>
			<point x="337" y="644" type="line"/>
			<point x="17" y="644" type="line"/>
		</contour>
	</outline>
	<anchor name="aboveUC" x="173" y="664"/>
	<anchor name="belowLC" x="250" y="-20"/>
</glyph>
<glyph name="Lslash" format="2">
	<advance width="504"/>
	<outline>
		<contour>
			<point x="391" y="431" type="line"/>
			<point x="246" y="362" type="line"/>
			<point x="246" y="328" type="line"/>
			<point x="391" y="397" type="line"/>
		</contour>
		<contour>
			<point x="201" y="342" type="line"/>
			<point x="17" y="250" type="line"/>
			<point x="17" y="216" type="line"/>
			<point x="201" y="309" type="line"/>
		</contour>
		<component base="L"/>
	</outline>
</glyph>
<glyph name="M" format="2">
	<advance width="798"/>
	<outline>
		<contour>
			<point x="17" y="0" type="line"/>
			<point x="170" y="0" type="line"/>
			<point x="170" y="28" type="line"/>
			<point x="107" y="38" type="line"/>
			<point x="75" y="38" type="line"/>
			<point x="17" y="28" type="line"/>
		</contour>
		<contour>
			<point x="17" y="618" type="line"/>
			<point x="117" y="600" type="line"/>
			<point x="117" y="600" type="line"/>
			<point x="117" y="644" type="line"/>
			<point x="17" y="644" type="line"/>
		</contour>
		<contour>
			<point x="74" y="0" type="line"/>
			<point x="107" y="0" type="line"/>
			<point x="107" y="332" type="line"/>
			<point x="107" y="614" type="line"/>
			<point x="74" y="614" type="line"/>
		</contour>
		<contour>
			<point x="266" y="0" type="line"/>
			<point x="354" y="0" type="line"/>
			<point x="520" y="557" type="line"/>
			<point x="525" y="572" type="line"/>
			<point x="533" y="572" type="line"/>
			<point x="533" y="644" type="line"/>
			<point x="513" y="644" type="line"/>
			<point x="395" y="254" type="line"/>
			<point x="395" y="252" type="line"/>
			<point x="401" y="252" type="line"/>
			<point x="283" y="644" type="line"/>
			<point x="93" y="644" type="line"/>
			<point x="93" y="525" type="line"/>
			<point x="102" y="525" type="line"/>
		</contour>
		<contour>
			<point x="458" y="0" type="line"/>
			<point x="780" y="0" type="line"/>
			<point x="780" y="28" type="line"/>
			<point x="676" y="44" type="line"/>
			<point x="564" y="44" type="line"/>
			<point x="458" y="28" type="line"/>
		</contour>
		<contour>
			<point x="509" y="0" type="curve"/>
			<point x="729" y="0" type="line"/>
			<point x="725" y="78"/>
			<point x="725" y="202"/>
			<point x="725" y="304" type="curve" smooth="yes"/>
			<point x="725" y="348" type="line" smooth="yes"/>
			<point x="725" y="447"/>
			<point x="725" y="568"/>
			<point x="729" y="644" type="curve"/>
			<point x="516" y="644" type="line"/>
			<point x="516" y="304" type="line" smooth="yes"/>
			<point x="516" y="202"/>
			<point x="513" y="78"/>
		</contour>
		<contour>
			<point x="564" y="600" type="line"/>
			<point x="676" y="600" type="line"/>
			<point x="780" y="618" type="line"/>
			<point x="780" y="644" type="line"/>
			<point x="564" y="644" type="line"/>
		</contour>
	</outline>
	<anchor name="aboveUC" x="410" y="664"/>
	<anchor name="belowLC" x="326" y="-20"/>
</glyph>
<glyph name="N" format="2">
	<advance width="596"/>
	<outline>
		<contour>
			<point x="13" y="0" type="line"/>
			<point x="174" y="0" type="line"/>
			<point x="174" y="28" type="line"/>
			<point x="107" y="38" type="line"/>
			<point x="75" y="38" type="line"/>
			<point x="13" y="28" type="line"/>
		</contour>
		<contour>
			<point x="74" y="0" type="line"/>
			<point x="106" y="0" type="line"/>
			<point x="106" y="323" type="line"/>
			<point x="106" y="623" type="line"/>
			<point x="74" y="623" type="line"/>
		</contour>
		<contour>
			<point x="414" y="618" type="line"/>
			<point x="491" y="608" type="line"/>
			<point x="523" y="608" type="line"/>
			<point x="579" y="618" type="line"/>
			<point x="579" y="644" type="line"/>
			<point x="414" y="644" type="line"/>
		</contour>
		<contour>
			<point x="429" y="4" type="line"/>
			<point x="525" y="4" type="line"/>
			<point x="525" y="644" type="line"/>
			<point x="491" y="644" type="line"/>
			<point x="491" y="323" type="line"/>
			<point x="491" y="228" type="line"/>
			<point x="530" y="228" type="line"/>
			<point x="271" y="644" type="line"/>
			<point x="13" y="644" type="line"/>
			<point x="13" y="618" type="line"/>
			<point x="50" y="610" type="line"/>
			<point x="103" y="526" type="line"/>
			<point x="104" y="526" type="line"/>
		</contour>
	</outline>
	<anchor name="aboveUC" x="327" y="664"/>
	<anchor name="belowLC" x="286" y="-20"/>
</glyph>
<glyph name="O" format="2">
	<advance width="652"/>
	<outline>
		<contour>
			<point x="326" y="-16" type="curve" smooth="yes"/>
			<point x="481" y="-16"/>
			<point x="625" y="82"/>
			<point x="625" y="324" type="curve" smooth="yes"/>
			<point x="625" y="562"/>
			<point x="480" y="660"/>
			<point x="326" y="660" type="curve" smooth="yes"/>
			<point x="171" y="660"/>
			<point x="25" y="563"/>
			<point x="25" y="322" type="curve" smooth="yes"/>
			<point x="25" y="85"/>
			<point x="170" y="-16"/>
		</contour>
		<contour>
			<point x="326" y="14" type="curve" smooth="yes"/>
			<point x="266" y="14"/>
			<point x="247" y="124"/>
			<point x="247" y="324" type="curve" smooth="yes"/>
			<point x="247" y="522"/>
			<point x="266" y="630"/>
			<point x="326" y="630" type="curve" smooth="yes"/>
			<point x="384" y="630"/>
			<point x="403" y="525"/>
			<point x="403" y="324" type="curve" smooth="yes"/>
			<point x="403" y="125"/>
			<point x="384" y="14"/>
		</contour>
	</outline>
	<anchor name="aboveUC" x="326" y="664"/>
	<anchor name="belowLC" x="326" y="-20"/>
	<anchor name="hornLC" x="486" y="534"/>
	<anchor name="ogonek" x="415" y="0"/>
</glyph>
<glyph name="OE" format="2">
	<advance width="860"/>
	<outline>
		<contour>
			<point x="241" y="320" type="curve" smooth="yes"/>
			<point x="241" y="556"/>
			<point x="303" y="629"/>
			<point x="364" y="629" type="curve" smooth="yes"/>
			<point x="412" y="629"/>
			<point x="436" y="616"/>
			<point x="471" y="583" type="curve"/>
			<point x="517" y="615" type="line"/>
			<point x="473" y="644"/>
			<point x="417" y="660"/>
			<point x="360" y="660" type="curve" smooth="yes"/>
			<point x="205" y="660"/>
			<point x="25" y="589"/>
			<point x="25" y="320" type="curve" smooth="yes"/>
			<point x="25" y="58"/>
			<point x="192" y="-16"/>
			<point x="361" y="-16" type="curve" smooth="yes"/>
			<point x="408" y="-16"/>
			<point x="474" y="1"/>
			<point x="515" y="25" type="curve"/>
			<point x="468" y="59" type="line"/>
			<point x="436" y="32"/>
			<point x="421" y="15"/>
			<point x="367" y="15" type="curve" smooth="yes"/>
			<point x="303" y="15"/>
			<point x="241" y="85"/>
		</contour>
		<contour>
			<point x="405" y="0" type="curve"/>
			<point x="625" y="0" type="line"/>
			<point x="621" y="78"/>
			<point x="621" y="202"/>
			<point x="621" y="304" type="curve" smooth="yes"/>
			<point x="621" y="348" type="line" smooth="yes"/>
			<point x="621" y="447"/>
			<point x="621" y="568"/>
			<point x="625" y="644" type="curve"/>
			<point x="407" y="644" type="line"/>
			<point x="411" y="568"/>
			<point x="413" y="447"/>
			<point x="413" y="348" type="curve" smooth="yes"/>
			<point x="413" y="304" type="line" smooth="yes"/>
			<point x="413" y="202"/>
			<point x="409" y="78"/>
		</contour>
		<contour>
			<point x="727" y="216" type="line"/>
			<point x="750" y="216" type="line"/>
			<point x="750" y="440" type="line"/>
			<point x="727" y="440" type="line"/>
			<point x="685" y="336" type="line"/>
			<point x="685" y="320" type="line"/>
		</contour>
		<contour>
			<point x="522" y="312" type="line"/>
			<point x="702" y="312" type="line"/>
			<point x="702" y="346" type="line"/>
			<point x="522" y="346" type="line"/>
		</contour>
		<contour>
			<point x="800" y="469" type="line"/>
			<point x="827" y="469" type="line"/>
			<point x="815" y="644" type="line"/>
			<point x="489" y="644" type="line"/>
			<point x="489" y="614" type="line"/>
			<point x="718" y="614" type="line"/>
		</contour>
		<contour>
			<point x="816" y="188" type="line"/>
			<point x="734" y="30" type="line"/>
			<point x="522" y="30" type="line"/>
			<point x="522" y="0" type="line"/>
			<point x="831" y="0" type="line"/>
			<point x="843" y="188" type="line"/>
		</contour>
	</outline>
	<anchor name="aboveUC" x="508" y="664"/>
</glyph>
<glyph name="Oslash" format="2">
	<advance width="652"/>
	<outline>
		<contour>
			<point x="598" y="655" type="line"/>
			<point x="575" y="675" type="line"/>
			<point x="52" y="-8" type="line"/>
			<point x="77" y="-28" type="line"/>
		</contour>
		<contour>
			<point x="237" y="324" type="curve" smooth="yes"/>
			<point x="237" y="522"/>
			<point x="262" y="630"/>
			<point x="326" y="630" type="curve" smooth="yes"/>
			<point x="390" y="630"/>
			<point x="413" y="525"/>
			<point x="413" y="324" type="curve" smooth="yes"/>
			<point x="413" y="125"/>
			<point x="390" y="14"/>
			<point x="326" y="14" type="curve" smooth="yes"/>
			<point x="262" y="14"/>
			<point x="237" y="124"/>
		</contour>
		<contour>
			<point x="326" y="660" type="curve" smooth="yes"/>
			<point x="171" y="660"/>
			<point x="25" y="563"/>
			<point x="25" y="322" type="curve" smooth="yes"/>
			<point x="25" y="85"/>
			<point x="170" y="-16"/>
			<point x="326" y="-16" type="curve" smooth="yes"/>
			<point x="481" y="-16"/>
			<point x="625" y="82"/>
			<point x="625" y="324" type="curve" smooth="yes"/>
			<point x="625" y="562"/>
			<point x="480" y="660"/>
		</contour>
	</outline>
	<anchor name="aboveUC" x="326" y="664"/>
</glyph>
<glyph name="P" format="2">
	<advance width="584"/>
	<outline>
		<contour>
			<point x="17" y="0" type="line"/>
			<point x="350" y="0" type="line"/>
			<point x="350" y="28" type="line"/>
			<point x="240" y="44" type="line"/>
			<point x="121" y="44" type="line"/>
			<point x="17" y="28" type="line"/>
		</contour>
		<contour>
			<point x="67" y="0" type="curve"/>
			<point x="288" y="0" type="line"/>
			<point x="284" y="78"/>
			<point x="282" y="202"/>
			<point x="282" y="304" type="curve" smooth="yes"/>
			<point x="282" y="348" type="line" smooth="yes"/>
			<point x="282" y="447"/>
			<point x="284" y="568"/>
			<point x="288" y="644" type="curve"/>
			<point x="69" y="644" type="line"/>
			<point x="73" y="568"/>
			<point x="73" y="447"/>
			<point x="73" y="348" type="curve" smooth="yes"/>
			<point x="73" y="304" type="line" smooth="yes"/>
			<point x="73" y="202"/>
			<point x="71" y="78"/>
		</contour>
		<contour>
			<point x="168" y="265" type="line"/>
			<point x="278" y="265" type="line" smooth="yes"/>
			<point x="504" y="265"/>
			<point x="566" y="355"/>
			<point x="566" y="467" type="curve" smooth="yes"/>
			<point x="566" y="588"/>
			<point x="496" y="644"/>
			<point x="261" y="644" type="curve" smooth="yes"/>
			<point x="168" y="644" type="line"/>
			<point x="168" y="614" type="line"/>
			<point x="271" y="614" type="line" smooth="yes"/>
			<point x="320" y="614"/>
			<point x="359" y="561"/>
			<point x="359" y="465" type="curve" smooth="yes"/>
			<point x="359" y="368"/>
			<point x="326" y="296"/>
			<point x="273" y="296" type="curve" smooth="yes"/>
			<point x="168" y="296" type="line"/>
		</contour>
		<contour>
			<point x="17" y="618" type="line"/>
			<point x="121" y="600" type="line"/>
			<point x="233" y="600" type="line"/>
			<point x="233" y="644" type="line"/>
			<point x="17" y="644" type="line"/>
		</contour>
	</outline>
	<anchor name="aboveUC" x="296" y="664"/>
	<anchor name="belowLC" x="179" y="-20"/>
</glyph>
<glyph name="Q" format="2">
	<advance width="652"/>
	<outline>
		<contour>
			<point x="448" y="-190" type="curve" smooth="yes"/>
			<point x="499" y="-190"/>
			<point x="560" y="-167"/>
			<point x="588" y="-125" type="curve"/>
			<point x="579" y="-109" type="line"/>
			<point x="562" y="-118"/>
			<point x="536" y="-120"/>
			<point x="518" y="-120" type="curve" smooth="yes"/>
			<point x="460" y="-120"/>
			<point x="401" y="-81"/>
			<point x="419" y="4" type="curve"/>
			<point x="229" y="16" type="line"/>
			<point x="229" y="18" type="line" smooth="yes"/>
			<point x="229" y="-123"/>
			<point x="299" y="-190"/>
		</contour>
		<component base="O"/>
	</outline>
	<anchor name="aboveUC" x="326" y="664"/>
</glyph>
<glyph name="R" format="2">
	<advance width="669"/>
	<outline>
		<contour>
			<point x="17" y="0" type="line"/>
			<point x="344" y="0" type="line"/>
			<point x="344" y="28" type="line"/>
			<point x="240" y="44" type="line"/>
			<point x="121" y="44" type="line"/>
			<point x="17" y="28" type="line"/>
		</contour>
		<contour>
			<point x="67" y="0" type="curve"/>
			<point x="287" y="0" type="line"/>
			<point x="284" y="78"/>
			<point x="282" y="202"/>
			<point x="282" y="304" type="curve" smooth="yes"/>
			<point x="282" y="348" type="line" smooth="yes"/>
			<point x="282" y="447"/>
			<point x="284" y="568"/>
			<point x="287" y="644" type="curve"/>
			<point x="69" y="644" type="line"/>
			<point x="73" y="568"/>
			<point x="73" y="447"/>
			<point x="73" y="348" type="curve" smooth="yes"/>
			<point x="73" y="304" type="line" smooth="yes"/>
			<point x="73" y="202"/>
			<point x="71" y="78"/>
		</contour>
		<contour>
			<point x="544" y="-14" type="curve" smooth="yes"/>
			<point x="583" y="-14"/>
			<point x="626" y="-9"/>
			<point x="668" y="0" type="curve"/>
			<point x="668" y="28" type="line"/>
			<point x="571" y="46" type="line"/>
			<point x="632" y="12" type="line"/>
			<point x="581" y="186" type="line" smooth="yes"/>
			<point x="559" y="267"/>
			<point x="511" y="309"/>
			<point x="267" y="324" type="curve"/>
			<point x="267" y="317" type="line"/>
			<point x="441" y="319"/>
			<point x="568" y="397"/>
			<point x="568" y="487" type="curve" smooth="yes"/>
			<point x="568" y="583"/>
			<point x="499" y="644"/>
			<point x="278" y="644" type="curve" smooth="yes"/>
			<point x="173" y="644" type="line"/>
			<point x="173" y="614" type="line"/>
			<point x="280" y="614" type="line" smooth="yes"/>
			<point x="339" y="614"/>
			<point x="373" y="572"/>
			<point x="373" y="472" type="curve" smooth="yes"/>
			<point x="373" y="399"/>
			<point x="369" y="336"/>
			<point x="281" y="336" type="curve" smooth="yes"/>
			<point x="175" y="336" type="line"/>
			<point x="175" y="310" type="line"/>
			<point x="285" y="310" type="line" smooth="yes"/>
			<point x="333" y="310"/>
			<point x="352" y="246"/>
			<point x="360" y="193" type="curve" smooth="yes"/>
			<point x="373" y="101" type="line" smooth="yes"/>
			<point x="392" y="19"/>
			<point x="450" y="-14"/>
		</contour>
		<contour>
			<point x="17" y="618" type="line"/>
			<point x="121" y="600" type="line"/>
			<point x="233" y="600" type="line"/>
			<point x="233" y="644" type="line"/>
			<point x="17" y="644" type="line"/>
		</contour>
	</outline>
	<anchor name="aboveUC" x="306" y="664"/>
	<anchor name="belowLC" x="357" y="-20"/>
</glyph>
<glyph name="S" format="2">
	<advance width="519"/>
	<outline>
		<contour>
			<point x="224" y="-16" type="curve" smooth="yes"/>
			<point x="417" y="-16"/>
			<point x="475" y="85"/>
			<point x="475" y="192" type="curve" smooth="yes"/>
			<point x="475" y="306"/>
			<point x="403" y="353"/>
			<point x="329" y="397" type="curve" smooth="yes"/>
			<point x="306" y="410" type="line" smooth="yes"/>
			<point x="248" y="445"/>
			<point x="194" y="477"/>
			<point x="194" y="537" type="curve" smooth="yes"/>
			<point x="194" y="579"/>
			<point x="233" y="629"/>
			<point x="295" y="629" type="curve" smooth="yes"/>
			<point x="333" y="629"/>
			<point x="354" y="609"/>
			<point x="386" y="589" type="curve"/>
			<point x="386" y="617" type="line"/>
			<point x="329" y="637" type="line"/>
			<point x="411" y="458" type="line"/>
			<point x="439" y="458" type="line"/>
			<point x="443" y="612" type="line"/>
			<point x="406" y="638"/>
			<point x="346" y="660"/>
			<point x="285" y="660" type="curve" smooth="yes"/>
			<point x="114" y="660"/>
			<point x="44" y="563"/>
			<point x="44" y="460" type="curve" smooth="yes"/>
			<point x="44" y="349"/>
			<point x="114" y="296"/>
			<point x="185" y="255" type="curve" smooth="yes"/>
			<point x="207" y="240" type="line" smooth="yes"/>
			<point x="265" y="207"/>
			<point x="315" y="173"/>
			<point x="315" y="113" type="curve" smooth="yes"/>
			<point x="315" y="62"/>
			<point x="264" y="15"/>
			<point x="214" y="15" type="curve" smooth="yes"/>
			<point x="175" y="15"/>
			<point x="140" y="22"/>
			<point x="97" y="58" type="curve"/>
			<point x="103" y="48" type="line"/>
			<point x="151" y="12" type="line"/>
			<point x="72" y="194" type="line"/>
			<point x="46" y="194" type="line"/>
			<point x="38" y="36" type="line"/>
			<point x="101" y="0"/>
			<point x="161" y="-16"/>
		</contour>
	</outline>
	<anchor name="aboveUC" x="270" y="664"/>
	<anchor name="baseLC" x="239" y="0"/>
	<anchor name="belowLC" x="237" y="-20"/>
</glyph>
<glyph name="Schwa" format="2">
	<advance width="584"/>
	<outline>
		<contour>
			<point x="17" y="272" type="curve" smooth="yes"/>
			<point x="17" y="101"/>
			<point x="101" y="-16"/>
			<point x="288" y="-16" type="curve" smooth="yes"/>
			<point x="439" y="-16"/>
			<point x="569" y="79"/>
			<point x="569" y="324" type="curve" smooth="yes"/>
			<point x="569" y="526"/>
			<point x="470" y="660"/>
			<point x="286" y="660" type="curve" smooth="yes"/>
			<point x="193" y="660"/>
			<point x="116" y="628"/>
			<point x="56" y="543" type="curve"/>
			<point x="68" y="526" type="line"/>
			<point x="128" y="569"/>
			<point x="170" y="580"/>
			<point x="219" y="580" type="curve" smooth="yes"/>
			<point x="317" y="580"/>
			<point x="347" y="500"/>
			<point x="347" y="316" type="curve" smooth="yes"/>
			<point x="347" y="118"/>
			<point x="340" y="14"/>
			<point x="288" y="14" type="curve" smooth="yes"/>
			<point x="244" y="14"/>
			<point x="229" y="109"/>
			<point x="229" y="239" type="curve" smooth="yes"/>
			<point x="229" y="264"/>
			<point x="231" y="291"/>
			<point x="234" y="317" type="curve"/>
			<point x="469" y="317" type="line"/>
			<point x="469" y="349" type="line"/>
			<point x="25" y="349" type="line"/>
			<point x="19" y="317"/>
			<point x="17" y="295"/>
		</contour>
	</outline>
	<anchor name="aboveUC" x="280" y="664"/>
	<anchor name="belowLC" x="291" y="-20"/>
</glyph>
<glyph name="T" format="2">
	<advance width="591"/>
	<outline>
		<contour>
			<point x="129" y="0" type="line"/>
			<point x="461" y="0" type="line"/>
			<point x="461" y="28" type="line"/>
			<point x="357" y="44" type="line"/>
			<point x="233" y="44" type="line"/>
			<point x="129" y="28" type="line"/>
		</contour>
		<contour>
			<point x="185" y="0" type="curve"/>
			<point x="404" y="0" type="line"/>
			<point x="400" y="78"/>
			<point x="400" y="202"/>
			<point x="400" y="304" type="curve" smooth="yes"/>
			<point x="400" y="348" type="line" smooth="yes"/>
			<point x="400" y="447"/>
			<point x="400" y="568"/>
			<point x="404" y="644" type="curve"/>
			<point x="185" y="644" type="line"/>
			<point x="189" y="568"/>
			<point x="191" y="447"/>
			<point x="191" y="348" type="curve" smooth="yes"/>
			<point x="191" y="304" type="line" smooth="yes"/>
			<point x="191" y="202"/>
			<point x="189" y="78"/>
		</contour>
		<contour>
			<point x="12" y="446" type="line"/>
			<point x="38" y="446" type="line"/>
			<point x="131" y="632" type="line"/>
			<point x="97" y="614" type="line"/>
			<point x="494" y="614" type="line"/>
			<point x="458" y="632" type="line"/>
			<point x="551" y="446" type="line"/>
			<point x="579" y="446" type="line"/>
			<point x="567" y="644" type="line"/>
			<point x="24" y="644" type="line"/>
		</contour>
	</outline>
	<anchor name="aboveUC" x="296" y="664"/>
	<anchor name="baseLC" x="296" y="0"/>
	<anchor name="belowLC" x="296" y="-20"/>
</glyph>
<glyph name="Thorn" format="2">
	<advance width="604"/>
	<outline>
		<contour>
			<point x="173" y="154" type="line"/>
			<point x="278" y="154" type="line" smooth="yes"/>
			<point x="514" y="154"/>
			<point x="586" y="231"/>
			<point x="586" y="352" type="curve" smooth="yes"/>
			<point x="586" y="469"/>
			<point x="514" y="525"/>
			<point x="278" y="525" type="curve" smooth="yes"/>
			<point x="173" y="525" type="line"/>
			<point x="173" y="497" type="line"/>
			<point x="276" y="497" type="line" smooth="yes"/>
			<point x="326" y="497"/>
			<point x="379" y="455"/>
			<point x="379" y="344" type="curve" smooth="yes"/>
			<point x="379" y="234"/>
			<point x="326" y="182"/>
			<point x="276" y="182" type="curve" smooth="yes"/>
			<point x="173" y="182" type="line"/>
		</contour>
		<contour>
			<point x="67" y="0" type="curve"/>
			<point x="288" y="0" type="line"/>
			<point x="284" y="78"/>
			<point x="282" y="202"/>
			<point x="282" y="304" type="curve" smooth="yes"/>
			<point x="282" y="348" type="line" smooth="yes"/>
			<point x="282" y="447"/>
			<point x="284" y="568"/>
			<point x="288" y="644" type="curve"/>
			<point x="67" y="644" type="line"/>
			<point x="71" y="568"/>
			<point x="73" y="447"/>
			<point x="73" y="348" type="curve" smooth="yes"/>
			<point x="73" y="304" type="line" smooth="yes"/>
			<point x="73" y="202"/>
			<point x="71" y="78"/>
		</contour>
		<contour>
			<point x="121" y="600" type="line"/>
			<point x="233" y="600" type="line"/>
			<point x="337" y="618" type="line"/>
			<point x="337" y="644" type="line"/>
			<point x="17" y="644" type="line"/>
			<point x="17" y="618" type="line"/>
		</contour>
		<contour>
			<point x="17" y="0" type="line"/>
			<point x="337" y="0" type="line"/>
			<point x="337" y="28" type="line"/>
			<point x="233" y="44" type="line"/>
			<point x="121" y="44" type="line"/>
			<point x="17" y="28" type="line"/>
		</contour>
	</outline>
</glyph>
<glyph name="U" format="2">
	<advance width="611"/>
	<outline>
		<contour>
			<point x="327" y="-16" type="curve" smooth="yes"/>
			<point x="478" y="-16"/>
			<point x="539" y="65"/>
			<point x="539" y="279" type="curve" smooth="yes"/>
			<point x="539" y="644" type="line"/>
			<point x="506" y="644" type="line"/>
			<point x="506" y="241" type="line" smooth="yes"/>
			<point x="506" y="126"/>
			<point x="459" y="75"/>
			<point x="391" y="75" type="curve" smooth="yes"/>
			<point x="309" y="75"/>
			<point x="280" y="119"/>
			<point x="280" y="249" type="curve" smooth="yes"/>
			<point x="280" y="344" type="line" smooth="yes"/>
			<point x="280" y="445"/>
			<point x="280" y="568"/>
			<point x="284" y="644" type="curve"/>
			<point x="65" y="644" type="line"/>
			<point x="69" y="568"/>
			<point x="71" y="445"/>
			<point x="71" y="344" type="curve" smooth="yes"/>
			<point x="71" y="209" type="line" smooth="yes"/>
			<point x="71" y="36"/>
			<point x="178" y="-16"/>
		</contour>
		<contour>
			<point x="17" y="618" type="line"/>
			<point x="120" y="600" type="line"/>
			<point x="232" y="600" type="line"/>
			<point x="329" y="618" type="line"/>
			<point x="329" y="644" type="line"/>
			<point x="17" y="644" type="line"/>
		</contour>
		<contour>
			<point x="446" y="618" type="line"/>
			<point x="510" y="606" type="line"/>
			<point x="530" y="606" type="line"/>
			<point x="593" y="618" type="line"/>
			<point x="593" y="644" type="line"/>
			<point x="446" y="644" type="line"/>
		</contour>
	</outline>
	<anchor name="aboveUC" x="378" y="664"/>
	<anchor name="belowLC" x="327" y="-20"/>
	<anchor name="hornLC" x="506" y="547"/>
	<anchor name="ogonek" x="396" y="0"/>
</glyph>
<glyph name="Uhorn" format="2">
	<advance width="611"/>
	<outline>
		<contour>
			<point x="308" y="-16" type="curve" smooth="yes"/>
			<point x="472" y="-16"/>
			<point x="539" y="65"/>
			<point x="539" y="279" type="curve" smooth="yes"/>
			<point x="539" y="644" type="line"/>
			<point x="506" y="644" type="line"/>
			<point x="506" y="241" type="line" smooth="yes"/>
			<point x="506" y="126"/>
			<point x="459" y="75"/>
			<point x="391" y="75" type="curve" smooth="yes"/>
			<point x="309" y="75"/>
			<point x="280" y="119"/>
			<point x="280" y="249" type="curve" smooth="yes"/>
			<point x="280" y="344" type="line" smooth="yes"/>
			<point x="280" y="445"/>
			<point x="280" y="568"/>
			<point x="284" y="644" type="curve"/>
			<point x="65" y="644" type="line"/>
			<point x="69" y="568"/>
			<point x="71" y="445"/>
			<point x="71" y="344" type="curve" smooth="yes"/>
			<point x="71" y="209" type="line" smooth="yes"/>
			<point x="71" y="38"/>
			<point x="178" y="-16"/>
		</contour>
		<contour>
			<point x="506" y="622" type="line"/>
			<point x="622" y="621"/>
			<point x="669" y="664"/>
			<point x="669" y="727" type="curve" smooth="yes"/>
			<point x="669" y="754"/>
			<point x="661" y="771"/>
			<point x="656" y="775" type="curve"/>
			<point x="645" y="784"/>
			<point x="627" y="793"/>
			<point x="603" y="793" type="curve" smooth="yes"/>
			<point x="568" y="793"/>
			<point x="548" y="771"/>
			<point x="548" y="741" type="curve" smooth="yes"/>
			<point x="548" y="712"/>
			<point x="582" y="700"/>
			<point x="582" y="671" type="curve" smooth="yes"/>
			<point x="582" y="640"/>
			<point x="562" y="644"/>
			<point x="506" y="644" type="curve"/>
		</contour>
		<contour>
			<point x="17" y="618" type="line"/>
			<point x="120" y="600" type="line"/>
			<point x="232" y="600" type="line"/>
			<point x="329" y="618" type="line"/>
			<point x="329" y="644" type="line"/>
			<point x="17" y="644" type="line"/>
		</contour>
		<contour>
			<point x="446" y="618" type="line"/>
			<point x="510" y="606" type="line"/>
			<point x="530" y="606" type="line"/>
			<point x="530" y="644" type="line"/>
			<point x="446" y="644" type="line"/>
		</contour>
	</outline>
	<anchor name="aboveUC" x="378" y="664"/>
	<anchor name="belowLC" x="327" y="-20"/>
</glyph>
<glyph name="Uogonek" format="2">
	<advance width="611"/>
	<outline>
		<contour>
			<point x="120" y="600" type="line"/>
			<point x="232" y="600" type="line"/>
			<point x="329" y="618" type="line"/>
			<point x="329" y="644" type="line"/>
			<point x="17" y="644" type="line"/>
			<point x="17" y="618" type="line"/>
		</contour>
		<contour>
			<point x="356" y="-228" type="curve" smooth="yes"/>
			<point x="426" y="-228"/>
			<point x="472" y="-192"/>
			<point x="499" y="-154" type="curve"/>
			<point x="489" y="-138" type="line"/>
			<point x="472" y="-141"/>
			<point x="461" y="-144"/>
			<point x="434" y="-144" type="curve" smooth="yes"/>
			<point x="394" y="-144"/>
			<point x="374" y="-120"/>
			<point x="374" y="-94" type="curve" smooth="yes"/>
			<point x="374" y="-49"/>
			<point x="392" y="-18"/>
			<point x="441" y="13" type="curve" smooth="yes"/>
			<point x="508" y="55"/>
			<point x="539" y="138"/>
			<point x="539" y="279" type="curve" smooth="yes"/>
			<point x="539" y="644" type="line"/>
			<point x="506" y="644" type="line"/>
			<point x="506" y="241" type="line" smooth="yes"/>
			<point x="506" y="126"/>
			<point x="459" y="75"/>
			<point x="391" y="75" type="curve" smooth="yes"/>
			<point x="309" y="75"/>
			<point x="280" y="119"/>
			<point x="280" y="249" type="curve" smooth="yes"/>
			<point x="280" y="344" type="line" smooth="yes"/>
			<point x="280" y="445"/>
			<point x="280" y="568"/>
			<point x="284" y="644" type="curve"/>
			<point x="65" y="644" type="line"/>
			<point x="69" y="568"/>
			<point x="71" y="445"/>
			<point x="71" y="344" type="curve" smooth="yes"/>
			<point x="71" y="209" type="line" smooth="yes"/>
			<point x="71" y="38"/>
			<point x="178" y="-16"/>
			<point x="308" y="-16" type="curve" smooth="yes"/>
			<point x="348" y="-16"/>
			<point x="383" y="-11"/>
			<point x="412" y="1" type="curve"/>
			<point x="406" y="1" type="line"/>
			<point x="316" y="-30"/>
			<point x="255" y="-65"/>
			<point x="255" y="-132" type="curve" smooth="yes"/>
			<point x="255" y="-187"/>
			<point x="287" y="-228"/>
		</contour>
		<contour>
			<point x="510" y="606" type="line"/>
			<point x="530" y="606" type="line"/>
			<point x="593" y="618" type="line"/>
			<point x="593" y="644" type="line"/>
			<point x="446" y="644" type="line"/>
			<point x="446" y="618" type="line"/>
		</contour>
	</outline>
	<anchor name="aboveUC" x="370" y="664"/>
</glyph>
<glyph name="V" format="2">
	<advance width="610"/>
	<outline>
		<contour>
			<point x="239" y="4" type="line"/>
			<point x="363" y="4" type="line"/>
			<point x="555" y="644" type="line"/>
			<point x="518" y="644" type="line"/>
			<point x="391" y="188" type="line"/>
			<point x="388" y="179" type="line"/>
			<point x="396" y="179" type="line"/>
			<point x="269" y="644" type="line"/>
			<point x="48" y="644" type="line"/>
		</contour>
		<contour>
			<point x="12" y="618" type="line"/>
			<point x="88" y="600" type="line"/>
			<point x="224" y="600" type="line"/>
			<point x="346" y="618" type="line"/>
			<point x="346" y="644" type="line"/>
			<point x="12" y="644" type="line"/>
		</contour>
		<contour>
			<point x="451" y="618" type="line"/>
			<point x="518" y="608" type="line"/>
			<point x="534" y="608" type="line"/>
			<point x="598" y="618" type="line"/>
			<point x="598" y="644" type="line"/>
			<point x="451" y="644" type="line"/>
		</contour>
	</outline>
	<anchor name="aboveUC" x="378" y="664"/>
	<anchor name="belowLC" x="299" y="-20"/>
</glyph>
<glyph name="W" format="2">
	<advance width="904"/>
	<outline>
		<contour>
			<point x="209" y="2" type="line"/>
			<point x="342" y="2" type="line"/>
			<point x="453" y="471" type="line"/>
			<point x="459" y="493" type="line"/>
			<point x="436" y="493" type="line"/>
			<point x="555" y="2" type="line"/>
			<point x="683" y="2" type="line"/>
			<point x="843" y="644" type="line"/>
			<point x="809" y="644" type="line"/>
			<point x="705" y="201" type="line"/>
			<point x="699" y="182" type="line"/>
			<point x="718" y="182" type="line"/>
			<point x="618" y="644" type="line"/>
			<point x="462" y="644" type="line"/>
			<point x="359" y="202" type="line"/>
			<point x="354" y="182" type="line"/>
			<point x="373" y="182" type="line"/>
			<point x="265" y="644" type="line"/>
			<point x="50" y="644" type="line"/>
		</contour>
		<contour>
			<point x="12" y="618" type="line"/>
			<point x="104" y="600" type="line"/>
			<point x="231" y="600" type="line"/>
			<point x="338" y="618" type="line"/>
			<point x="338" y="644" type="line"/>
			<point x="12" y="644" type="line"/>
		</contour>
		<contour>
			<point x="383" y="618" type="line"/>
			<point x="460" y="599" type="line"/>
			<point x="581" y="600" type="line"/>
			<point x="689" y="618" type="line"/>
			<point x="689" y="644" type="line"/>
			<point x="383" y="644" type="line"/>
		</contour>
		<contour>
			<point x="741" y="618" type="line"/>
			<point x="800" y="608" type="line"/>
			<point x="829" y="608" type="line"/>
			<point x="892" y="618" type="line"/>
			<point x="892" y="644" type="line"/>
			<point x="741" y="644" type="line"/>
		</contour>
	</outline>
	<anchor name="aboveUC" x="507" y="664"/>
	<anchor name="belowLC" x="439" y="-20"/>
</glyph>
<glyph name="X" format="2">
	<advance width="623"/>
	<outline>
		<contour>
			<point x="12" y="0" type="line"/>
			<point x="181" y="0" type="line"/>
			<point x="181" y="28" type="line"/>
			<point x="114" y="38" type="line"/>
			<point x="80" y="38" type="line"/>
			<point x="12" y="28" type="line"/>
		</contour>
		<contour>
			<point x="53" y="0" type="line"/>
			<point x="93" y="0" type="line"/>
			<point x="255" y="270" type="line"/>
			<point x="270" y="295" type="line"/>
			<point x="308" y="295" type="line"/>
			<point x="263" y="331" type="line"/>
		</contour>
		<contour>
			<point x="273" y="0" type="line"/>
			<point x="611" y="0" type="line"/>
			<point x="611" y="28" type="line"/>
			<point x="519" y="44" type="line"/>
			<point x="385" y="44" type="line"/>
			<point x="273" y="28" type="line"/>
		</contour>
		<contour>
			<point x="356" y="345" type="line"/>
			<point x="538" y="644" type="line"/>
			<point x="498" y="644" type="line"/>
			<point x="357" y="401" type="line"/>
			<point x="343" y="376" type="line"/>
			<point x="313" y="376" type="line"/>
		</contour>
		<contour>
			<point x="351" y="0" type="line"/>
			<point x="577" y="0" type="line"/>
			<point x="274" y="644" type="line"/>
			<point x="48" y="644" type="line"/>
		</contour>
		<contour>
			<point x="20" y="618" type="line"/>
			<point x="104" y="600" type="line"/>
			<point x="236" y="600" type="line"/>
			<point x="350" y="618" type="line"/>
			<point x="350" y="644" type="line"/>
			<point x="20" y="644" type="line"/>
		</contour>
		<contour>
			<point x="411" y="618" type="line"/>
			<point x="476" y="608" type="line"/>
			<point x="510" y="608" type="line"/>
			<point x="578" y="618" type="line"/>
			<point x="578" y="644" type="line"/>
			<point x="411" y="644" type="line"/>
		</contour>
	</outline>
	<anchor name="aboveUC" x="361" y="664"/>
	<anchor name="belowLC" x="250" y="-20"/>
</glyph>
<glyph name="Y" format="2">
	<advance width="584"/>
	<outline>
		<contour>
			<point x="127" y="0" type="line"/>
			<point x="449" y="0" type="line"/>
			<point x="449" y="28" type="line"/>
			<point x="349" y="44" type="line"/>
			<point x="227" y="44" type="line"/>
			<point x="127" y="28" type="line"/>
		</contour>
		<contour>
			<point x="180" y="0" type="curve"/>
			<point x="397" y="0" type="line"/>
			<point x="394" y="101"/>
			<point x="392" y="192"/>
			<point x="392" y="296" type="curve"/>
			<point x="184" y="296" type="line"/>
			<point x="184" y="192"/>
			<point x="182" y="101"/>
		</contour>
		<contour>
			<point x="223" y="179" type="line"/>
			<point x="347" y="179" type="line"/>
			<point x="535" y="644" type="line"/>
			<point x="497" y="644" type="line"/>
			<point x="380" y="321" type="line"/>
			<point x="376" y="312" type="line"/>
			<point x="387" y="312" type="line"/>
			<point x="265" y="644" type="line"/>
			<point x="32" y="644" type="line"/>
		</contour>
		<contour>
			<point x="12" y="618" type="line"/>
			<point x="96" y="600" type="line"/>
			<point x="226" y="600" type="line"/>
			<point x="334" y="618" type="line"/>
			<point x="334" y="644" type="line"/>
			<point x="12" y="644" type="line"/>
		</contour>
		<contour>
			<point x="424" y="618" type="line"/>
			<point x="483" y="608" type="line"/>
			<point x="504" y="608" type="line"/>
			<point x="572" y="618" type="line"/>
			<point x="572" y="644" type="line"/>
			<point x="424" y="644" type="line"/>
		</contour>
	</outline>
	<anchor name="aboveUC" x="357" y="664"/>
	<anchor name="belowLC" x="285" y="-20"/>
</glyph>
<glyph name="Z" format="2">
	<advance width="539"/>
	<outline>
		<contour>
			<point x="24" y="0" type="line"/>
			<point x="501" y="0" type="line"/>
			<point x="513" y="188" type="line"/>
			<point x="487" y="188" type="line"/>
			<point x="396" y="12" type="line"/>
			<point x="428" y="30" type="line"/>
			<point x="340" y="30" type="line"/>
			<point x="251" y="30" type="line"/>
			<point x="251" y="49" type="line"/>
			<point x="247" y="12" type="line"/>
			<point x="513" y="622" type="line"/>
			<point x="513" y="644" type="line"/>
			<point x="52" y="644" type="line"/>
			<point x="40" y="458" type="line"/>
			<point x="67" y="458" type="line"/>
			<point x="159" y="632" type="line"/>
			<point x="125" y="614" type="line"/>
			<point x="206" y="614" type="line"/>
			<point x="287" y="614" type="line"/>
			<point x="287" y="605" type="line"/>
			<point x="290" y="628" type="line"/>
			<point x="24" y="22" type="line"/>
		</contour>
	</outline>
	<anchor name="aboveUC" x="280" y="664"/>
	<anchor name="belowLC" x="274" y="-20"/>
</glyph>
<glyph name=".notdef" format="2">
	<advance width="640"/>
	<outline>
		<contour>
			<point x="80" y="0" type="line"/>
			<point x="197" y="0" type="line"/>
			<point x="560" y="644" type="line"/>
			<point x="443" y="644" type="line"/>
		</contour>
		<contour>
			<point x="560" y="0" type="line"/>
			<point x="197" y="644" type="line"/>
			<point x="80" y="644" type="line"/>
			<point x="443" y="0" type="line"/>
		</contour>
		<contour>
			<point x="167" y="77" type="line"/>
			<point x="167" y="566" type="line"/>
			<point x="473" y="566" type="line"/>
			<point x="473" y="77" type="line"/>
		</contour>
		<contour>
			<point x="80" y="0" type="line"/>
			<point x="560" y="0" type="line"/>
			<point x="560" y="644" type="line"/>
			<point x="80" y="644" type="line"/>
		</contour>
	</outline>
</glyph>
<glyph name="a" format="2">
	<advance width="516"/>
	<outline>
		<contour>
			<point x="140" y="-18" type="curve" smooth="yes"/>
			<point x="200" y="-18"/>
			<point x="235" y="-1"/>
			<point x="275" y="56" type="curve"/>
			<point x="305" y="56" type="line"/>
			<point x="297" y="98" type="line"/>
			<point x="275" y="82"/>
			<point x="267" y="69"/>
			<point x="249" y="69" type="curve" smooth="yes"/>
			<point x="220" y="69"/>
			<point x="198" y="94"/>
			<point x="198" y="143" type="curve" smooth="yes"/>
			<point x="198" y="222"/>
			<point x="251" y="246"/>
			<point x="267" y="258" type="curve" smooth="yes"/>
			<point x="288" y="270"/>
			<point x="339" y="281"/>
			<point x="373" y="291" type="curve"/>
			<point x="373" y="319" type="line"/>
			<point x="343" y="308"/>
			<point x="265" y="289"/>
			<point x="224" y="279" type="curve" smooth="yes"/>
			<point x="83" y="240"/>
			<point x="17" y="180"/>
			<point x="17" y="100" type="curve" smooth="yes"/>
			<point x="17" y="29"/>
			<point x="65" y="-18"/>
		</contour>
		<contour>
			<point x="391" y="-20" type="curve" smooth="yes"/>
			<point x="454" y="-20"/>
			<point x="500" y="9"/>
			<point x="520" y="61" type="curve"/>
			<point x="502" y="75" type="line"/>
			<point x="493" y="60"/>
			<point x="485" y="55"/>
			<point x="474" y="55" type="curve" smooth="yes"/>
			<point x="467" y="55"/>
			<point x="463" y="63"/>
			<point x="463" y="61" type="curve" smooth="yes"/>
			<point x="463" y="286" type="line" smooth="yes"/>
			<point x="463" y="420"/>
			<point x="406" y="480"/>
			<point x="267" y="480" type="curve" smooth="yes"/>
			<point x="117" y="480"/>
			<point x="35" y="423"/>
			<point x="34" y="342" type="curve"/>
			<point x="50" y="301"/>
			<point x="74" y="287"/>
			<point x="113" y="287" type="curve" smooth="yes"/>
			<point x="155" y="287"/>
			<point x="204" y="312"/>
			<point x="204" y="409" type="curve" smooth="yes"/>
			<point x="199" y="473" type="line"/>
			<point x="169" y="438" type="line"/>
			<point x="174" y="443"/>
			<point x="190" y="450"/>
			<point x="206" y="450" type="curve" smooth="yes"/>
			<point x="259" y="450"/>
			<point x="265" y="422"/>
			<point x="265" y="324" type="curve" smooth="yes"/>
			<point x="265" y="59" type="line"/>
			<point x="265" y="53" type="line"/>
			<point x="276" y="13"/>
			<point x="312" y="-20"/>
		</contour>
	</outline>
	<anchor name="aboveLC" x="251" y="484"/>
	<anchor name="belowLC" x="251" y="-20"/>
	<anchor name="ogonek" x="441" y="0"/>
</glyph>
<glyph name="ae" format="2">
	<advance width="733"/>
	<outline>
		<contour>
			<point x="150" y="-18" type="curve" smooth="yes"/>
			<point x="240" y="-18"/>
			<point x="276" y="33"/>
			<point x="317" y="92" type="curve"/>
			<point x="315" y="108" type="line"/>
			<point x="297" y="98" type="line"/>
			<point x="275" y="82"/>
			<point x="267" y="69"/>
			<point x="249" y="69" type="curve" smooth="yes"/>
			<point x="220" y="69"/>
			<point x="198" y="94"/>
			<point x="198" y="143" type="curve" smooth="yes"/>
			<point x="198" y="222"/>
			<point x="251" y="246"/>
			<point x="267" y="258" type="curve" smooth="yes"/>
			<point x="288" y="270"/>
			<point x="339" y="281"/>
			<point x="373" y="291" type="curve"/>
			<point x="373" y="319" type="line"/>
			<point x="343" y="308"/>
			<point x="265" y="289"/>
			<point x="224" y="279" type="curve" smooth="yes"/>
			<point x="83" y="240"/>
			<point x="17" y="180"/>
			<point x="17" y="100" type="curve" smooth="yes"/>
			<point x="17" y="29"/>
			<point x="65" y="-18"/>
		</contour>
		<contour>
			<point x="502" y="-18" type="curve" smooth="yes"/>
			<point x="590" y="-18"/>
			<point x="658" y="17"/>
			<point x="699" y="94" type="curve"/>
			<point x="685" y="110" type="line"/>
			<point x="660" y="93"/>
			<point x="635" y="81"/>
			<point x="603" y="81" type="curve" smooth="yes"/>
			<point x="528" y="81"/>
			<point x="473" y="141"/>
			<point x="473" y="259" type="curve" smooth="yes"/>
			<point x="473" y="411"/>
			<point x="481" y="450"/>
			<point x="507" y="450" type="curve" smooth="yes"/>
			<point x="524" y="450"/>
			<point x="535" y="442"/>
			<point x="535" y="367" type="curve" smooth="yes"/>
			<point x="535" y="291"/>
			<point x="513" y="276"/>
			<point x="440" y="276" type="curve" smooth="yes"/>
			<point x="343" y="276" type="line"/>
			<point x="343" y="248" type="line"/>
			<point x="704" y="248" type="line"/>
			<point x="708" y="270"/>
			<point x="708" y="272"/>
			<point x="708" y="290" type="curve" smooth="yes"/>
			<point x="708" y="394"/>
			<point x="651" y="480"/>
			<point x="511" y="480" type="curve" smooth="yes"/>
			<point x="461" y="480"/>
			<point x="404" y="463"/>
			<point x="353" y="410" type="curve"/>
			<point x="434" y="402" type="line"/>
			<point x="399" y="457"/>
			<point x="343" y="480"/>
			<point x="267" y="480" type="curve" smooth="yes"/>
			<point x="117" y="480"/>
			<point x="35" y="423"/>
			<point x="34" y="342" type="curve"/>
			<point x="50" y="301"/>
			<point x="74" y="287"/>
			<point x="113" y="287" type="curve" smooth="yes"/>
			<point x="155" y="287"/>
			<point x="204" y="312"/>
			<point x="204" y="409" type="curve" smooth="yes"/>
			<point x="199" y="473" type="line"/>
			<point x="169" y="438" type="line"/>
			<point x="174" y="443"/>
			<point x="190" y="450"/>
			<point x="206" y="450" type="curve" smooth="yes"/>
			<point x="259" y="450"/>
			<point x="265" y="422"/>
			<point x="265" y="324" type="curve" smooth="yes"/>
			<point x="265" y="228" type="line" smooth="yes"/>
			<point x="265" y="66"/>
			<point x="370" y="-18"/>
		</contour>
	</outline>
	<anchor name="aboveLC" x="379" y="484"/>
	<anchor name="belowLC" x="339" y="-20"/>
</glyph>
<glyph name="alphalatin" format="2">
	<advance width="563"/>
	<outline>
		<contour>
			<point x="187" y="-18" type="curve" smooth="yes"/>
			<point x="253" y="-18"/>
			<point x="298" y="21"/>
			<point x="328" y="97" type="curve"/>
			<point x="333" y="97" type="line"/>
			<point x="325" y="110" type="line"/>
			<point x="314" y="95"/>
			<point x="300" y="81"/>
			<point x="286" y="81" type="curve" smooth="yes"/>
			<point x="253" y="81"/>
			<point x="233" y="106"/>
			<point x="233" y="226" type="curve" smooth="yes"/>
			<point x="233" y="350"/>
			<point x="255" y="384"/>
			<point x="286" y="384" type="curve" smooth="yes"/>
			<point x="305" y="384"/>
			<point x="311" y="374"/>
			<point x="325" y="355" type="curve"/>
			<point x="342" y="364" type="line"/>
			<point x="332" y="364" type="line"/>
			<point x="303" y="445"/>
			<point x="269" y="480"/>
			<point x="211" y="480" type="curve" smooth="yes"/>
			<point x="97" y="480"/>
			<point x="24" y="376"/>
			<point x="24" y="214" type="curve" smooth="yes"/>
			<point x="24" y="66"/>
			<point x="81" y="-18"/>
		</contour>
		<contour>
			<point x="309" y="82" type="line"/>
			<point x="309" y="60" type="line"/>
			<point x="323" y="13"/>
			<point x="359" y="-20"/>
			<point x="436" y="-20" type="curve" smooth="yes"/>
			<point x="499" y="-20"/>
			<point x="547" y="11"/>
			<point x="567" y="63" type="curve"/>
			<point x="549" y="76" type="line"/>
			<point x="538" y="62"/>
			<point x="530" y="57"/>
			<point x="521" y="57" type="curve" smooth="yes"/>
			<point x="513" y="57"/>
			<point x="508" y="66"/>
			<point x="508" y="64" type="curve" smooth="yes"/>
			<point x="508" y="216" type="line"/>
			<point x="512" y="470" type="line"/>
			<point x="494" y="483" type="line"/>
			<point x="309" y="390" type="line"/>
			<point x="309" y="383" type="line"/>
		</contour>
	</outline>
	<anchor name="aboveLC" x="314" y="484"/>
	<anchor name="belowLC" x="309" y="-20"/>
</glyph>
<glyph name="ampersand" format="2">
	<advance width="676"/>
	<outline>
		<contour>
			<point x="208" y="-18" type="curve" smooth="yes"/>
			<point x="326" y="-18"/>
			<point x="373" y="32"/>
			<point x="397" y="71" type="curve"/>
			<point x="384" y="76" type="line"/>
			<point x="371" y="79" type="line"/>
			<point x="353" y="69"/>
			<point x="338" y="63"/>
			<point x="305" y="63" type="curve" smooth="yes"/>
			<point x="255" y="63"/>
			<point x="198" y="86"/>
			<point x="198" y="190" type="curve" smooth="yes"/>
			<point x="198" y="251"/>
			<point x="198" y="284"/>
			<point x="206" y="318" type="curve"/>
			<point x="206" y="318" type="line"/>
			<point x="208" y="319" type="line"/>
			<point x="61" y="270"/>
			<point x="18" y="223"/>
			<point x="18" y="129" type="curve" smooth="yes"/>
			<point x="18" y="64"/>
			<point x="73" y="-18"/>
		</contour>
		<contour>
			<point x="477" y="149" type="line"/>
			<point x="547" y="243"/>
			<point x="557" y="288"/>
			<point x="591" y="394" type="curve"/>
			<point x="536" y="394" type="line"/>
			<point x="523" y="303"/>
			<point x="516" y="266"/>
			<point x="465" y="181" type="curve"/>
			<point x="449" y="181" type="line"/>
		</contour>
		<contour>
			<point x="544" y="385" type="line"/>
			<point x="571" y="385" type="line"/>
			<point x="667" y="397" type="line"/>
			<point x="667" y="426" type="line"/>
			<point x="452" y="426" type="line"/>
			<point x="452" y="397" type="line"/>
		</contour>
		<contour>
			<point x="544" y="-18" type="curve" smooth="yes"/>
			<point x="575" y="-18"/>
			<point x="613" y="-14"/>
			<point x="671" y="0" type="curve"/>
			<point x="671" y="28" type="line"/>
			<point x="506" y="61" type="line"/>
			<point x="640" y="24" type="line"/>
			<point x="576" y="98"/>
			<point x="508" y="186"/>
			<point x="412" y="300" type="curve" smooth="yes"/>
			<point x="307" y="424"/>
			<point x="292" y="452"/>
			<point x="288" y="463" type="curve" smooth="yes"/>
			<point x="271" y="499"/>
			<point x="267" y="527"/>
			<point x="267" y="549" type="curve" smooth="yes"/>
			<point x="267" y="603"/>
			<point x="280" y="630"/>
			<point x="307" y="630" type="curve" smooth="yes"/>
			<point x="336" y="630"/>
			<point x="348" y="595"/>
			<point x="348" y="543" type="curve" smooth="yes"/>
			<point x="348" y="520"/>
			<point x="362" y="467"/>
			<point x="333" y="400" type="curve"/>
			<point x="337" y="388" type="line"/>
			<point x="341" y="376" type="line"/>
			<point x="439" y="410"/>
			<point x="488" y="454"/>
			<point x="488" y="526" type="curve" smooth="yes"/>
			<point x="488" y="601"/>
			<point x="424" y="660"/>
			<point x="309" y="660" type="curve" smooth="yes"/>
			<point x="183" y="660"/>
			<point x="106" y="595"/>
			<point x="106" y="477" type="curve" smooth="yes"/>
			<point x="106" y="431"/>
			<point x="119" y="380"/>
			<point x="158" y="323" type="curve" smooth="yes"/>
			<point x="163" y="312"/>
			<point x="188" y="276"/>
			<point x="261" y="175" type="curve" smooth="yes"/>
			<point x="289" y="136"/>
			<point x="333" y="74"/>
			<point x="376" y="44" type="curve" smooth="yes"/>
			<point x="431" y="-2"/>
			<point x="484" y="-18"/>
		</contour>
	</outline>
</glyph>
<glyph name="aogonek" format="2">
	<advance width="516"/>
	<outline>
		<contour>
			<point x="140" y="-18" type="curve" smooth="yes"/>
			<point x="200" y="-18"/>
			<point x="235" y="-1"/>
			<point x="275" y="56" type="curve"/>
			<point x="305" y="56" type="line"/>
			<point x="297" y="98" type="line"/>
			<point x="275" y="82"/>
			<point x="267" y="69"/>
			<point x="249" y="69" type="curve" smooth="yes"/>
			<point x="220" y="69"/>
			<point x="198" y="94"/>
			<point x="198" y="143" type="curve" smooth="yes"/>
			<point x="198" y="222"/>
			<point x="251" y="246"/>
			<point x="267" y="258" type="curve" smooth="yes"/>
			<point x="288" y="270"/>
			<point x="339" y="281"/>
			<point x="373" y="291" type="curve"/>
			<point x="373" y="319" type="line"/>
			<point x="343" y="308"/>
			<point x="265" y="289"/>
			<point x="224" y="279" type="curve" smooth="yes"/>
			<point x="83" y="240"/>
			<point x="17" y="180"/>
			<point x="17" y="100" type="curve" smooth="yes"/>
			<point x="17" y="29"/>
			<point x="65" y="-18"/>
		</contour>
		<contour>
			<point x="394" y="-228" type="curve" smooth="yes"/>
			<point x="464" y="-228"/>
			<point x="510" y="-192"/>
			<point x="537" y="-154" type="curve"/>
			<point x="527" y="-138" type="line"/>
			<point x="510" y="-141"/>
			<point x="499" y="-144"/>
			<point x="472" y="-144" type="curve" smooth="yes"/>
			<point x="432" y="-144"/>
			<point x="412" y="-119"/>
			<point x="412" y="-92" type="curve" smooth="yes"/>
			<point x="412" y="-50"/>
			<point x="436" y="-23"/>
			<point x="483" y="10" type="curve" smooth="yes"/>
			<point x="504" y="26"/>
			<point x="513" y="42"/>
			<point x="520" y="61" type="curve"/>
			<point x="502" y="75" type="line"/>
			<point x="493" y="60"/>
			<point x="485" y="55"/>
			<point x="474" y="55" type="curve" smooth="yes"/>
			<point x="467" y="55"/>
			<point x="463" y="63"/>
			<point x="463" y="61" type="curve" smooth="yes"/>
			<point x="463" y="286" type="line" smooth="yes"/>
			<point x="463" y="420"/>
			<point x="406" y="480"/>
			<point x="267" y="480" type="curve" smooth="yes"/>
			<point x="117" y="480"/>
			<point x="35" y="423"/>
			<point x="34" y="342" type="curve"/>
			<point x="50" y="301"/>
			<point x="74" y="287"/>
			<point x="113" y="287" type="curve" smooth="yes"/>
			<point x="155" y="287"/>
			<point x="204" y="312"/>
			<point x="204" y="409" type="curve" smooth="yes"/>
			<point x="199" y="466" type="line"/>
			<point x="168" y="446" type="line"/>
			<point x="201" y="449"/>
			<point x="205" y="450"/>
			<point x="206" y="450" type="curve" smooth="yes"/>
			<point x="259" y="450"/>
			<point x="265" y="422"/>
			<point x="265" y="324" type="curve" smooth="yes"/>
			<point x="265" y="57" type="line"/>
			<point x="265" y="53" type="line" smooth="yes"/>
			<point x="276" y="13"/>
			<point x="312" y="-20"/>
			<point x="391" y="-20" type="curve" smooth="yes"/>
			<point x="397" y="-20"/>
			<point x="401" y="-20"/>
			<point x="449" y="-12" type="curve"/>
			<point x="442" y="-7" type="line"/>
			<point x="340" y="-43"/>
			<point x="293" y="-78"/>
			<point x="293" y="-146" type="curve" smooth="yes"/>
			<point x="293" y="-187"/>
			<point x="325" y="-228"/>
		</contour>
	</outline>
	<anchor name="aboveLC" x="251" y="484"/>
</glyph>
<glyph name="b" format="2">
	<advance width="571"/>
	<outline>
		<contour>
			<point x="20" y="0" type="line"/>
			<point x="256" y="-16" type="line"/>
			<point x="256" y="83" type="line"/>
			<point x="256" y="85" type="line"/>
			<point x="256" y="398" type="line"/>
			<point x="252" y="395" type="line"/>
			<point x="252" y="490" type="line"/>
			<point x="256" y="704" type="line"/>
			<point x="238" y="718" type="line"/>
			<point x="16" y="658" type="line"/>
			<point x="16" y="636" type="line"/>
			<point x="57" y="621" type="line"/>
			<point x="57" y="196" type="line" smooth="yes"/>
			<point x="57" y="141"/>
			<point x="56" y="82"/>
			<point x="54" y="37" type="curve"/>
			<point x="20" y="28" type="line"/>
		</contour>
		<contour>
			<point x="369" y="-18" type="curve" smooth="yes"/>
			<point x="484" y="-18"/>
			<point x="547" y="88"/>
			<point x="547" y="248" type="curve" smooth="yes"/>
			<point x="547" y="396"/>
			<point x="490" y="480"/>
			<point x="384" y="480" type="curve" smooth="yes"/>
			<point x="318" y="480"/>
			<point x="267" y="442"/>
			<point x="237" y="367" type="curve"/>
			<point x="232" y="367" type="line"/>
			<point x="240" y="354" type="line"/>
			<point x="252" y="368"/>
			<point x="265" y="383"/>
			<point x="279" y="383" type="curve" smooth="yes"/>
			<point x="312" y="383"/>
			<point x="338" y="352"/>
			<point x="338" y="238" type="curve" smooth="yes"/>
			<point x="338" y="117"/>
			<point x="308" y="80"/>
			<point x="277" y="80" type="curve" smooth="yes"/>
			<point x="257" y="80"/>
			<point x="255" y="90"/>
			<point x="240" y="109" type="curve"/>
			<point x="229" y="100" type="line"/>
			<point x="239" y="100" type="line"/>
			<point x="268" y="19"/>
			<point x="313" y="-18"/>
		</contour>
	</outline>
	<anchor name="aboveLC" x="155" y="718"/>
	<anchor name="belowLC" x="252" y="-20"/>
</glyph>
<glyph name="c" format="2">
	<advance width="475"/>
	<outline>
		<contour>
			<point x="248" y="-18" type="curve" smooth="yes"/>
			<point x="334" y="-18"/>
			<point x="399" y="14"/>
			<point x="439" y="92" type="curve"/>
			<point x="423" y="108" type="line"/>
			<point x="401" y="92"/>
			<point x="374" y="81"/>
			<point x="348" y="81" type="curve" smooth="yes"/>
			<point x="279" y="81"/>
			<point x="231" y="130"/>
			<point x="231" y="255" type="curve" smooth="yes"/>
			<point x="231" y="429"/>
			<point x="288" y="450"/>
			<point x="303" y="450" type="curve" smooth="yes"/>
			<point x="335" y="450"/>
			<point x="350" y="442"/>
			<point x="378" y="436" type="curve"/>
			<point x="288" y="473" type="line"/>
			<point x="281" y="407" type="line" smooth="yes"/>
			<point x="283" y="312"/>
			<point x="328" y="287"/>
			<point x="368" y="287" type="curve" smooth="yes"/>
			<point x="408" y="287"/>
			<point x="431" y="303"/>
			<point x="445" y="342" type="curve"/>
			<point x="451" y="416"/>
			<point x="393" y="480"/>
			<point x="279" y="480" type="curve" smooth="yes"/>
			<point x="119" y="480"/>
			<point x="24" y="392"/>
			<point x="24" y="226" type="curve" smooth="yes"/>
			<point x="24" y="66"/>
			<point x="126" y="-18"/>
		</contour>
	</outline>
	<anchor name="aboveLC" x="280" y="484"/>
	<anchor name="baseLC" x="256" y="0"/>
	<anchor name="belowLC" x="256" y="-20"/>
</glyph>
<glyph name="comma" format="2">
	<advance width="264"/>
	<outline>
		<contour>
			<point x="54" y="-141" type="line"/>
			<point x="140" y="-116"/>
			<point x="228" y="-48"/>
			<point x="228" y="75" type="curve" smooth="yes"/>
			<point x="228" y="105"/>
			<point x="227" y="121"/>
			<point x="214" y="151" type="curve"/>
			<point x="192" y="168"/>
			<point x="169" y="177"/>
			<point x="139" y="177" type="curve" smooth="yes"/>
			<point x="84" y="177"/>
			<point x="41" y="136"/>
			<point x="41" y="83" type="curve" smooth="yes"/>
			<point x="41" y="54"/>
			<point x="58" y="18"/>
			<point x="104" y="-7" type="curve" smooth="yes"/>
			<point x="176" y="-43" type="line"/>
			<point x="163" y="-14" type="line"/>
			<point x="136" y="-65"/>
			<point x="108" y="-81"/>
			<point x="43" y="-110" type="curve"/>
		</contour>
	</outline>
</glyph>
<glyph name="d" format="2">
	<advance width="559"/>
	<outline>
		<contour>
			<point x="187" y="-18" type="curve" smooth="yes"/>
			<point x="253" y="-18"/>
			<point x="298" y="21"/>
			<point x="328" y="97" type="curve"/>
			<point x="333" y="97" type="line"/>
			<point x="325" y="110" type="line"/>
			<point x="314" y="95"/>
			<point x="300" y="81"/>
			<point x="286" y="81" type="curve" smooth="yes"/>
			<point x="253" y="81"/>
			<point x="233" y="106"/>
			<point x="233" y="226" type="curve" smooth="yes"/>
			<point x="233" y="350"/>
			<point x="255" y="384"/>
			<point x="286" y="384" type="curve" smooth="yes"/>
			<point x="305" y="384"/>
			<point x="311" y="374"/>
			<point x="325" y="355" type="curve"/>
			<point x="342" y="364" type="line"/>
			<point x="332" y="364" type="line"/>
			<point x="303" y="445"/>
			<point x="269" y="480"/>
			<point x="211" y="480" type="curve" smooth="yes"/>
			<point x="97" y="480"/>
			<point x="24" y="376"/>
			<point x="24" y="214" type="curve" smooth="yes"/>
			<point x="24" y="66"/>
			<point x="81" y="-18"/>
		</contour>
		<contour>
			<point x="309" y="-16" type="line"/>
			<point x="543" y="0" type="line"/>
			<point x="543" y="28" type="line"/>
			<point x="508" y="35" type="line"/>
			<point x="508" y="490" type="line"/>
			<point x="512" y="704" type="line"/>
			<point x="494" y="718" type="line"/>
			<point x="270" y="658" type="line"/>
			<point x="270" y="636" type="line"/>
			<point x="313" y="621" type="line"/>
			<point x="313" y="396" type="line"/>
			<point x="309" y="382" type="line"/>
			<point x="309" y="72" type="line"/>
			<point x="309" y="67" type="line"/>
		</contour>
	</outline>
	<anchor name="aboveLC" x="404" y="718"/>
	<anchor name="belowLC" x="315" y="-20"/>
</glyph>
<glyph name="dcroat" format="2">
	<advance width="559"/>
	<outline>
		<contour>
			<point x="213" y="537" type="line"/>
			<point x="545" y="537" type="line"/>
			<point x="545" y="567" type="line"/>
			<point x="213" y="567" type="line"/>
		</contour>
		<contour>
			<point x="233" y="218" type="curve" smooth="yes"/>
			<point x="233" y="334"/>
			<point x="255" y="368"/>
			<point x="286" y="368" type="curve" smooth="yes"/>
			<point x="305" y="368"/>
			<point x="311" y="358"/>
			<point x="325" y="339" type="curve"/>
			<point x="342" y="348" type="line"/>
			<point x="332" y="348" type="line"/>
			<point x="303" y="429"/>
			<point x="269" y="464"/>
			<point x="211" y="464" type="curve" smooth="yes"/>
			<point x="97" y="464"/>
			<point x="24" y="360"/>
			<point x="24" y="206" type="curve" smooth="yes"/>
			<point x="24" y="66"/>
			<point x="81" y="-18"/>
			<point x="187" y="-18" type="curve" smooth="yes"/>
			<point x="253" y="-18"/>
			<point x="298" y="21"/>
			<point x="328" y="97" type="curve"/>
			<point x="333" y="97" type="line"/>
			<point x="325" y="110" type="line"/>
			<point x="314" y="95"/>
			<point x="300" y="81"/>
			<point x="286" y="81" type="curve" smooth="yes"/>
			<point x="253" y="81"/>
			<point x="233" y="106"/>
		</contour>
		<contour>
			<point x="543" y="0" type="line"/>
			<point x="543" y="28" type="line"/>
			<point x="508" y="34" type="line"/>
			<point x="508" y="490" type="line"/>
			<point x="512" y="704" type="line"/>
			<point x="494" y="718" type="line"/>
			<point x="270" y="658" type="line"/>
			<point x="270" y="636" type="line"/>
			<point x="313" y="621" type="line"/>
			<point x="313" y="380" type="line"/>
			<point x="309" y="364" type="line"/>
			<point x="309" y="77" type="line"/>
			<point x="309" y="77" type="line"/>
			<point x="309" y="-16" type="line"/>
		</contour>
	</outline>
</glyph>
<glyph name="dotlessi" format="2">
	<advance width="299"/>
	<outline>
		<contour>
			<point x="13" y="0" type="line"/>
			<point x="283" y="0" type="line"/>
			<point x="283" y="28" type="line"/>
			<point x="216" y="44" type="line"/>
			<point x="87" y="44" type="line"/>
			<point x="13" y="28" type="line"/>
		</contour>
		<contour>
			<point x="45" y="0" type="curve"/>
			<point x="256" y="0" type="line"/>
			<point x="249" y="56"/>
			<point x="250" y="136"/>
			<point x="250" y="206" type="curve" smooth="yes"/>
			<point x="250" y="330" type="line"/>
			<point x="254" y="468" type="line"/>
			<point x="234" y="480" type="line"/>
			<point x="9" y="420" type="line"/>
			<point x="9" y="398" type="line"/>
			<point x="50" y="381" type="line"/>
			<point x="52" y="332"/>
			<point x="51" y="290"/>
			<point x="51" y="222" type="curve" smooth="yes"/>
			<point x="51" y="206" type="line" smooth="yes"/>
			<point x="51" y="136"/>
			<point x="52" y="56"/>
		</contour>
	</outline>
	<anchor name="aboveLC" x="151" y="484"/>
	<anchor name="belowLC" x="161" y="-20"/>
	<anchor name="ogonek" x="189" y="0"/>
</glyph>
<glyph name="dotlessj" format="2">
	<advance width="299"/>
	<outline>
		<contour>
			<point x="24" y="-233" type="curve" smooth="yes"/>
			<point x="62" y="-233"/>
			<point x="133" y="-222"/>
			<point x="190" y="-164" type="curve" smooth="yes"/>
			<point x="230" y="-128"/>
			<point x="250" y="-100"/>
			<point x="250" y="-36" type="curve" smooth="yes"/>
			<point x="250" y="330" type="line"/>
			<point x="254" y="468" type="line"/>
			<point x="234" y="480" type="line"/>
			<point x="9" y="420" type="line"/>
			<point x="9" y="398" type="line"/>
			<point x="50" y="381" type="line"/>
			<point x="50" y="332"/>
			<point x="51" y="295"/>
			<point x="51" y="226" type="curve" smooth="yes"/>
			<point x="51" y="93" type="line" smooth="yes"/>
			<point x="51" y="38"/>
			<point x="66" y="-39"/>
			<point x="76" y="-125" type="curve" smooth="yes"/>
			<point x="79" y="-154"/>
			<point x="76" y="-177"/>
			<point x="65" y="-200" type="curve"/>
			<point x="65" y="-216" type="line"/>
			<point x="83" y="-216" type="line"/>
			<point x="83" y="-213" type="line"/>
			<point x="65" y="-160" type="line" smooth="yes"/>
			<point x="34" y="-95"/>
			<point x="11" y="-88"/>
			<point x="-23" y="-88" type="curve" smooth="yes"/>
			<point x="-67" y="-88"/>
			<point x="-96" y="-116"/>
			<point x="-100" y="-157" type="curve"/>
			<point x="-87" y="-218"/>
			<point x="-42" y="-233"/>
		</contour>
	</outline>
	<anchor name="aboveLC" x="140" y="484"/>
	<anchor name="belowLC" x="101" y="-243"/>
</glyph>
<glyph name="e" format="2">
	<advance width="483"/>
	<outline>
		<contour>
			<point x="255" y="-18" type="curve" smooth="yes"/>
			<point x="341" y="-18"/>
			<point x="408" y="15"/>
			<point x="449" y="92" type="curve"/>
			<point x="433" y="108" type="line"/>
			<point x="411" y="91"/>
			<point x="386" y="81"/>
			<point x="354" y="81" type="curve" smooth="yes"/>
			<point x="282" y="81"/>
			<point x="231" y="141"/>
			<point x="231" y="259" type="curve" smooth="yes"/>
			<point x="231" y="411"/>
			<point x="237" y="450"/>
			<point x="260" y="450" type="curve" smooth="yes"/>
			<point x="275" y="450"/>
			<point x="287" y="442"/>
			<point x="287" y="367" type="curve" smooth="yes"/>
			<point x="287" y="291"/>
			<point x="264" y="276"/>
			<point x="191" y="276" type="curve" smooth="yes"/>
			<point x="101" y="276" type="line"/>
			<point x="101" y="248" type="line"/>
			<point x="455" y="248" type="line"/>
			<point x="459" y="270"/>
			<point x="459" y="272"/>
			<point x="459" y="290" type="curve" smooth="yes"/>
			<point x="459" y="394"/>
			<point x="392" y="480"/>
			<point x="256" y="480" type="curve" smooth="yes"/>
			<point x="138" y="480"/>
			<point x="21" y="407"/>
			<point x="21" y="228" type="curve" smooth="yes"/>
			<point x="21" y="66"/>
			<point x="126" y="-18"/>
		</contour>
	</outline>
	<anchor name="aboveLC" x="253" y="484"/>
	<anchor name="belowLC" x="262" y="-20"/>
	<anchor name="ogonek" x="337" y="0"/>
</glyph>
<glyph name="eight.cap" format="2">
	<advance width="507"/>
	<outline>
		<contour>
			<point x="233" y="-18" type="curve" smooth="yes"/>
			<point x="382" y="-18"/>
			<point x="493" y="52"/>
			<point x="493" y="182" type="curve" smooth="yes"/>
			<point x="493" y="283"/>
			<point x="396" y="342"/>
			<point x="314" y="401" type="curve" smooth="yes"/>
			<point x="255" y="446"/>
			<point x="205" y="489"/>
			<point x="205" y="549" type="curve" smooth="yes"/>
			<point x="205" y="607"/>
			<point x="228" y="629"/>
			<point x="255" y="629" type="curve" smooth="yes"/>
			<point x="286" y="629"/>
			<point x="302" y="588"/>
			<point x="302" y="527" type="curve" smooth="yes"/>
			<point x="302" y="491"/>
			<point x="306" y="460"/>
			<point x="309" y="403" type="curve"/>
			<point x="310" y="385" type="line"/>
			<point x="310" y="391" type="line"/>
			<point x="442" y="421"/>
			<point x="466" y="454"/>
			<point x="466" y="525" type="curve" smooth="yes"/>
			<point x="466" y="579"/>
			<point x="421" y="660"/>
			<point x="260" y="660" type="curve" smooth="yes"/>
			<point x="121" y="660"/>
			<point x="18" y="594"/>
			<point x="18" y="476" type="curve" smooth="yes"/>
			<point x="18" y="374"/>
			<point x="98" y="320"/>
			<point x="173" y="265" type="curve" smooth="yes"/>
			<point x="234" y="218"/>
			<point x="291" y="171"/>
			<point x="291" y="99" type="curve" smooth="yes"/>
			<point x="291" y="33"/>
			<point x="266" y="13"/>
			<point x="239" y="13" type="curve" smooth="yes"/>
			<point x="205" y="13"/>
			<point x="193" y="60"/>
			<point x="193" y="125" type="curve" smooth="yes"/>
			<point x="193" y="161"/>
			<point x="185" y="203"/>
			<point x="188" y="274" type="curve"/>
			<point x="193" y="287" type="line"/>
			<point x="193" y="283" type="line"/>
			<point x="37" y="248"/>
			<point x="16" y="198"/>
			<point x="16" y="130" type="curve" smooth="yes"/>
			<point x="16" y="69"/>
			<point x="64" y="-18"/>
		</contour>
	</outline>
</glyph>
<glyph name="eight.lf" format="2">
	<advance width="507"/>
	<outline>
		<contour>
			<point x="233" y="-18" type="curve" smooth="yes"/>
			<point x="382" y="-18"/>
			<point x="486" y="42"/>
			<point x="486" y="172" type="curve" smooth="yes"/>
			<point x="486" y="275"/>
			<point x="392" y="327"/>
			<point x="310" y="382" type="curve" smooth="yes"/>
			<point x="253" y="422"/>
			<point x="205" y="465"/>
			<point x="205" y="524" type="curve" smooth="yes"/>
			<point x="205" y="582"/>
			<point x="228" y="602"/>
			<point x="255" y="602" type="curve" smooth="yes"/>
			<point x="286" y="602"/>
			<point x="302" y="569"/>
			<point x="302" y="508" type="curve" smooth="yes"/>
			<point x="302" y="470"/>
			<point x="306" y="438"/>
			<point x="307" y="381" type="curve"/>
			<point x="310" y="367" type="line"/>
			<point x="310" y="373" type="line"/>
			<point x="442" y="404"/>
			<point x="466" y="433"/>
			<point x="466" y="506" type="curve" smooth="yes"/>
			<point x="466" y="560"/>
			<point x="421" y="633"/>
			<point x="260" y="633" type="curve" smooth="yes"/>
			<point x="121" y="633"/>
			<point x="24" y="575"/>
			<point x="24" y="457" type="curve" smooth="yes"/>
			<point x="24" y="353"/>
			<point x="105" y="304"/>
			<point x="178" y="253" type="curve" smooth="yes"/>
			<point x="238" y="211"/>
			<point x="291" y="167"/>
			<point x="291" y="95" type="curve" smooth="yes"/>
			<point x="291" y="31"/>
			<point x="266" y="13"/>
			<point x="239" y="13" type="curve" smooth="yes"/>
			<point x="205" y="13"/>
			<point x="193" y="52"/>
			<point x="193" y="115" type="curve" smooth="yes"/>
			<point x="193" y="151"/>
			<point x="185" y="187"/>
			<point x="186" y="252" type="curve"/>
			<point x="187" y="272" type="line"/>
			<point x="187" y="262" type="line"/>
			<point x="36" y="230"/>
			<point x="16" y="190"/>
			<point x="16" y="121" type="curve" smooth="yes"/>
			<point x="16" y="62"/>
			<point x="64" y="-18"/>
		</contour>
	</outline>
</glyph>
<glyph name="eng" format="2">
	<advance width="573"/>
	<outline>
		<contour>
			<point x="13" y="0" type="line"/>
			<point x="283" y="0" type="line"/>
			<point x="283" y="28" type="line"/>
			<point x="216" y="44" type="line"/>
			<point x="87" y="44" type="line"/>
			<point x="13" y="28" type="line"/>
		</contour>
		<contour>
			<point x="45" y="0" type="curve"/>
			<point x="256" y="0" type="line"/>
			<point x="249" y="56"/>
			<point x="250" y="136"/>
			<point x="250" y="206" type="curve" smooth="yes"/>
			<point x="250" y="372" type="line"/>
			<point x="250" y="375" type="line"/>
			<point x="250" y="468" type="line"/>
			<point x="230" y="480" type="line"/>
			<point x="9" y="420" type="line"/>
			<point x="9" y="398" type="line"/>
			<point x="50" y="381" type="line"/>
			<point x="52" y="332"/>
			<point x="51" y="290"/>
			<point x="51" y="222" type="curve" smooth="yes"/>
			<point x="51" y="206" type="line" smooth="yes"/>
			<point x="51" y="136"/>
			<point x="52" y="56"/>
		</contour>
		<contour>
			<point x="302" y="-233" type="curve" smooth="yes"/>
			<point x="340" y="-233"/>
			<point x="411" y="-222"/>
			<point x="469" y="-164" type="curve" smooth="yes"/>
			<point x="507" y="-128"/>
			<point x="528" y="-100"/>
			<point x="528" y="-36" type="curve" smooth="yes"/>
			<point x="528" y="333" type="line" smooth="yes"/>
			<point x="528" y="430"/>
			<point x="471" y="480"/>
			<point x="395" y="480" type="curve" smooth="yes"/>
			<point x="328" y="480"/>
			<point x="283" y="460"/>
			<point x="225" y="358" type="curve"/>
			<point x="211" y="358" type="line"/>
			<point x="207" y="322" type="line"/>
			<point x="226" y="356"/>
			<point x="266" y="377"/>
			<point x="291" y="377" type="curve" smooth="yes"/>
			<point x="313" y="377"/>
			<point x="328" y="360"/>
			<point x="328" y="327" type="curve" smooth="yes"/>
			<point x="328" y="95" type="line" smooth="yes"/>
			<point x="328" y="40"/>
			<point x="344" y="-39"/>
			<point x="354" y="-127" type="curve" smooth="yes"/>
			<point x="357" y="-154"/>
			<point x="354" y="-177"/>
			<point x="345" y="-199" type="curve"/>
			<point x="345" y="-216" type="line"/>
			<point x="354" y="-216" type="line"/>
			<point x="354" y="-199" type="line"/>
			<point x="341" y="-160" type="line" smooth="yes"/>
			<point x="311" y="-94"/>
			<point x="289" y="-88"/>
			<point x="255" y="-88" type="curve" smooth="yes"/>
			<point x="210" y="-88"/>
			<point x="182" y="-116"/>
			<point x="176" y="-157" type="curve"/>
			<point x="191" y="-218"/>
			<point x="236" y="-233"/>
		</contour>
	</outline>
</glyph>
<glyph name="eogonek" format="2">
	<advance width="483"/>
	<outline>
		<contour>
			<point x="293" y="-228" type="curve" smooth="yes"/>
			<point x="363" y="-228"/>
			<point x="409" y="-192"/>
			<point x="438" y="-154" type="curve"/>
			<point x="428" y="-138" type="line"/>
			<point x="409" y="-141"/>
			<point x="398" y="-144"/>
			<point x="373" y="-144" type="curve" smooth="yes"/>
			<point x="333" y="-144"/>
			<point x="311" y="-120"/>
			<point x="311" y="-94" type="curve" smooth="yes"/>
			<point x="311" y="-55"/>
			<point x="328" y="-30"/>
			<point x="378" y="14" type="curve" smooth="yes"/>
			<point x="403" y="36"/>
			<point x="431" y="58"/>
			<point x="449" y="92" type="curve"/>
			<point x="433" y="108" type="line"/>
			<point x="411" y="91"/>
			<point x="386" y="81"/>
			<point x="354" y="81" type="curve" smooth="yes"/>
			<point x="282" y="81"/>
			<point x="231" y="141"/>
			<point x="231" y="259" type="curve" smooth="yes"/>
			<point x="231" y="411"/>
			<point x="237" y="450"/>
			<point x="260" y="450" type="curve" smooth="yes"/>
			<point x="275" y="450"/>
			<point x="287" y="442"/>
			<point x="287" y="367" type="curve" smooth="yes"/>
			<point x="287" y="291"/>
			<point x="264" y="276"/>
			<point x="191" y="276" type="curve" smooth="yes"/>
			<point x="101" y="276" type="line"/>
			<point x="101" y="248" type="line"/>
			<point x="455" y="248" type="line"/>
			<point x="459" y="270"/>
			<point x="459" y="272"/>
			<point x="459" y="290" type="curve" smooth="yes"/>
			<point x="459" y="394"/>
			<point x="392" y="480"/>
			<point x="256" y="480" type="curve" smooth="yes"/>
			<point x="138" y="480"/>
			<point x="21" y="407"/>
			<point x="21" y="228" type="curve" smooth="yes"/>
			<point x="21" y="66"/>
			<point x="126" y="-18"/>
			<point x="255" y="-18" type="curve" smooth="yes"/>
			<point x="281" y="-18"/>
			<point x="306" y="-15"/>
			<point x="328" y="-7" type="curve"/>
			<point x="342" y="1" type="line"/>
			<point x="252" y="-30"/>
			<point x="192" y="-71"/>
			<point x="192" y="-132" type="curve" smooth="yes"/>
			<point x="192" y="-187"/>
			<point x="224" y="-228"/>
		</contour>
	</outline>
	<anchor name="aboveLC" x="253" y="484"/>
</glyph>
<glyph name="eth" format="2">
	<advance width="557"/>
	<outline>
		<contour>
			<point x="277" y="-18" type="curve" smooth="yes"/>
			<point x="422" y="-18"/>
			<point x="532" y="84"/>
			<point x="532" y="264" type="curve" smooth="yes"/>
			<point x="532" y="507"/>
			<point x="381" y="679"/>
			<point x="119" y="728" type="curve"/>
			<point x="113" y="706" type="line"/>
			<point x="250" y="667"/>
			<point x="291" y="597"/>
			<point x="335" y="427" type="curve"/>
			<point x="355" y="429" type="line"/>
			<point x="348" y="437"/>
			<point x="354" y="480"/>
			<point x="277" y="480" type="curve" smooth="yes"/>
			<point x="117" y="480"/>
			<point x="24" y="368"/>
			<point x="24" y="232" type="curve" smooth="yes"/>
			<point x="24" y="96"/>
			<point x="95" y="-18"/>
		</contour>
		<contour>
			<point x="277" y="13" type="curve" smooth="yes"/>
			<point x="250" y="13"/>
			<point x="237" y="39"/>
			<point x="237" y="232" type="curve" smooth="yes"/>
			<point x="237" y="424"/>
			<point x="250" y="451"/>
			<point x="277" y="451" type="curve" smooth="yes"/>
			<point x="307" y="451"/>
			<point x="318" y="423"/>
			<point x="318" y="230" type="curve" smooth="yes"/>
			<point x="318" y="40"/>
			<point x="307" y="13"/>
		</contour>
		<contour>
			<point x="136" y="527" type="line"/>
			<point x="499" y="682" type="line"/>
			<point x="487" y="710" type="line"/>
			<point x="124" y="554" type="line"/>
		</contour>
	</outline>
</glyph>
<glyph name="exclam" format="2">
	<advance width="256"/>
	<outline>
		<contour>
			<point x="128" y="-13" type="curve" smooth="yes"/>
			<point x="181" y="-13"/>
			<point x="224" y="32"/>
			<point x="224" y="83" type="curve" smooth="yes"/>
			<point x="224" y="133"/>
			<point x="181" y="177"/>
			<point x="128" y="177" type="curve" smooth="yes"/>
			<point x="76" y="177"/>
			<point x="34" y="133"/>
			<point x="34" y="83" type="curve" smooth="yes"/>
			<point x="34" y="32"/>
			<point x="76" y="-13"/>
		</contour>
		<contour>
			<point x="128" y="654" type="curve" smooth="yes"/>
			<point x="61" y="654"/>
			<point x="27" y="619"/>
			<point x="27" y="545" type="curve" smooth="yes"/>
			<point x="27" y="506"/>
			<point x="42" y="441"/>
			<point x="76" y="319" type="curve" smooth="yes"/>
			<point x="97" y="257" type="line"/>
			<point x="160" y="257" type="line"/>
			<point x="180" y="319" type="line" smooth="yes"/>
			<point x="214" y="441"/>
			<point x="229" y="506"/>
			<point x="229" y="545" type="curve" smooth="yes"/>
			<point x="229" y="619"/>
			<point x="197" y="654"/>
		</contour>
	</outline>
</glyph>
<glyph name="f" format="2">
	<advance width="343"/>
	<outline>
		<contour>
			<point x="13" y="0" type="line"/>
			<point x="319" y="0" type="line"/>
			<point x="319" y="28" type="line"/>
			<point x="228" y="44" type="line"/>
			<point x="87" y="44" type="line"/>
			<point x="13" y="28" type="line"/>
		</contour>
		<contour>
			<point x="45" y="0" type="curve"/>
			<point x="256" y="0" type="line"/>
			<point x="249" y="56"/>
			<point x="250" y="136"/>
			<point x="250" y="206" type="curve" smooth="yes"/>
			<point x="250" y="444" type="line"/>
			<point x="241" y="579"/>
			<point x="233" y="647"/>
			<point x="278" y="713" type="curve" smooth="yes"/>
			<point x="276" y="711"/>
			<point x="268" y="709"/>
			<point x="261" y="710" type="curve"/>
			<point x="261" y="716" type="line"/>
			<point x="255" y="716" type="line"/>
			<point x="255" y="710" type="line"/>
			<point x="271" y="661" type="line" smooth="yes"/>
			<point x="297" y="599"/>
			<point x="330" y="573"/>
			<point x="371" y="573" type="curve" smooth="yes"/>
			<point x="407" y="573"/>
			<point x="439" y="593"/>
			<point x="441" y="635" type="curve"/>
			<point x="430" y="703"/>
			<point x="363" y="728"/>
			<point x="300" y="728" type="curve" smooth="yes"/>
			<point x="232" y="728"/>
			<point x="176" y="708"/>
			<point x="130" y="666" type="curve" smooth="yes"/>
			<point x="94" y="633"/>
			<point x="63" y="560"/>
			<point x="56" y="486" type="curve"/>
			<point x="53" y="438" type="line"/>
			<point x="83" y="474" type="line"/>
			<point x="9" y="456" type="line"/>
			<point x="9" y="428" type="line"/>
			<point x="51" y="428" type="line"/>
			<point x="51" y="206" type="line" smooth="yes"/>
			<point x="51" y="136"/>
			<point x="52" y="58"/>
		</contour>
		<contour>
			<point x="161" y="428" type="line"/>
			<point x="335" y="428" type="line"/>
			<point x="335" y="464" type="line"/>
			<point x="161" y="464" type="line"/>
		</contour>
	</outline>
	<anchor name="aboveLC" x="274" y="718"/>
	<anchor name="belowLC" x="161" y="-20"/>
</glyph>
<glyph name="f_i" format="2">
	<advance width="578"/>
	<outline>
		<contour>
			<point x="20" y="0" type="line"/>
			<point x="283" y="0" type="line"/>
			<point x="283" y="28" type="line"/>
			<point x="213" y="44" type="line"/>
			<point x="87" y="44" type="line"/>
			<point x="20" y="28" type="line"/>
		</contour>
		<contour>
			<point x="45" y="0" type="curve"/>
			<point x="256" y="0" type="line"/>
			<point x="249" y="56"/>
			<point x="250" y="136"/>
			<point x="250" y="206" type="curve" smooth="yes"/>
			<point x="250" y="444" type="line"/>
			<point x="251" y="592"/>
			<point x="267" y="648"/>
			<point x="280" y="664" type="curve" smooth="yes"/>
			<point x="307" y="698"/>
			<point x="327" y="710"/>
			<point x="354" y="710" type="curve"/>
			<point x="354" y="720" type="line"/>
			<point x="287" y="720" type="line"/>
			<point x="287" y="710" type="line"/>
			<point x="314" y="655" type="line" smooth="yes"/>
			<point x="349" y="590"/>
			<point x="378" y="564"/>
			<point x="422" y="564" type="curve" smooth="yes"/>
			<point x="459" y="564"/>
			<point x="499" y="584"/>
			<point x="501" y="631" type="curve"/>
			<point x="488" y="695"/>
			<point x="415" y="728"/>
			<point x="331" y="728" type="curve" smooth="yes"/>
			<point x="249" y="728"/>
			<point x="213" y="710"/>
			<point x="166" y="677" type="curve" smooth="yes"/>
			<point x="97" y="630"/>
			<point x="58" y="547"/>
			<point x="53" y="438" type="curve"/>
			<point x="83" y="474" type="line"/>
			<point x="9" y="456" type="line"/>
			<point x="9" y="428" type="line"/>
			<point x="51" y="428" type="line"/>
			<point x="51" y="206" type="line" smooth="yes"/>
			<point x="51" y="136"/>
			<point x="52" y="58"/>
		</contour>
		<contour>
			<point x="297" y="0" type="line"/>
			<point x="561" y="0" type="line"/>
			<point x="561" y="28" type="line"/>
			<point x="493" y="44" type="line"/>
			<point x="365" y="44" type="line"/>
			<point x="297" y="28" type="line"/>
		</contour>
		<contour>
			<point x="322" y="0" type="curve"/>
			<point x="534" y="0" type="line"/>
			<point x="527" y="56"/>
			<point x="528" y="136"/>
			<point x="528" y="206" type="curve" smooth="yes"/>
			<point x="528" y="330" type="line"/>
			<point x="532" y="468" type="line"/>
			<point x="513" y="480" type="line"/>
			<point x="445" y="464" type="line"/>
			<point x="161" y="464" type="line"/>
			<point x="161" y="428" type="line"/>
			<point x="327" y="428" type="line"/>
			<point x="329" y="374"/>
			<point x="328" y="282"/>
			<point x="328" y="222" type="curve" smooth="yes"/>
			<point x="328" y="206" type="line" smooth="yes"/>
			<point x="328" y="136"/>
			<point x="329" y="56"/>
		</contour>
	</outline>
</glyph>
<glyph name="f_j" format="2">
	<advance width="578"/>
	<outline>
		<contour>
			<point x="20" y="0" type="line"/>
			<point x="283" y="0" type="line"/>
			<point x="283" y="28" type="line"/>
			<point x="213" y="44" type="line"/>
			<point x="87" y="44" type="line"/>
			<point x="20" y="28" type="line"/>
		</contour>
		<contour>
			<point x="45" y="0" type="curve"/>
			<point x="256" y="0" type="line"/>
			<point x="249" y="56"/>
			<point x="250" y="136"/>
			<point x="250" y="206" type="curve" smooth="yes"/>
			<point x="250" y="444" type="line"/>
			<point x="251" y="592"/>
			<point x="267" y="648"/>
			<point x="280" y="664" type="curve" smooth="yes"/>
			<point x="307" y="698"/>
			<point x="327" y="710"/>
			<point x="354" y="710" type="curve"/>
			<point x="354" y="720" type="line"/>
			<point x="287" y="720" type="line"/>
			<point x="287" y="710" type="line"/>
			<point x="314" y="655" type="line" smooth="yes"/>
			<point x="349" y="590"/>
			<point x="378" y="564"/>
			<point x="422" y="564" type="curve" smooth="yes"/>
			<point x="459" y="564"/>
			<point x="499" y="584"/>
			<point x="501" y="631" type="curve"/>
			<point x="488" y="695"/>
			<point x="415" y="728"/>
			<point x="331" y="728" type="curve" smooth="yes"/>
			<point x="249" y="728"/>
			<point x="213" y="710"/>
			<point x="166" y="677" type="curve" smooth="yes"/>
			<point x="97" y="630"/>
			<point x="58" y="547"/>
			<point x="53" y="438" type="curve"/>
			<point x="83" y="474" type="line"/>
			<point x="9" y="456" type="line"/>
			<point x="9" y="428" type="line"/>
			<point x="51" y="428" type="line"/>
			<point x="51" y="206" type="line" smooth="yes"/>
			<point x="51" y="136"/>
			<point x="52" y="58"/>
		</contour>
		<contour>
			<point x="301" y="-233" type="curve" smooth="yes"/>
			<point x="341" y="-233"/>
			<point x="412" y="-222"/>
			<point x="469" y="-164" type="curve" smooth="yes"/>
			<point x="507" y="-128"/>
			<point x="527" y="-100"/>
			<point x="527" y="-36" type="curve" smooth="yes"/>
			<point x="527" y="330" type="line"/>
			<point x="531" y="468" type="line"/>
			<point x="513" y="480" type="line"/>
			<point x="445" y="464" type="line"/>
			<point x="161" y="464" type="line"/>
			<point x="161" y="428" type="line"/>
			<point x="327" y="428" type="line"/>
			<point x="327" y="367"/>
			<point x="328" y="342"/>
			<point x="328" y="273" type="curve" smooth="yes"/>
			<point x="328" y="93" type="line" smooth="yes"/>
			<point x="328" y="38"/>
			<point x="345" y="-39"/>
			<point x="355" y="-125" type="curve" smooth="yes"/>
			<point x="358" y="-154"/>
			<point x="353" y="-177"/>
			<point x="344" y="-200" type="curve"/>
			<point x="344" y="-216" type="line"/>
			<point x="362" y="-216" type="line"/>
			<point x="362" y="-213" type="line"/>
			<point x="342" y="-160" type="line" smooth="yes"/>
			<point x="311" y="-95"/>
			<point x="290" y="-88"/>
			<point x="254" y="-88" type="curve" smooth="yes"/>
			<point x="210" y="-88"/>
			<point x="183" y="-116"/>
			<point x="177" y="-157" type="curve"/>
			<point x="192" y="-218"/>
			<point x="237" y="-233"/>
		</contour>
	</outline>
</glyph>
<glyph name="f_l" format="2">
	<advance width="599"/>
	<outline>
		<contour>
			<point x="20" y="0" type="line"/>
			<point x="283" y="0" type="line"/>
			<point x="283" y="28" type="line"/>
			<point x="213" y="44" type="line"/>
			<point x="87" y="44" type="line"/>
			<point x="20" y="28" type="line"/>
		</contour>
		<contour>
			<point x="45" y="0" type="curve"/>
			<point x="256" y="0" type="line"/>
			<point x="249" y="56"/>
			<point x="250" y="136"/>
			<point x="250" y="206" type="curve" smooth="yes"/>
			<point x="250" y="444" type="line"/>
			<point x="241" y="549"/>
			<point x="236" y="606"/>
			<point x="234" y="650" type="curve" smooth="yes"/>
			<point x="233" y="667"/>
			<point x="237" y="685"/>
			<point x="236" y="701" type="curve"/>
			<point x="236" y="716" type="line"/>
			<point x="250" y="716" type="line"/>
			<point x="250" y="701" type="line"/>
			<point x="264" y="661" type="line" smooth="yes"/>
			<point x="291" y="595"/>
			<point x="321" y="573"/>
			<point x="364" y="573" type="curve" smooth="yes"/>
			<point x="400" y="573"/>
			<point x="434" y="593"/>
			<point x="436" y="635" type="curve"/>
			<point x="423" y="703"/>
			<point x="357" y="728"/>
			<point x="293" y="728" type="curve" smooth="yes"/>
			<point x="225" y="728"/>
			<point x="162" y="702"/>
			<point x="118" y="658" type="curve" smooth="yes"/>
			<point x="91" y="628"/>
			<point x="63" y="563"/>
			<point x="53" y="438" type="curve"/>
			<point x="83" y="474" type="line"/>
			<point x="9" y="456" type="line"/>
			<point x="9" y="428" type="line"/>
			<point x="51" y="428" type="line"/>
			<point x="51" y="206" type="line" smooth="yes"/>
			<point x="51" y="136"/>
			<point x="52" y="58"/>
		</contour>
		<contour>
			<point x="161" y="428" type="line"/>
			<point x="312" y="428" type="line"/>
			<point x="312" y="464" type="line"/>
			<point x="161" y="464" type="line"/>
		</contour>
		<contour>
			<point x="318" y="0" type="line"/>
			<point x="581" y="0" type="line"/>
			<point x="581" y="28" type="line"/>
			<point x="514" y="44" type="line"/>
			<point x="385" y="44" type="line"/>
			<point x="318" y="28" type="line"/>
		</contour>
		<contour>
			<point x="343" y="0" type="curve"/>
			<point x="556" y="0" type="line"/>
			<point x="547" y="56"/>
			<point x="548" y="136"/>
			<point x="548" y="206" type="curve" smooth="yes"/>
			<point x="548" y="490" type="line"/>
			<point x="552" y="704" type="line"/>
			<point x="534" y="718" type="line"/>
			<point x="349" y="668" type="line"/>
			<point x="349" y="206" type="line" smooth="yes"/>
			<point x="349" y="136"/>
			<point x="350" y="56"/>
		</contour>
	</outline>
</glyph>
<glyph name="f_t" format="2">
	<advance width="652"/>
	<outline>
		<contour>
			<point x="443" y="428" type="line"/>
			<point x="621" y="428" type="line"/>
			<point x="621" y="464" type="line"/>
			<point x="443" y="464" type="line"/>
		</contour>
		<contour>
			<point x="495" y="-18" type="curve" smooth="yes"/>
			<point x="581" y="-18"/>
			<point x="631" y="17"/>
			<point x="656" y="81" type="curve"/>
			<point x="639" y="94" type="line"/>
			<point x="624" y="75"/>
			<point x="613" y="69"/>
			<point x="588" y="69" type="curve" smooth="yes"/>
			<point x="562" y="69"/>
			<point x="538" y="81"/>
			<point x="538" y="123" type="curve" smooth="yes"/>
			<point x="538" y="436" type="line"/>
			<point x="538" y="452" type="line"/>
			<point x="542" y="616" type="line"/>
			<point x="471" y="616" type="line"/>
			<point x="333" y="452" type="line"/>
			<point x="363" y="464" type="line"/>
			<point x="305" y="464" type="line"/>
			<point x="305" y="428" type="line"/>
			<point x="340" y="428" type="line"/>
			<point x="338" y="264" type="line" smooth="yes"/>
			<point x="336" y="203"/>
			<point x="338" y="180"/>
			<point x="338" y="133" type="curve" smooth="yes"/>
			<point x="338" y="28"/>
			<point x="394" y="-18"/>
		</contour>
		<component base="f"/>
	</outline>
</glyph>
<glyph name="five.cap" format="2">
	<advance width="503"/>
	<outline>
		<contour>
			<point x="211" y="-18" type="curve" smooth="yes"/>
			<point x="377" y="-18"/>
			<point x="489" y="41"/>
			<point x="489" y="186" type="curve" smooth="yes"/>
			<point x="489" y="309"/>
			<point x="383" y="366"/>
			<point x="262" y="366" type="curve" smooth="yes"/>
			<point x="196" y="366"/>
			<point x="115" y="355"/>
			<point x="72" y="318" type="curve"/>
			<point x="97" y="309" type="line"/>
			<point x="118" y="614" type="line"/>
			<point x="86" y="484" type="line"/>
			<point x="466" y="484" type="line"/>
			<point x="466" y="644" type="line"/>
			<point x="85" y="644" type="line"/>
			<point x="65" y="295" type="line"/>
			<point x="89" y="285" type="line"/>
			<point x="111" y="294"/>
			<point x="148" y="303"/>
			<point x="179" y="303" type="curve" smooth="yes"/>
			<point x="248" y="303"/>
			<point x="275" y="246"/>
			<point x="275" y="164" type="curve" smooth="yes"/>
			<point x="275" y="85"/>
			<point x="243" y="13"/>
			<point x="174" y="13" type="curve" smooth="yes"/>
			<point x="167" y="13"/>
			<point x="151" y="15"/>
			<point x="136" y="21" type="curve"/>
			<point x="161" y="-2" type="line"/>
			<point x="148" y="104" type="line" smooth="yes"/>
			<point x="138" y="178"/>
			<point x="110" y="193"/>
			<point x="71" y="193" type="curve" smooth="yes"/>
			<point x="48" y="193"/>
			<point x="17" y="179"/>
			<point x="6" y="143" type="curve"/>
			<point x="20" y="37"/>
			<point x="85" y="-18"/>
		</contour>
	</outline>
</glyph>
<glyph name="five.lf" format="2">
	<advance width="503"/>
	<outline>
		<contour>
			<point x="211" y="-18" type="curve" smooth="yes"/>
			<point x="377" y="-18"/>
			<point x="489" y="39"/>
			<point x="489" y="192" type="curve" smooth="yes"/>
			<point x="489" y="319"/>
			<point x="383" y="372"/>
			<point x="246" y="372" type="curve" smooth="yes"/>
			<point x="182" y="372"/>
			<point x="117" y="357"/>
			<point x="72" y="326" type="curve"/>
			<point x="97" y="315" type="line"/>
			<point x="118" y="585" type="line"/>
			<point x="86" y="455" type="line"/>
			<point x="466" y="455" type="line"/>
			<point x="466" y="615" type="line"/>
			<point x="85" y="615" type="line"/>
			<point x="65" y="301" type="line"/>
			<point x="89" y="293" type="line"/>
			<point x="111" y="300"/>
			<point x="148" y="309"/>
			<point x="179" y="309" type="curve" smooth="yes"/>
			<point x="248" y="309"/>
			<point x="275" y="256"/>
			<point x="275" y="170" type="curve" smooth="yes"/>
			<point x="275" y="82"/>
			<point x="243" y="13"/>
			<point x="174" y="13" type="curve" smooth="yes"/>
			<point x="167" y="13"/>
			<point x="151" y="15"/>
			<point x="136" y="21" type="curve"/>
			<point x="161" y="-2" type="line"/>
			<point x="148" y="104" type="line" smooth="yes"/>
			<point x="138" y="178"/>
			<point x="110" y="193"/>
			<point x="71" y="193" type="curve" smooth="yes"/>
			<point x="48" y="193"/>
			<point x="17" y="179"/>
			<point x="6" y="143" type="curve"/>
			<point x="20" y="37"/>
			<point x="85" y="-18"/>
		</contour>
	</outline>
</glyph>
<glyph name="four.cap" format="2">
	<advance width="521"/>
	<outline>
		<contour>
			<point x="253" y="-7" type="line"/>
			<point x="443" y="-7" type="line"/>
			<point x="443" y="640" type="line"/>
			<point x="291" y="640" type="line"/>
			<point x="11" y="227" type="line"/>
			<point x="11" y="95" type="line"/>
			<point x="509" y="95" type="line"/>
			<point x="509" y="243" type="line"/>
			<point x="62" y="243" type="line"/>
			<point x="62" y="272" type="line"/>
			<point x="41" y="198" type="line"/>
			<point x="158" y="366" type="line"/>
			<point x="273" y="537" type="line"/>
			<point x="249" y="515" type="line"/>
			<point x="253" y="515" type="line"/>
			<point x="253" y="207" type="line"/>
			<point x="253" y="159" type="line"/>
		</contour>
	</outline>
</glyph>
<glyph name="four.lf" format="2">
	<advance width="521"/>
	<outline>
		<contour>
			<point x="253" y="-7" type="line"/>
			<point x="443" y="-7" type="line"/>
			<point x="443" y="611" type="line"/>
			<point x="281" y="611" type="line"/>
			<point x="11" y="215" type="line"/>
			<point x="11" y="99" type="line"/>
			<point x="509" y="99" type="line"/>
			<point x="509" y="247" type="line"/>
			<point x="66" y="247" type="line"/>
			<point x="66" y="271" type="line"/>
			<point x="44" y="203" type="line"/>
			<point x="164" y="378" type="line"/>
			<point x="283" y="553" type="line"/>
			<point x="230" y="516" type="line"/>
			<point x="253" y="516" type="line"/>
			<point x="253" y="176" type="line"/>
			<point x="253" y="151" type="line"/>
		</contour>
	</outline>
</glyph>
<glyph name="g" format="2">
	<advance width="533"/>
	<outline>
		<contour>
			<point x="212" y="-233" type="curve" smooth="yes"/>
			<point x="407" y="-233"/>
			<point x="499" y="-133"/>
			<point x="499" y="-37" type="curve" smooth="yes"/>
			<point x="499" y="49"/>
			<point x="441" y="108"/>
			<point x="321" y="108" type="curve" smooth="yes"/>
			<point x="195" y="108" type="line" smooth="yes"/>
			<point x="149" y="108"/>
			<point x="123" y="122"/>
			<point x="123" y="147" type="curve" smooth="yes"/>
			<point x="123" y="182"/>
			<point x="152" y="198"/>
			<point x="159" y="197" type="curve"/>
			<point x="140" y="225" type="line"/>
			<point x="140" y="211" type="line"/>
			<point x="85" y="179"/>
			<point x="19" y="127"/>
			<point x="19" y="48" type="curve" smooth="yes"/>
			<point x="19" y="-22"/>
			<point x="82" y="-57"/>
			<point x="140" y="-67" type="curve"/>
			<point x="146" y="-67" type="line"/>
			<point x="158" y="-69"/>
			<point x="169" y="-69"/>
			<point x="182" y="-69" type="curve" smooth="yes"/>
			<point x="278" y="-69" type="line" smooth="yes"/>
			<point x="328" y="-69"/>
			<point x="361" y="-81"/>
			<point x="361" y="-122" type="curve" smooth="yes"/>
			<point x="361" y="-166"/>
			<point x="310" y="-203"/>
			<point x="214" y="-203" type="curve" smooth="yes"/>
			<point x="127" y="-203"/>
			<point x="110" y="-161"/>
			<point x="110" y="-132" type="curve" smooth="yes"/>
			<point x="110" y="-109"/>
			<point x="117" y="-93"/>
			<point x="156" y="-61" type="curve"/>
			<point x="152" y="-59" type="line"/>
			<point x="97" y="-64"/>
			<point x="1" y="-70"/>
			<point x="1" y="-144" type="curve" smooth="yes"/>
			<point x="1" y="-192"/>
			<point x="39" y="-233"/>
		</contour>
		<contour>
			<point x="234" y="167" type="curve" smooth="yes"/>
			<point x="374" y="167"/>
			<point x="441" y="238"/>
			<point x="441" y="320" type="curve" smooth="yes"/>
			<point x="441" y="344"/>
			<point x="437" y="368"/>
			<point x="427" y="390" type="curve"/>
			<point x="425" y="396" type="line"/>
			<point x="400" y="445"/>
			<point x="339" y="480"/>
			<point x="234" y="480" type="curve" smooth="yes"/>
			<point x="93" y="480"/>
			<point x="29" y="411"/>
			<point x="29" y="329" type="curve" smooth="yes"/>
			<point x="29" y="244"/>
			<point x="75" y="167"/>
		</contour>
		<contour>
			<point x="234" y="197" type="curve" smooth="yes"/>
			<point x="214" y="197"/>
			<point x="204" y="220"/>
			<point x="204" y="325" type="curve" smooth="yes"/>
			<point x="204" y="429"/>
			<point x="214" y="452"/>
			<point x="234" y="452" type="curve" smooth="yes"/>
			<point x="254" y="452"/>
			<point x="265" y="429"/>
			<point x="265" y="324" type="curve" smooth="yes"/>
			<point x="265" y="220"/>
			<point x="254" y="197"/>
		</contour>
		<contour>
			<point x="404" y="369" type="line"/>
			<point x="524" y="369" type="line"/>
			<point x="524" y="472" type="line"/>
			<point x="512" y="480" type="line"/>
			<point x="397" y="396" type="line"/>
			<point x="393" y="396" type="line"/>
		</contour>
	</outline>
	<anchor name="aboveLC" x="233" y="484"/>
	<anchor name="belowLC" x="226" y="-237"/>
</glyph>
<glyph name="germandbls" format="2">
	<advance width="637"/>
	<outline>
		<contour>
			<point x="9" y="0" type="line"/>
			<point x="174" y="0" type="line"/>
			<point x="174" y="44" type="line"/>
			<point x="82" y="44" type="line"/>
			<point x="9" y="28" type="line"/>
		</contour>
		<contour>
			<point x="43" y="0" type="curve"/>
			<point x="250" y="0" type="line"/>
			<point x="247" y="70"/>
			<point x="246" y="136"/>
			<point x="246" y="206" type="curve" smooth="yes"/>
			<point x="246" y="441" type="line" smooth="yes"/>
			<point x="246" y="560"/>
			<point x="247" y="636"/>
			<point x="277" y="673" type="curve" smooth="yes"/>
			<point x="292" y="691"/>
			<point x="314" y="698"/>
			<point x="346" y="698" type="curve" smooth="yes"/>
			<point x="386" y="698"/>
			<point x="416" y="673"/>
			<point x="416" y="600" type="curve" smooth="yes"/>
			<point x="416" y="556"/>
			<point x="414" y="520"/>
			<point x="387" y="494" type="curve" smooth="yes"/>
			<point x="346" y="450"/>
			<point x="288" y="416"/>
			<point x="288" y="337" type="curve" smooth="yes"/>
			<point x="288" y="267"/>
			<point x="319" y="250"/>
			<point x="356" y="217" type="curve" smooth="yes"/>
			<point x="408" y="174"/>
			<point x="466" y="146"/>
			<point x="466" y="85" type="curve" smooth="yes"/>
			<point x="466" y="19"/>
			<point x="428" y="11"/>
			<point x="391" y="11" type="curve" smooth="yes"/>
			<point x="367" y="11"/>
			<point x="356" y="16"/>
			<point x="311" y="47" type="curve"/>
			<point x="384" y="-5" type="line"/>
			<point x="309" y="155" type="line"/>
			<point x="282" y="155" type="line"/>
			<point x="281" y="14" type="line"/>
			<point x="316" y="-13"/>
			<point x="364" y="-18"/>
			<point x="413" y="-18" type="curve" smooth="yes"/>
			<point x="558" y="-18"/>
			<point x="639" y="80"/>
			<point x="639" y="185" type="curve" smooth="yes"/>
			<point x="639" y="252"/>
			<point x="577" y="307"/>
			<point x="519" y="353" type="curve" smooth="yes"/>
			<point x="463" y="398"/>
			<point x="414" y="431"/>
			<point x="414" y="456" type="curve" smooth="yes"/>
			<point x="414" y="482"/>
			<point x="448" y="494"/>
			<point x="485" y="503" type="curve" smooth="yes"/>
			<point x="535" y="517"/>
			<point x="572" y="540"/>
			<point x="572" y="611" type="curve" smooth="yes"/>
			<point x="572" y="689"/>
			<point x="504" y="728"/>
			<point x="350" y="728" type="curve" smooth="yes"/>
			<point x="306" y="728"/>
			<point x="264" y="720"/>
			<point x="226" y="710" type="curve" smooth="yes"/>
			<point x="124" y="675"/>
			<point x="47" y="588"/>
			<point x="47" y="425" type="curve" smooth="yes"/>
			<point x="47" y="206" type="line" smooth="yes"/>
			<point x="47" y="136"/>
			<point x="46" y="70"/>
		</contour>
	</outline>
</glyph>
<glyph name="gscript" format="2">
	<advance width="549"/>
	<outline>
		<contour>
			<point x="214" y="-233" type="curve" smooth="yes"/>
			<point x="290" y="-233"/>
			<point x="368" y="-215"/>
			<point x="422" y="-174" type="curve" smooth="yes"/>
			<point x="475" y="-137"/>
			<point x="508" y="-82"/>
			<point x="508" y="-4" type="curve"/>
			<point x="508" y="216" type="line"/>
			<point x="512" y="470" type="line"/>
			<point x="494" y="483" type="line"/>
			<point x="309" y="390" type="line"/>
			<point x="309" y="387" type="line"/>
			<point x="309" y="82" type="line"/>
			<point x="309" y="74" type="line"/>
			<point x="309" y="37"/>
			<point x="309" y="2"/>
			<point x="309" y="-35" type="curve" smooth="yes"/>
			<point x="309" y="-91"/>
			<point x="301" y="-125"/>
			<point x="289" y="-150" type="curve" smooth="yes"/>
			<point x="261" y="-197"/>
			<point x="219" y="-201"/>
			<point x="191" y="-201" type="curve" smooth="yes"/>
			<point x="160" y="-201"/>
			<point x="150" y="-191"/>
			<point x="123" y="-181" type="curve"/>
			<point x="215" y="-224" type="line"/>
			<point x="208" y="-158" type="line" smooth="yes"/>
			<point x="196" y="-63"/>
			<point x="163" y="-38"/>
			<point x="123" y="-38" type="curve" smooth="yes"/>
			<point x="84" y="-38"/>
			<point x="60" y="-54"/>
			<point x="44" y="-93" type="curve"/>
			<point x="41" y="-167"/>
			<point x="101" y="-233"/>
		</contour>
		<contour>
			<point x="187" y="-18" type="curve" smooth="yes"/>
			<point x="253" y="-18"/>
			<point x="298" y="21"/>
			<point x="328" y="97" type="curve"/>
			<point x="333" y="97" type="line"/>
			<point x="325" y="110" type="line"/>
			<point x="314" y="95"/>
			<point x="300" y="81"/>
			<point x="286" y="81" type="curve" smooth="yes"/>
			<point x="253" y="81"/>
			<point x="233" y="106"/>
			<point x="233" y="226" type="curve" smooth="yes"/>
			<point x="233" y="350"/>
			<point x="255" y="384"/>
			<point x="286" y="384" type="curve" smooth="yes"/>
			<point x="305" y="384"/>
			<point x="311" y="374"/>
			<point x="325" y="355" type="curve"/>
			<point x="342" y="364" type="line"/>
			<point x="332" y="364" type="line"/>
			<point x="303" y="445"/>
			<point x="269" y="480"/>
			<point x="211" y="480" type="curve" smooth="yes"/>
			<point x="97" y="480"/>
			<point x="24" y="376"/>
			<point x="24" y="214" type="curve" smooth="yes"/>
			<point x="24" y="66"/>
			<point x="81" y="-18"/>
		</contour>
	</outline>
	<anchor name="aboveLC" x="315" y="484"/>
	<anchor name="belowLC" x="261" y="-253"/>
</glyph>
<glyph name="guilsinglleft" format="2">
	<advance width="358"/>
	<outline>
		<contour>
			<point x="294" y="18" type="line"/>
			<point x="308" y="34" type="line"/>
			<point x="140" y="281" type="line"/>
			<point x="140" y="206" type="line"/>
			<point x="308" y="453" type="line"/>
			<point x="294" y="469" type="line"/>
			<point x="16" y="260" type="line"/>
			<point x="16" y="228" type="line"/>
		</contour>
	</outline>
</glyph>
<glyph name="hbar" format="2">
	<advance width="578"/>
	<outline>
		<contour>
			<point x="45" y="0" type="curve"/>
			<point x="256" y="0" type="line"/>
			<point x="249" y="56"/>
			<point x="250" y="136"/>
			<point x="250" y="206" type="curve" smooth="yes"/>
			<point x="250" y="358" type="line"/>
			<point x="250" y="363" type="line"/>
			<point x="250" y="490" type="line"/>
			<point x="254" y="704" type="line"/>
			<point x="234" y="718" type="line"/>
			<point x="9" y="658" type="line"/>
			<point x="9" y="636" type="line"/>
			<point x="51" y="621" type="line"/>
			<point x="51" y="206" type="line" smooth="yes"/>
			<point x="51" y="136"/>
			<point x="52" y="56"/>
		</contour>
		<contour>
			<point x="13" y="0" type="line"/>
			<point x="283" y="0" type="line"/>
			<point x="283" y="28" type="line"/>
			<point x="216" y="44" type="line"/>
			<point x="87" y="44" type="line"/>
			<point x="13" y="28" type="line"/>
		</contour>
		<contour>
			<point x="297" y="0" type="line"/>
			<point x="561" y="0" type="line"/>
			<point x="561" y="28" type="line"/>
			<point x="493" y="44" type="line"/>
			<point x="365" y="44" type="line"/>
			<point x="297" y="28" type="line"/>
		</contour>
		<contour>
			<point x="5" y="537" type="line"/>
			<point x="337" y="537" type="line"/>
			<point x="337" y="567" type="line"/>
			<point x="5" y="567" type="line"/>
		</contour>
		<contour>
			<point x="322" y="0" type="curve"/>
			<point x="534" y="0" type="line"/>
			<point x="527" y="56"/>
			<point x="528" y="136"/>
			<point x="528" y="206" type="curve" smooth="yes"/>
			<point x="528" y="317" type="line" smooth="yes"/>
			<point x="528" y="414"/>
			<point x="471" y="464"/>
			<point x="395" y="464" type="curve" smooth="yes"/>
			<point x="328" y="464"/>
			<point x="283" y="444"/>
			<point x="225" y="342" type="curve"/>
			<point x="211" y="342" type="line"/>
			<point x="207" y="306" type="line"/>
			<point x="226" y="340"/>
			<point x="266" y="361"/>
			<point x="291" y="361" type="curve" smooth="yes"/>
			<point x="313" y="361"/>
			<point x="328" y="344"/>
			<point x="328" y="311" type="curve" smooth="yes"/>
			<point x="328" y="206" type="line" smooth="yes"/>
			<point x="328" y="136"/>
			<point x="329" y="56"/>
		</contour>
	</outline>
</glyph>
<glyph name="i" format="2">
	<advance width="299"/>
	<outline>
		<contour>
			<point x="13" y="0" type="line"/>
			<point x="283" y="0" type="line"/>
			<point x="283" y="28" type="line"/>
			<point x="216" y="44" type="line"/>
			<point x="87" y="44" type="line"/>
			<point x="13" y="28" type="line"/>
		</contour>
		<contour>
			<point x="45" y="0" type="curve"/>
			<point x="256" y="0" type="line"/>
			<point x="249" y="56"/>
			<point x="250" y="136"/>
			<point x="250" y="206" type="curve" smooth="yes"/>
			<point x="250" y="330" type="line"/>
			<point x="254" y="468" type="line"/>
			<point x="234" y="480" type="line"/>
			<point x="9" y="420" type="line"/>
			<point x="9" y="398" type="line"/>
			<point x="50" y="381" type="line"/>
			<point x="52" y="332"/>
			<point x="51" y="290"/>
			<point x="51" y="222" type="curve" smooth="yes"/>
			<point x="51" y="206" type="line" smooth="yes"/>
			<point x="51" y="136"/>
			<point x="52" y="56"/>
		</contour>
		<contour>
			<point x="152" y="527" type="curve" smooth="yes"/>
			<point x="198" y="527"/>
			<point x="239" y="563"/>
			<point x="239" y="610" type="curve" smooth="yes"/>
			<point x="239" y="660"/>
			<point x="198" y="696"/>
			<point x="152" y="696" type="curve" smooth="yes"/>
			<point x="103" y="696"/>
			<point x="65" y="660"/>
			<point x="65" y="610" type="curve" smooth="yes"/>
			<point x="65" y="563"/>
			<point x="103" y="527"/>
		</contour>
	</outline>
	<anchor name="aboveLC" x="152" y="696"/>
	<anchor name="belowLC" x="154" y="-20"/>
	<anchor name="ogonek" x="205" y="0"/>
</glyph>
<glyph name="idieresis.narrow" format="2">
	<advance width="299"/>
	<outline>
		<contour>
			<point x="73" y="547" type="curve" smooth="yes"/>
			<point x="112" y="547"/>
			<point x="132" y="571"/>
			<point x="132" y="616" type="curve" smooth="yes"/>
			<point x="132" y="659"/>
			<point x="112" y="684"/>
			<point x="73" y="684" type="curve" smooth="yes"/>
			<point x="33" y="684"/>
			<point x="13" y="659"/>
			<point x="13" y="616" type="curve" smooth="yes"/>
			<point x="13" y="571"/>
			<point x="33" y="547"/>
		</contour>
		<contour>
			<point x="223" y="547" type="curve" smooth="yes"/>
			<point x="262" y="547"/>
			<point x="282" y="571"/>
			<point x="282" y="616" type="curve" smooth="yes"/>
			<point x="282" y="659"/>
			<point x="262" y="684"/>
			<point x="223" y="684" type="curve" smooth="yes"/>
			<point x="183" y="684"/>
			<point x="163" y="659"/>
			<point x="163" y="616" type="curve" smooth="yes"/>
			<point x="163" y="571"/>
			<point x="183" y="547"/>
		</contour>
		<component base="dotlessi"/>
	</outline>
</glyph>
<glyph name="k" format="2">
	<advance width="582"/>
	<outline>
		<contour>
			<point x="13" y="0" type="line"/>
			<point x="283" y="0" type="line"/>
			<point x="283" y="28" type="line"/>
			<point x="216" y="44" type="line"/>
			<point x="87" y="44" type="line"/>
			<point x="13" y="28" type="line"/>
		</contour>
		<contour>
			<point x="45" y="0" type="curve"/>
			<point x="256" y="0" type="line"/>
			<point x="249" y="56"/>
			<point x="250" y="136"/>
			<point x="250" y="206" type="curve" smooth="yes"/>
			<point x="250" y="490" type="line"/>
			<point x="254" y="704" type="line"/>
			<point x="234" y="718" type="line"/>
			<point x="9" y="658" type="line"/>
			<point x="9" y="636" type="line"/>
			<point x="51" y="621" type="line"/>
			<point x="51" y="206" type="line" smooth="yes"/>
			<point x="51" y="136"/>
			<point x="52" y="56"/>
		</contour>
		<contour>
			<point x="144" y="124" type="line"/>
			<point x="494" y="464" type="line"/>
			<point x="449" y="464" type="line"/>
			<point x="298" y="310" type="line"/>
			<point x="148" y="157" type="line"/>
			<point x="144" y="157" type="line"/>
		</contour>
		<contour>
			<point x="318" y="0" type="line"/>
			<point x="557" y="0" type="line"/>
			<point x="557" y="28" type="line"/>
			<point x="521" y="38" type="line"/>
			<point x="393" y="386" type="line"/>
			<point x="251" y="240" type="line"/>
		</contour>
		<contour>
			<point x="331" y="436" type="line"/>
			<point x="409" y="418" type="line"/>
			<point x="443" y="418" type="line"/>
			<point x="537" y="436" type="line"/>
			<point x="537" y="464" type="line"/>
			<point x="331" y="464" type="line"/>
		</contour>
	</outline>
	<anchor name="aboveLC" x="148" y="718"/>
	<anchor name="belowLC" x="288" y="-20"/>
</glyph>
<glyph name="l" format="2">
	<advance width="299"/>
	<outline>
		<contour>
			<point x="13" y="0" type="line"/>
			<point x="283" y="0" type="line"/>
			<point x="283" y="28" type="line"/>
			<point x="216" y="44" type="line"/>
			<point x="87" y="44" type="line"/>
			<point x="13" y="28" type="line"/>
		</contour>
		<contour>
			<point x="45" y="0" type="curve"/>
			<point x="256" y="0" type="line"/>
			<point x="249" y="56"/>
			<point x="250" y="136"/>
			<point x="250" y="206" type="curve" smooth="yes"/>
			<point x="250" y="479" type="line"/>
			<point x="254" y="704" type="line"/>
			<point x="234" y="718" type="line"/>
			<point x="9" y="658" type="line"/>
			<point x="9" y="636" type="line"/>
			<point x="51" y="621" type="line"/>
			<point x="51" y="206" type="line" smooth="yes"/>
			<point x="51" y="136"/>
			<point x="52" y="56"/>
		</contour>
	</outline>
	<anchor name="aboveLC" x="147" y="718"/>
	<anchor name="belowLC" x="151" y="-20"/>
</glyph>
<glyph name="longs" format="2">
	<advance width="345"/>
	<outline>
		<contour>
			<point x="13" y="0" type="line"/>
			<point x="319" y="0" type="line"/>
			<point x="319" y="28" type="line"/>
			<point x="228" y="44" type="line"/>
			<point x="87" y="44" type="line"/>
			<point x="13" y="28" type="line"/>
		</contour>
		<contour>
			<point x="44" y="0" type="curve"/>
			<point x="258" y="0" type="line"/>
			<point x="249" y="56"/>
			<point x="250" y="136"/>
			<point x="250" y="206" type="curve" smooth="yes"/>
			<point x="250" y="444" type="line" smooth="yes"/>
			<point x="250" y="544"/>
			<point x="240" y="623"/>
			<point x="254" y="670" type="curve" smooth="yes"/>
			<point x="255" y="678"/>
			<point x="251" y="688"/>
			<point x="257" y="700" type="curve"/>
			<point x="262" y="711" type="line"/>
			<point x="250" y="711" type="line"/>
			<point x="256" y="708" type="line"/>
			<point x="271" y="661" type="line" smooth="yes"/>
			<point x="299" y="597"/>
			<point x="330" y="573"/>
			<point x="371" y="573" type="curve" smooth="yes"/>
			<point x="407" y="573"/>
			<point x="441" y="593"/>
			<point x="443" y="635" type="curve"/>
			<point x="432" y="691"/>
			<point x="363" y="728"/>
			<point x="300" y="728" type="curve" smooth="yes"/>
			<point x="232" y="728"/>
			<point x="169" y="704"/>
			<point x="126" y="660" type="curve" smooth="yes"/>
			<point x="94" y="632"/>
			<point x="51" y="562"/>
			<point x="51" y="428" type="curve" smooth="yes"/>
			<point x="51" y="206" type="line" smooth="yes"/>
			<point x="51" y="136"/>
			<point x="52" y="58"/>
		</contour>
	</outline>
</glyph>
<glyph name="lslash" format="2">
	<advance width="299"/>
	<outline>
		<contour>
			<point x="247" y="413" type="line"/>
			<point x="16" y="279" type="line"/>
			<point x="16" y="246" type="line"/>
			<point x="247" y="380" type="line"/>
		</contour>
		<contour>
			<point x="299" y="438" type="line"/>
			<point x="68" y="304" type="line"/>
			<point x="68" y="272" type="line"/>
			<point x="299" y="404" type="line"/>
		</contour>
		<component base="l"/>
	</outline>
</glyph>
<glyph name="m" format="2">
	<advance width="859"/>
	<outline>
		<contour>
			<point x="13" y="0" type="line"/>
			<point x="283" y="0" type="line"/>
			<point x="283" y="28" type="line"/>
			<point x="216" y="44" type="line"/>
			<point x="87" y="44" type="line"/>
			<point x="13" y="28" type="line"/>
		</contour>
		<contour>
			<point x="45" y="0" type="curve"/>
			<point x="256" y="0" type="line"/>
			<point x="249" y="56"/>
			<point x="250" y="136"/>
			<point x="250" y="206" type="curve" smooth="yes"/>
			<point x="250" y="372" type="line"/>
			<point x="250" y="383" type="line"/>
			<point x="250" y="468" type="line"/>
			<point x="230" y="480" type="line"/>
			<point x="9" y="420" type="line"/>
			<point x="9" y="398" type="line"/>
			<point x="50" y="381" type="line"/>
			<point x="52" y="332"/>
			<point x="51" y="290"/>
			<point x="51" y="222" type="curve" smooth="yes"/>
			<point x="51" y="206" type="line" smooth="yes"/>
			<point x="51" y="136"/>
			<point x="52" y="56"/>
		</contour>
		<contour>
			<point x="298" y="0" type="line"/>
			<point x="563" y="0" type="line"/>
			<point x="563" y="28" type="line"/>
			<point x="494" y="44" type="line"/>
			<point x="367" y="44" type="line"/>
			<point x="298" y="28" type="line"/>
		</contour>
		<contour>
			<point x="324" y="0" type="curve"/>
			<point x="536" y="0" type="line"/>
			<point x="529" y="56"/>
			<point x="528" y="136"/>
			<point x="528" y="206" type="curve" smooth="yes"/>
			<point x="528" y="333" type="line" smooth="yes"/>
			<point x="528" y="430"/>
			<point x="471" y="480"/>
			<point x="395" y="480" type="curve" smooth="yes"/>
			<point x="330" y="480"/>
			<point x="283" y="460"/>
			<point x="225" y="358" type="curve"/>
			<point x="211" y="358" type="line"/>
			<point x="207" y="322" type="line"/>
			<point x="226" y="356"/>
			<point x="266" y="377"/>
			<point x="293" y="377" type="curve" smooth="yes"/>
			<point x="313" y="377"/>
			<point x="331" y="360"/>
			<point x="331" y="327" type="curve" smooth="yes"/>
			<point x="331" y="206" type="line" smooth="yes"/>
			<point x="331" y="136"/>
			<point x="330" y="56"/>
		</contour>
		<contour>
			<point x="577" y="0" type="line"/>
			<point x="841" y="0" type="line"/>
			<point x="841" y="28" type="line"/>
			<point x="773" y="44" type="line"/>
			<point x="645" y="44" type="line"/>
			<point x="577" y="28" type="line"/>
		</contour>
		<contour>
			<point x="602" y="0" type="curve"/>
			<point x="814" y="0" type="line"/>
			<point x="807" y="56"/>
			<point x="808" y="136"/>
			<point x="808" y="206" type="curve" smooth="yes"/>
			<point x="808" y="333" type="line" smooth="yes"/>
			<point x="808" y="430"/>
			<point x="751" y="480"/>
			<point x="675" y="480" type="curve" smooth="yes"/>
			<point x="608" y="480"/>
			<point x="562" y="460"/>
			<point x="506" y="358" type="curve"/>
			<point x="490" y="358" type="line"/>
			<point x="487" y="319" type="line"/>
			<point x="504" y="354"/>
			<point x="546" y="377"/>
			<point x="571" y="377" type="curve" smooth="yes"/>
			<point x="593" y="377"/>
			<point x="610" y="360"/>
			<point x="610" y="327" type="curve" smooth="yes"/>
			<point x="610" y="206" type="line" smooth="yes"/>
			<point x="610" y="136"/>
			<point x="610" y="56"/>
		</contour>
	</outline>
	<anchor name="aboveLC" x="434" y="484"/>
	<anchor name="belowLC" x="436" y="-20"/>
</glyph>
<glyph name="n" format="2">
	<advance width="578"/>
	<outline>
		<contour>
			<point x="13" y="0" type="line"/>
			<point x="283" y="0" type="line"/>
			<point x="283" y="28" type="line"/>
			<point x="216" y="44" type="line"/>
			<point x="87" y="44" type="line"/>
			<point x="13" y="28" type="line"/>
		</contour>
		<contour>
			<point x="45" y="0" type="curve"/>
			<point x="256" y="0" type="line"/>
			<point x="249" y="56"/>
			<point x="250" y="136"/>
			<point x="250" y="206" type="curve" smooth="yes"/>
			<point x="250" y="372" type="line"/>
			<point x="250" y="374" type="line"/>
			<point x="250" y="468" type="line"/>
			<point x="230" y="480" type="line"/>
			<point x="9" y="420" type="line"/>
			<point x="9" y="398" type="line"/>
			<point x="50" y="381" type="line"/>
			<point x="52" y="332"/>
			<point x="51" y="290"/>
			<point x="51" y="222" type="curve" smooth="yes"/>
			<point x="51" y="206" type="line" smooth="yes"/>
			<point x="51" y="136"/>
			<point x="52" y="56"/>
		</contour>
		<contour>
			<point x="297" y="0" type="line"/>
			<point x="561" y="0" type="line"/>
			<point x="561" y="28" type="line"/>
			<point x="493" y="44" type="line"/>
			<point x="365" y="44" type="line"/>
			<point x="297" y="28" type="line"/>
		</contour>
		<contour>
			<point x="322" y="0" type="curve"/>
			<point x="534" y="0" type="line"/>
			<point x="527" y="56"/>
			<point x="528" y="136"/>
			<point x="528" y="206" type="curve" smooth="yes"/>
			<point x="528" y="333" type="line" smooth="yes"/>
			<point x="528" y="430"/>
			<point x="471" y="480"/>
			<point x="395" y="480" type="curve" smooth="yes"/>
			<point x="328" y="480"/>
			<point x="283" y="460"/>
			<point x="225" y="358" type="curve"/>
			<point x="211" y="358" type="line"/>
			<point x="207" y="322" type="line"/>
			<point x="226" y="356"/>
			<point x="266" y="377"/>
			<point x="291" y="377" type="curve" smooth="yes"/>
			<point x="313" y="377"/>
			<point x="328" y="360"/>
			<point x="328" y="327" type="curve" smooth="yes"/>
			<point x="328" y="206" type="line" smooth="yes"/>
			<point x="328" y="136"/>
			<point x="329" y="56"/>
		</contour>
	</outline>
	<anchor name="aboveLC" x="313" y="484"/>
	<anchor name="belowLC" x="291" y="-20"/>
</glyph>
<glyph name="nine.cap" format="2">
	<advance width="529"/>
	<outline>
		<contour>
			<point x="67" y="-14" type="line"/>
			<point x="313" y="-10"/>
			<point x="515" y="171"/>
			<point x="515" y="388" type="curve" smooth="yes"/>
			<point x="515" y="563"/>
			<point x="410" y="660"/>
			<point x="258" y="660" type="curve" smooth="yes"/>
			<point x="146" y="660"/>
			<point x="6" y="613"/>
			<point x="6" y="438" type="curve" smooth="yes"/>
			<point x="6" y="308"/>
			<point x="99" y="262"/>
			<point x="180" y="262" type="curve" smooth="yes"/>
			<point x="241" y="262"/>
			<point x="294" y="275"/>
			<point x="342" y="366" type="curve"/>
			<point x="352" y="366" type="line"/>
			<point x="344" y="372" type="line"/>
			<point x="308" y="341"/>
			<point x="283" y="327"/>
			<point x="260" y="327" type="curve" smooth="yes"/>
			<point x="233" y="327"/>
			<point x="214" y="364"/>
			<point x="214" y="453" type="curve" smooth="yes"/>
			<point x="214" y="586"/>
			<point x="233" y="629"/>
			<point x="264" y="629" type="curve" smooth="yes"/>
			<point x="295" y="629"/>
			<point x="302" y="555"/>
			<point x="302" y="429" type="curve" smooth="yes"/>
			<point x="302" y="169"/>
			<point x="225" y="48"/>
			<point x="63" y="12" type="curve"/>
		</contour>
	</outline>
</glyph>
<glyph name="nine.lf" format="2">
	<advance width="529"/>
	<outline>
		<contour>
			<point x="67" y="-14" type="line"/>
			<point x="313" y="-10"/>
			<point x="515" y="147"/>
			<point x="515" y="365" type="curve" smooth="yes"/>
			<point x="515" y="539"/>
			<point x="410" y="633"/>
			<point x="258" y="633" type="curve" smooth="yes"/>
			<point x="146" y="633"/>
			<point x="6" y="584"/>
			<point x="6" y="413" type="curve" smooth="yes"/>
			<point x="6" y="283"/>
			<point x="99" y="231"/>
			<point x="180" y="231" type="curve" smooth="yes"/>
			<point x="241" y="231"/>
			<point x="294" y="243"/>
			<point x="342" y="337" type="curve"/>
			<point x="352" y="337" type="line"/>
			<point x="344" y="343" type="line"/>
			<point x="308" y="311"/>
			<point x="283" y="296"/>
			<point x="260" y="296" type="curve" smooth="yes"/>
			<point x="233" y="296"/>
			<point x="214" y="341"/>
			<point x="214" y="429" type="curve" smooth="yes"/>
			<point x="214" y="557"/>
			<point x="233" y="602"/>
			<point x="264" y="602" type="curve" smooth="yes"/>
			<point x="295" y="602"/>
			<point x="302" y="531"/>
			<point x="302" y="407" type="curve" smooth="yes"/>
			<point x="302" y="143"/>
			<point x="225" y="48"/>
			<point x="63" y="12" type="curve"/>
		</contour>
	</outline>
</glyph>
<glyph name="o" format="2">
	<advance width="557"/>
	<outline>
		<contour>
			<point x="277" y="-18" type="curve" smooth="yes"/>
			<point x="434" y="-18"/>
			<point x="532" y="95"/>
			<point x="532" y="230" type="curve" smooth="yes"/>
			<point x="532" y="367"/>
			<point x="460" y="480"/>
			<point x="277" y="480" type="curve" smooth="yes"/>
			<point x="117" y="480"/>
			<point x="24" y="368"/>
			<point x="24" y="232" type="curve" smooth="yes"/>
			<point x="24" y="96"/>
			<point x="95" y="-18"/>
		</contour>
		<contour>
			<point x="277" y="13" type="curve" smooth="yes"/>
			<point x="250" y="13"/>
			<point x="237" y="39"/>
			<point x="237" y="232" type="curve" smooth="yes"/>
			<point x="237" y="424"/>
			<point x="250" y="451"/>
			<point x="277" y="451" type="curve" smooth="yes"/>
			<point x="307" y="451"/>
			<point x="318" y="423"/>
			<point x="318" y="230" type="curve" smooth="yes"/>
			<point x="318" y="40"/>
			<point x="307" y="13"/>
		</contour>
	</outline>
	<anchor name="aboveLC" x="277" y="484"/>
	<anchor name="belowLC" x="277" y="-20"/>
	<anchor name="hornLC" x="394" y="372"/>
	<anchor name="ogonek" x="368" y="0"/>
</glyph>
<glyph name="oe" format="2">
	<advance width="780"/>
	<outline>
		<contour>
			<point x="275" y="-18" type="curve" smooth="yes"/>
			<point x="384" y="-18"/>
			<point x="471" y="56"/>
			<point x="508" y="166" type="curve"/>
			<point x="342" y="166" type="line"/>
			<point x="375" y="44"/>
			<point x="449" y="-18"/>
			<point x="551" y="-18" type="curve" smooth="yes"/>
			<point x="637" y="-18"/>
			<point x="705" y="15"/>
			<point x="746" y="92" type="curve"/>
			<point x="730" y="108" type="line"/>
			<point x="706" y="91"/>
			<point x="682" y="81"/>
			<point x="650" y="81" type="curve" smooth="yes"/>
			<point x="579" y="81"/>
			<point x="526" y="141"/>
			<point x="526" y="259" type="curve" smooth="yes"/>
			<point x="526" y="411"/>
			<point x="531" y="450"/>
			<point x="556" y="450" type="curve" smooth="yes"/>
			<point x="570" y="450"/>
			<point x="582" y="442"/>
			<point x="582" y="367" type="curve" smooth="yes"/>
			<point x="582" y="291"/>
			<point x="560" y="276"/>
			<point x="485" y="276" type="curve" smooth="yes"/>
			<point x="396" y="276" type="line"/>
			<point x="396" y="248" type="line"/>
			<point x="751" y="248" type="line"/>
			<point x="755" y="270"/>
			<point x="754" y="272"/>
			<point x="754" y="290" type="curve" smooth="yes"/>
			<point x="754" y="394"/>
			<point x="696" y="480"/>
			<point x="558" y="480" type="curve" smooth="yes"/>
			<point x="483" y="480"/>
			<point x="396" y="438"/>
			<point x="350" y="342" type="curve"/>
			<point x="487" y="342" type="line"/>
			<point x="447" y="427"/>
			<point x="382" y="480"/>
			<point x="275" y="480" type="curve" smooth="yes"/>
			<point x="120" y="480"/>
			<point x="24" y="368"/>
			<point x="24" y="232" type="curve" smooth="yes"/>
			<point x="24" y="96"/>
			<point x="99" y="-18"/>
		</contour>
		<contour>
			<point x="275" y="13" type="curve" smooth="yes"/>
			<point x="250" y="13"/>
			<point x="237" y="39"/>
			<point x="237" y="232" type="curve" smooth="yes"/>
			<point x="237" y="424"/>
			<point x="250" y="451"/>
			<point x="275" y="451" type="curve" smooth="yes"/>
			<point x="301" y="451"/>
			<point x="313" y="423"/>
			<point x="313" y="230" type="curve" smooth="yes"/>
			<point x="313" y="40"/>
			<point x="301" y="13"/>
		</contour>
	</outline>
	<anchor name="aboveLC" x="407" y="484"/>
</glyph>
<glyph name="one.cap" format="2">
	<advance width="328"/>
	<outline>
		<contour>
			<point x="-4" y="0" type="line"/>
			<point x="332" y="0" type="line"/>
			<point x="332" y="28" type="line"/>
			<point x="235" y="54" type="line"/>
			<point x="107" y="54" type="line"/>
			<point x="-4" y="28" type="line"/>
		</contour>
		<contour>
			<point x="64" y="0" type="curve"/>
			<point x="276" y="0" type="line"/>
			<point x="269" y="56"/>
			<point x="268" y="136"/>
			<point x="268" y="206" type="curve" smooth="yes"/>
			<point x="268" y="442" type="line"/>
			<point x="272" y="649" type="line"/>
			<point x="255" y="663" type="line"/>
			<point x="8" y="580" type="line"/>
			<point x="8" y="552" type="line"/>
			<point x="70" y="559" type="line"/>
			<point x="70" y="206" type="line" smooth="yes"/>
			<point x="70" y="136"/>
			<point x="71" y="56"/>
		</contour>
	</outline>
</glyph>
<glyph name="one" format="2">
	<advance width="546"/>
	<outline>
		<contour>
			<point x="78" y="0" type="line"/>
			<point x="480" y="0" type="line"/>
			<point x="480" y="28" type="line"/>
			<point x="344" y="54" type="line"/>
			<point x="216" y="54" type="line"/>
			<point x="78" y="28" type="line"/>
		</contour>
		<contour>
			<point x="173" y="0" type="curve"/>
			<point x="385" y="0" type="line"/>
			<point x="377" y="56"/>
			<point x="378" y="136"/>
			<point x="378" y="206" type="curve" smooth="yes"/>
			<point x="378" y="409" type="line"/>
			<point x="382" y="617" type="line"/>
			<point x="362" y="629" type="line"/>
			<point x="103" y="547" type="line"/>
			<point x="103" y="519" type="line"/>
			<point x="179" y="525" type="line"/>
			<point x="179" y="206" type="line" smooth="yes"/>
			<point x="179" y="136"/>
			<point x="180" y="56"/>
		</contour>
	</outline>
</glyph>
<glyph name="one.lf" format="2">
	<advance width="328"/>
	<outline>
		<contour>
			<point x="-4" y="0" type="line"/>
			<point x="332" y="0" type="line"/>
			<point x="332" y="28" type="line"/>
			<point x="235" y="54" type="line"/>
			<point x="107" y="54" type="line"/>
			<point x="-4" y="28" type="line"/>
		</contour>
		<contour>
			<point x="64" y="0" type="curve"/>
			<point x="276" y="0" type="line"/>
			<point x="269" y="56"/>
			<point x="268" y="136"/>
			<point x="268" y="206" type="curve" smooth="yes"/>
			<point x="268" y="409" type="line"/>
			<point x="272" y="621" type="line"/>
			<point x="255" y="636" type="line"/>
			<point x="8" y="551" type="line"/>
			<point x="8" y="523" type="line"/>
			<point x="70" y="530" type="line"/>
			<point x="70" y="206" type="line" smooth="yes"/>
			<point x="70" y="136"/>
			<point x="71" y="56"/>
		</contour>
	</outline>
</glyph>
<glyph name="one.osf" format="2">
	<advance width="367"/>
	<outline>
		<contour>
			<point x="12" y="0" type="line"/>
			<point x="347" y="0" type="line"/>
			<point x="347" y="28" type="line"/>
			<point x="250" y="54" type="line"/>
			<point x="122" y="54" type="line"/>
			<point x="12" y="28" type="line"/>
		</contour>
		<contour>
			<point x="79" y="0" type="curve"/>
			<point x="291" y="0" type="line"/>
			<point x="285" y="56"/>
			<point x="284" y="136"/>
			<point x="284" y="206" type="curve" smooth="yes"/>
			<point x="284" y="283" type="line"/>
			<point x="288" y="490" type="line"/>
			<point x="270" y="504" type="line"/>
			<point x="23" y="421" type="line"/>
			<point x="23" y="393" type="line"/>
			<point x="87" y="398" type="line"/>
			<point x="87" y="206" type="line" smooth="yes"/>
			<point x="87" y="136"/>
			<point x="86" y="56"/>
		</contour>
	</outline>
</glyph>
<glyph name="one.tosf" format="2">
	<advance width="546"/>
	<outline>
		<contour>
			<point x="64" y="0" type="line"/>
			<point x="476" y="0" type="line"/>
			<point x="476" y="28" type="line"/>
			<point x="340" y="54" type="line"/>
			<point x="212" y="54" type="line"/>
			<point x="64" y="28" type="line"/>
		</contour>
		<contour>
			<point x="169" y="0" type="curve"/>
			<point x="382" y="0" type="line"/>
			<point x="375" y="56"/>
			<point x="376" y="136"/>
			<point x="376" y="206" type="curve" smooth="yes"/>
			<point x="376" y="279" type="line"/>
			<point x="380" y="490" type="line"/>
			<point x="360" y="504" type="line"/>
			<point x="88" y="421" type="line"/>
			<point x="88" y="393" type="line"/>
			<point x="177" y="398" type="line"/>
			<point x="177" y="206" type="line" smooth="yes"/>
			<point x="177" y="136"/>
			<point x="176" y="56"/>
		</contour>
	</outline>
</glyph>
<glyph name="oslash" format="2">
	<advance width="557"/>
	<outline>
		<contour>
			<point x="507" y="464" type="line"/>
			<point x="485" y="483" type="line"/>
			<point x="46" y="-2" type="line"/>
			<point x="68" y="-20" type="line"/>
		</contour>
		<contour>
			<point x="277" y="-18" type="curve" smooth="yes"/>
			<point x="434" y="-18"/>
			<point x="532" y="95"/>
			<point x="532" y="230" type="curve" smooth="yes"/>
			<point x="532" y="367"/>
			<point x="460" y="480"/>
			<point x="277" y="480" type="curve" smooth="yes"/>
			<point x="117" y="480"/>
			<point x="24" y="368"/>
			<point x="24" y="232" type="curve" smooth="yes"/>
			<point x="24" y="96"/>
			<point x="95" y="-18"/>
		</contour>
		<contour>
			<point x="277" y="13" type="curve" smooth="yes"/>
			<point x="246" y="13"/>
			<point x="232" y="39"/>
			<point x="232" y="232" type="curve" smooth="yes"/>
			<point x="232" y="424"/>
			<point x="246" y="451"/>
			<point x="277" y="451" type="curve" smooth="yes"/>
			<point x="309" y="451"/>
			<point x="325" y="423"/>
			<point x="325" y="230" type="curve" smooth="yes"/>
			<point x="325" y="40"/>
			<point x="309" y="13"/>
		</contour>
	</outline>
	<anchor name="aboveLC" x="277" y="484"/>
</glyph>
<glyph name="p" format="2">
	<advance width="560"/>
	<outline>
		<contour>
			<point x="13" y="-233" type="line"/>
			<point x="297" y="-233" type="line"/>
			<point x="297" y="-205" type="line"/>
			<point x="216" y="-187" type="line"/>
			<point x="87" y="-187" type="line"/>
			<point x="13" y="-205" type="line"/>
		</contour>
		<contour>
			<point x="45" y="-233" type="curve"/>
			<point x="254" y="-233" type="line"/>
			<point x="247" y="-177"/>
			<point x="246" y="-96"/>
			<point x="246" y="-25" type="curve" smooth="yes"/>
			<point x="246" y="84" type="line"/>
			<point x="250" y="88" type="line"/>
			<point x="250" y="384" type="line"/>
			<point x="250" y="388" type="line"/>
			<point x="250" y="468" type="line"/>
			<point x="230" y="480" type="line"/>
			<point x="9" y="420" type="line"/>
			<point x="9" y="398" type="line"/>
			<point x="50" y="381" type="line"/>
			<point x="52" y="332"/>
			<point x="51" y="290"/>
			<point x="51" y="222" type="curve" smooth="yes"/>
			<point x="51" y="-25" type="line" smooth="yes"/>
			<point x="51" y="-96"/>
			<point x="52" y="-177"/>
		</contour>
		<contour>
			<point x="357" y="-18" type="curve" smooth="yes"/>
			<point x="473" y="-18"/>
			<point x="535" y="88"/>
			<point x="535" y="248" type="curve" smooth="yes"/>
			<point x="535" y="396"/>
			<point x="480" y="480"/>
			<point x="373" y="480" type="curve" smooth="yes"/>
			<point x="307" y="480"/>
			<point x="261" y="442"/>
			<point x="233" y="367" type="curve"/>
			<point x="226" y="367" type="line"/>
			<point x="234" y="354" type="line"/>
			<point x="246" y="368"/>
			<point x="260" y="383"/>
			<point x="273" y="383" type="curve" smooth="yes"/>
			<point x="307" y="383"/>
			<point x="326" y="352"/>
			<point x="326" y="238" type="curve" smooth="yes"/>
			<point x="326" y="117"/>
			<point x="303" y="80"/>
			<point x="272" y="80" type="curve" smooth="yes"/>
			<point x="253" y="80"/>
			<point x="249" y="90"/>
			<point x="236" y="109" type="curve"/>
			<point x="229" y="100" type="line"/>
			<point x="233" y="100" type="line"/>
			<point x="262" y="19"/>
			<point x="301" y="-18"/>
		</contour>
	</outline>
	<anchor name="aboveLC" x="262" y="484"/>
	<anchor name="belowLC" x="155" y="-253"/>
</glyph>
<glyph name="period" format="2">
	<advance width="264"/>
	<outline>
		<contour>
			<point x="131" y="-15" type="curve" smooth="yes"/>
			<point x="185" y="-15"/>
			<point x="227" y="30"/>
			<point x="227" y="81" type="curve" smooth="yes"/>
			<point x="227" y="131"/>
			<point x="185" y="177"/>
			<point x="131" y="177" type="curve" smooth="yes"/>
			<point x="78" y="177"/>
			<point x="37" y="131"/>
			<point x="37" y="81" type="curve" smooth="yes"/>
			<point x="37" y="30"/>
			<point x="78" y="-15"/>
		</contour>
	</outline>
</glyph>
<glyph name="q" format="2">
	<advance width="549"/>
	<outline>
		<contour>
			<point x="263" y="-233" type="line"/>
			<point x="547" y="-233" type="line"/>
			<point x="547" y="-205" type="line"/>
			<point x="472" y="-187" type="line"/>
			<point x="343" y="-187" type="line"/>
			<point x="263" y="-205" type="line"/>
		</contour>
		<contour>
			<point x="187" y="-18" type="curve" smooth="yes"/>
			<point x="253" y="-18"/>
			<point x="298" y="21"/>
			<point x="328" y="97" type="curve"/>
			<point x="333" y="97" type="line"/>
			<point x="325" y="110" type="line"/>
			<point x="314" y="95"/>
			<point x="300" y="81"/>
			<point x="286" y="81" type="curve" smooth="yes"/>
			<point x="253" y="81"/>
			<point x="233" y="106"/>
			<point x="233" y="226" type="curve" smooth="yes"/>
			<point x="233" y="350"/>
			<point x="255" y="384"/>
			<point x="286" y="384" type="curve" smooth="yes"/>
			<point x="305" y="384"/>
			<point x="311" y="374"/>
			<point x="325" y="355" type="curve"/>
			<point x="342" y="364" type="line"/>
			<point x="332" y="364" type="line"/>
			<point x="303" y="445"/>
			<point x="269" y="480"/>
			<point x="211" y="480" type="curve" smooth="yes"/>
			<point x="97" y="480"/>
			<point x="24" y="376"/>
			<point x="24" y="214" type="curve" smooth="yes"/>
			<point x="24" y="66"/>
			<point x="81" y="-18"/>
		</contour>
		<contour>
			<point x="305" y="-233" type="curve"/>
			<point x="516" y="-233" type="line"/>
			<point x="509" y="-177"/>
			<point x="508" y="-96"/>
			<point x="508" y="-25" type="curve" smooth="yes"/>
			<point x="508" y="316" type="line"/>
			<point x="512" y="470" type="line"/>
			<point x="494" y="483" type="line"/>
			<point x="309" y="390" type="line"/>
			<point x="309" y="384" type="line"/>
			<point x="309" y="82" type="line"/>
			<point x="313" y="78" type="line"/>
			<point x="313" y="-25" type="line" smooth="yes"/>
			<point x="313" y="-96"/>
			<point x="314" y="-177"/>
		</contour>
	</outline>
	<anchor name="aboveLC" x="321" y="484"/>
	<anchor name="belowLC" x="417" y="-253"/>
</glyph>
<glyph name="question" format="2">
	<advance width="376"/>
	<outline>
		<contour>
			<point x="135" y="-19" type="curve" smooth="yes"/>
			<point x="188" y="-19"/>
			<point x="231" y="26"/>
			<point x="231" y="77" type="curve" smooth="yes"/>
			<point x="231" y="127"/>
			<point x="188" y="171"/>
			<point x="135" y="171" type="curve" smooth="yes"/>
			<point x="83" y="171"/>
			<point x="41" y="127"/>
			<point x="41" y="77" type="curve" smooth="yes"/>
			<point x="41" y="26"/>
			<point x="83" y="-19"/>
		</contour>
		<contour>
			<point x="375" y="406" type="curve" smooth="yes"/>
			<point x="375" y="489"/>
			<point x="253" y="622"/>
			<point x="99" y="660" type="curve"/>
			<point x="55" y="643"/>
			<point x="31" y="616"/>
			<point x="31" y="581" type="curve" smooth="yes"/>
			<point x="31" y="543"/>
			<point x="54" y="520"/>
			<point x="132" y="511" type="curve" smooth="yes"/>
			<point x="327" y="484" type="line"/>
			<point x="286" y="498" type="line"/>
			<point x="303" y="462"/>
			<point x="296" y="462"/>
			<point x="296" y="459" type="curve" smooth="yes"/>
			<point x="296" y="445"/>
			<point x="271" y="443"/>
			<point x="238" y="437" type="curve" smooth="yes"/>
			<point x="154" y="419" type="line" smooth="yes"/>
			<point x="101" y="410"/>
			<point x="71" y="378"/>
			<point x="71" y="338" type="curve" smooth="yes"/>
			<point x="71" y="312"/>
			<point x="82" y="278"/>
			<point x="95" y="252" type="curve" smooth="yes"/>
			<point x="109" y="224" type="line"/>
			<point x="158" y="224" type="line"/>
			<point x="158" y="239" type="line" smooth="yes"/>
			<point x="158" y="260"/>
			<point x="164" y="274"/>
			<point x="210" y="285" type="curve" smooth="yes"/>
			<point x="261" y="296" type="line" smooth="yes"/>
			<point x="327" y="310"/>
			<point x="375" y="327"/>
		</contour>
	</outline>
</glyph>
<glyph name="quoteleft" format="2">
	<advance width="196"/>
	<outline>
		<contour>
			<point x="98" y="425" type="curve" smooth="yes"/>
			<point x="144" y="425"/>
			<point x="180" y="462"/>
			<point x="180" y="507" type="curve" smooth="yes"/>
			<point x="180" y="533"/>
			<point x="163" y="567"/>
			<point x="124" y="587" type="curve" smooth="yes"/>
			<point x="59" y="620" type="line"/>
			<point x="71" y="586" type="line"/>
			<point x="92" y="636"/>
			<point x="122" y="656"/>
			<point x="179" y="682" type="curve"/>
			<point x="167" y="708" type="line"/>
			<point x="88" y="682"/>
			<point x="13" y="625"/>
			<point x="13" y="515" type="curve" smooth="yes"/>
			<point x="13" y="492"/>
			<point x="20" y="472"/>
			<point x="30" y="454" type="curve"/>
			<point x="44" y="440"/>
			<point x="71" y="425"/>
		</contour>
	</outline>
</glyph>
<glyph name="quotesingle" format="2">
	<advance width="225"/>
	<outline>
		<contour>
			<point x="113" y="718" type="curve" smooth="yes"/>
			<point x="64" y="718"/>
			<point x="29" y="692"/>
			<point x="29" y="639" type="curve" smooth="yes"/>
			<point x="29" y="604"/>
			<point x="52" y="545"/>
			<point x="60" y="523" type="curve" smooth="yes"/>
			<point x="98" y="397" type="line"/>
			<point x="127" y="397" type="line"/>
			<point x="165" y="523" type="line" smooth="yes"/>
			<point x="173" y="545"/>
			<point x="196" y="604"/>
			<point x="196" y="639" type="curve" smooth="yes"/>
			<point x="196" y="692"/>
			<point x="161" y="718"/>
		</contour>
	</outline>
</glyph>
<glyph name="r" format="2">
	<advance width="467"/>
	<outline>
		<contour>
			<point x="13" y="0" type="line"/>
			<point x="295" y="0" type="line"/>
			<point x="295" y="28" type="line"/>
			<point x="216" y="44" type="line"/>
			<point x="87" y="44" type="line"/>
			<point x="13" y="28" type="line"/>
		</contour>
		<contour>
			<point x="45" y="0" type="curve"/>
			<point x="256" y="0" type="line"/>
			<point x="249" y="56"/>
			<point x="250" y="136"/>
			<point x="250" y="206" type="curve" smooth="yes"/>
			<point x="250" y="357" type="line"/>
			<point x="250" y="360" type="line"/>
			<point x="250" y="468" type="line"/>
			<point x="230" y="480" type="line"/>
			<point x="9" y="420" type="line"/>
			<point x="9" y="398" type="line"/>
			<point x="50" y="381" type="line"/>
			<point x="52" y="332"/>
			<point x="51" y="290"/>
			<point x="51" y="222" type="curve" smooth="yes"/>
			<point x="51" y="206" type="line" smooth="yes"/>
			<point x="51" y="136"/>
			<point x="52" y="56"/>
		</contour>
		<contour>
			<point x="247" y="297" type="line"/>
			<point x="249" y="318"/>
			<point x="275" y="368"/>
			<point x="288" y="391" type="curve"/>
			<point x="273" y="405" type="line"/>
			<point x="283" y="370" type="line" smooth="yes"/>
			<point x="306" y="312"/>
			<point x="339" y="298"/>
			<point x="375" y="298" type="curve" smooth="yes"/>
			<point x="420" y="298"/>
			<point x="458" y="324"/>
			<point x="462" y="391" type="curve"/>
			<point x="454" y="452"/>
			<point x="420" y="480"/>
			<point x="369" y="480" type="curve" smooth="yes"/>
			<point x="309" y="480"/>
			<point x="273" y="434"/>
			<point x="243" y="335" type="curve"/>
			<point x="229" y="335" type="line"/>
		</contour>
	</outline>
	<anchor name="aboveLC" x="280" y="484"/>
	<anchor name="belowLC" x="164" y="-20"/>
</glyph>
<glyph name="s" format="2">
	<advance width="408"/>
	<outline>
		<contour>
			<point x="180" y="-18" type="curve" smooth="yes"/>
			<point x="306" y="-18"/>
			<point x="385" y="37"/>
			<point x="385" y="159" type="curve" smooth="yes"/>
			<point x="385" y="251"/>
			<point x="330" y="285"/>
			<point x="274" y="309" type="curve" smooth="yes"/>
			<point x="246" y="321" type="line" smooth="yes"/>
			<point x="199" y="340"/>
			<point x="157" y="356"/>
			<point x="157" y="399" type="curve" smooth="yes"/>
			<point x="157" y="440"/>
			<point x="187" y="452"/>
			<point x="220" y="452" type="curve" smooth="yes"/>
			<point x="257" y="452"/>
			<point x="270" y="446"/>
			<point x="288" y="424" type="curve"/>
			<point x="288" y="458" type="line"/>
			<point x="258" y="458" type="line"/>
			<point x="326" y="322" type="line"/>
			<point x="351" y="322" type="line"/>
			<point x="355" y="444" type="line"/>
			<point x="314" y="467"/>
			<point x="275" y="480"/>
			<point x="220" y="480" type="curve" smooth="yes"/>
			<point x="84" y="480"/>
			<point x="21" y="410"/>
			<point x="21" y="313" type="curve" smooth="yes"/>
			<point x="21" y="220"/>
			<point x="79" y="185"/>
			<point x="136" y="161" type="curve" smooth="yes"/>
			<point x="164" y="149" type="line" smooth="yes"/>
			<point x="209" y="129"/>
			<point x="247" y="113"/>
			<point x="247" y="71" type="curve" smooth="yes"/>
			<point x="247" y="26"/>
			<point x="215" y="11"/>
			<point x="178" y="11" type="curve" smooth="yes"/>
			<point x="129" y="11"/>
			<point x="115" y="27"/>
			<point x="79" y="46" type="curve"/>
			<point x="79" y="22" type="line"/>
			<point x="113" y="22" type="line"/>
			<point x="45" y="154" type="line"/>
			<point x="19" y="154" type="line"/>
			<point x="18" y="31" type="line"/>
			<point x="65" y="1"/>
			<point x="125" y="-18"/>
		</contour>
	</outline>
	<anchor name="aboveLC" x="217" y="484"/>
	<anchor name="baseLC" x="190" y="0"/>
	<anchor name="belowLC" x="188" y="-20"/>
</glyph>
<glyph name="schwa" format="2">
	<advance width="491"/>
	<outline>
		<contour>
			<point x="231" y="-18" type="curve" smooth="yes"/>
			<point x="348" y="-18"/>
			<point x="471" y="58"/>
			<point x="471" y="224" type="curve" smooth="yes"/>
			<point x="471" y="394"/>
			<point x="368" y="480"/>
			<point x="248" y="480" type="curve" smooth="yes"/>
			<point x="162" y="480"/>
			<point x="94" y="449"/>
			<point x="53" y="372" type="curve"/>
			<point x="68" y="356" type="line"/>
			<point x="91" y="372"/>
			<point x="117" y="383"/>
			<point x="149" y="383" type="curve" smooth="yes"/>
			<point x="220" y="383"/>
			<point x="262" y="340"/>
			<point x="262" y="204" type="curve" smooth="yes"/>
			<point x="262" y="52"/>
			<point x="254" y="12"/>
			<point x="235" y="12" type="curve" smooth="yes"/>
			<point x="220" y="12"/>
			<point x="212" y="24"/>
			<point x="212" y="109" type="curve" smooth="yes"/>
			<point x="212" y="207"/>
			<point x="233" y="222"/>
			<point x="307" y="222" type="curve" smooth="yes"/>
			<point x="390" y="222" type="line"/>
			<point x="390" y="250" type="line"/>
			<point x="31" y="250" type="line"/>
			<point x="27" y="230"/>
			<point x="29" y="227"/>
			<point x="29" y="207" type="curve" smooth="yes"/>
			<point x="29" y="68"/>
			<point x="86" y="-18"/>
		</contour>
	</outline>
	<anchor name="aboveLC" x="242" y="484"/>
	<anchor name="belowLC" x="250" y="-20"/>
</glyph>
<glyph name="seven.cap" format="2">
	<advance width="493"/>
	<outline>
		<contour>
			<point x="66" y="0" type="line"/>
			<point x="261" y="0" type="line"/>
			<point x="477" y="533" type="line"/>
			<point x="477" y="644" type="line"/>
			<point x="21" y="644" type="line"/>
			<point x="21" y="484" type="line"/>
			<point x="416" y="484" type="line"/>
			<point x="416" y="445" type="line"/>
			<point x="434" y="528" type="line"/>
			<point x="58" y="18" type="line"/>
		</contour>
	</outline>
</glyph>
<glyph name="seven.lf" format="2">
	<advance width="493"/>
	<outline>
		<contour>
			<point x="66" y="0" type="line"/>
			<point x="261" y="0" type="line"/>
			<point x="477" y="503" type="line"/>
			<point x="477" y="615" type="line"/>
			<point x="21" y="615" type="line"/>
			<point x="21" y="455" type="line"/>
			<point x="417" y="455" type="line"/>
			<point x="417" y="427" type="line"/>
			<point x="436" y="501" type="line"/>
			<point x="58" y="18" type="line"/>
		</contour>
	</outline>
</glyph>
<glyph name="six.cap" format="2">
	<advance width="529"/>
	<outline>
		<contour>
			<point x="259" y="-18" type="curve" smooth="yes"/>
			<point x="383" y="-18"/>
			<point x="523" y="27"/>
			<point x="523" y="192" type="curve" smooth="yes"/>
			<point x="523" y="345"/>
			<point x="424" y="385"/>
			<point x="345" y="385" type="curve" smooth="yes"/>
			<point x="284" y="385"/>
			<point x="232" y="373"/>
			<point x="183" y="279" type="curve"/>
			<point x="175" y="279" type="line"/>
			<point x="181" y="273" type="line"/>
			<point x="217" y="304"/>
			<point x="242" y="320"/>
			<point x="264" y="320" type="curve" smooth="yes"/>
			<point x="295" y="320"/>
			<point x="314" y="279"/>
			<point x="314" y="173" type="curve" smooth="yes"/>
			<point x="314" y="47"/>
			<point x="294" y="13"/>
			<point x="267" y="13" type="curve" smooth="yes"/>
			<point x="232" y="13"/>
			<point x="226" y="79"/>
			<point x="226" y="203" type="curve" smooth="yes"/>
			<point x="226" y="462"/>
			<point x="310" y="591"/>
			<point x="469" y="634" type="curve"/>
			<point x="465" y="660" type="line"/>
			<point x="213" y="644"/>
			<point x="14" y="453"/>
			<point x="14" y="245" type="curve" smooth="yes"/>
			<point x="14" y="75"/>
			<point x="118" y="-18"/>
		</contour>
	</outline>
</glyph>
<glyph name="six.lf" format="2">
	<advance width="529"/>
	<outline>
		<contour>
			<point x="259" y="-18" type="curve" smooth="yes"/>
			<point x="383" y="-18"/>
			<point x="523" y="39"/>
			<point x="523" y="212" type="curve" smooth="yes"/>
			<point x="523" y="352"/>
			<point x="424" y="386"/>
			<point x="345" y="386" type="curve" smooth="yes"/>
			<point x="284" y="386"/>
			<point x="232" y="373"/>
			<point x="183" y="280" type="curve"/>
			<point x="178" y="280" type="line"/>
			<point x="181" y="274" type="line"/>
			<point x="217" y="305"/>
			<point x="242" y="321"/>
			<point x="264" y="321" type="curve" smooth="yes"/>
			<point x="295" y="321"/>
			<point x="314" y="288"/>
			<point x="314" y="192" type="curve" smooth="yes"/>
			<point x="314" y="58"/>
			<point x="294" y="13"/>
			<point x="263" y="13" type="curve" smooth="yes"/>
			<point x="232" y="13"/>
			<point x="226" y="83"/>
			<point x="226" y="217" type="curve" smooth="yes"/>
			<point x="226" y="485"/>
			<point x="310" y="562"/>
			<point x="469" y="605" type="curve"/>
			<point x="465" y="633" type="line"/>
			<point x="213" y="615"/>
			<point x="14" y="476"/>
			<point x="14" y="260" type="curve" smooth="yes"/>
			<point x="14" y="81"/>
			<point x="118" y="-18"/>
		</contour>
	</outline>
</glyph>
<glyph name="t" format="2">
	<advance width="374"/>
	<outline>
		<contour>
			<point x="165" y="428" type="line"/>
			<point x="344" y="428" type="line"/>
			<point x="344" y="464" type="line"/>
			<point x="165" y="464" type="line"/>
		</contour>
		<contour>
			<point x="217" y="-18" type="curve" smooth="yes"/>
			<point x="304" y="-18"/>
			<point x="355" y="17"/>
			<point x="380" y="81" type="curve"/>
			<point x="361" y="94" type="line"/>
			<point x="346" y="75"/>
			<point x="337" y="69"/>
			<point x="311" y="69" type="curve" smooth="yes"/>
			<point x="286" y="69"/>
			<point x="261" y="81"/>
			<point x="261" y="123" type="curve" smooth="yes"/>
			<point x="261" y="436" type="line"/>
			<point x="261" y="452" type="line"/>
			<point x="265" y="616" type="line"/>
			<point x="193" y="616" type="line"/>
			<point x="57" y="452" type="line"/>
			<point x="87" y="474" type="line"/>
			<point x="20" y="456" type="line"/>
			<point x="20" y="428" type="line"/>
			<point x="62" y="428" type="line"/>
			<point x="60" y="264" type="line" smooth="yes"/>
			<point x="60" y="203"/>
			<point x="60" y="180"/>
			<point x="60" y="133" type="curve" smooth="yes"/>
			<point x="60" y="28"/>
			<point x="116" y="-18"/>
		</contour>
	</outline>
	<anchor name="aboveLC" x="200" y="596"/>
	<anchor name="baseLC" x="221" y="0"/>
	<anchor name="belowLC" x="217" y="-20"/>
</glyph>
<glyph name="thorn" format="2">
	<advance width="569"/>
	<outline>
		<contour>
			<point x="47" y="-233" type="curve"/>
			<point x="258" y="-233" type="line"/>
			<point x="249" y="-187"/>
			<point x="250" y="-92"/>
			<point x="250" y="-25" type="curve" smooth="yes"/>
			<point x="250" y="84" type="line"/>
			<point x="252" y="84" type="line"/>
			<point x="252" y="396" type="line"/>
			<point x="250" y="395" type="line"/>
			<point x="250" y="490" type="line"/>
			<point x="254" y="704" type="line"/>
			<point x="234" y="718" type="line"/>
			<point x="12" y="658" type="line"/>
			<point x="12" y="636" type="line"/>
			<point x="55" y="621" type="line"/>
			<point x="55" y="-25" type="line" smooth="yes"/>
			<point x="55" y="-96"/>
			<point x="54" y="-177"/>
		</contour>
		<contour>
			<point x="366" y="-18" type="curve" smooth="yes"/>
			<point x="482" y="-18"/>
			<point x="545" y="88"/>
			<point x="545" y="248" type="curve" smooth="yes"/>
			<point x="545" y="396"/>
			<point x="488" y="480"/>
			<point x="382" y="480" type="curve" smooth="yes"/>
			<point x="316" y="480"/>
			<point x="265" y="442"/>
			<point x="235" y="367" type="curve"/>
			<point x="230" y="367" type="line"/>
			<point x="236" y="354" type="line"/>
			<point x="248" y="368"/>
			<point x="263" y="383"/>
			<point x="277" y="383" type="curve" smooth="yes"/>
			<point x="310" y="383"/>
			<point x="336" y="352"/>
			<point x="336" y="238" type="curve" smooth="yes"/>
			<point x="336" y="117"/>
			<point x="306" y="80"/>
			<point x="275" y="80" type="curve" smooth="yes"/>
			<point x="256" y="80"/>
			<point x="253" y="90"/>
			<point x="238" y="109" type="curve"/>
			<point x="225" y="100" type="line"/>
			<point x="237" y="100" type="line"/>
			<point x="266" y="19"/>
			<point x="310" y="-18"/>
		</contour>
		<contour>
			<point x="16" y="-233" type="line"/>
			<point x="299" y="-233" type="line"/>
			<point x="299" y="-205" type="line"/>
			<point x="220" y="-187" type="line"/>
			<point x="91" y="-187" type="line"/>
			<point x="16" y="-205" type="line"/>
		</contour>
	</outline>
	<anchor name="aboveLC" x="148" y="718"/>
	<anchor name="belowLC" x="413" y="-20"/>
</glyph>
<glyph name="three.cap" format="2">
	<advance width="499"/>
	<outline>
		<contour>
			<point x="199" y="-18" type="curve" smooth="yes"/>
			<point x="396" y="-18"/>
			<point x="485" y="60"/>
			<point x="485" y="168" type="curve" smooth="yes"/>
			<point x="485" y="294"/>
			<point x="382" y="331"/>
			<point x="235" y="330" type="curve"/>
			<point x="235" y="327" type="line"/>
			<point x="371" y="324"/>
			<point x="471" y="378"/>
			<point x="471" y="491" type="curve" smooth="yes"/>
			<point x="471" y="590"/>
			<point x="399" y="660"/>
			<point x="252" y="660" type="curve" smooth="yes"/>
			<point x="107" y="660"/>
			<point x="46" y="606"/>
			<point x="33" y="517" type="curve"/>
			<point x="44" y="482"/>
			<point x="73" y="467"/>
			<point x="98" y="467" type="curve" smooth="yes"/>
			<point x="136" y="467"/>
			<point x="162" y="483"/>
			<point x="175" y="558" type="curve" smooth="yes"/>
			<point x="186" y="645" type="line"/>
			<point x="142" y="624" type="line"/>
			<point x="157" y="629"/>
			<point x="173" y="629"/>
			<point x="193" y="629" type="curve" smooth="yes"/>
			<point x="248" y="629"/>
			<point x="280" y="560"/>
			<point x="280" y="487" type="curve" smooth="yes"/>
			<point x="280" y="394"/>
			<point x="264" y="345"/>
			<point x="164" y="345" type="curve" smooth="yes"/>
			<point x="145" y="345" type="line"/>
			<point x="145" y="302" type="line"/>
			<point x="166" y="302" type="line" smooth="yes"/>
			<point x="263" y="302"/>
			<point x="285" y="241"/>
			<point x="285" y="160" type="curve" smooth="yes"/>
			<point x="285" y="79"/>
			<point x="246" y="13"/>
			<point x="162" y="13" type="curve" smooth="yes"/>
			<point x="142" y="13"/>
			<point x="129" y="15"/>
			<point x="113" y="21" type="curve"/>
			<point x="161" y="-2" type="line"/>
			<point x="150" y="104" type="line" smooth="yes"/>
			<point x="140" y="178"/>
			<point x="112" y="193"/>
			<point x="73" y="193" type="curve" smooth="yes"/>
			<point x="48" y="193"/>
			<point x="18" y="179"/>
			<point x="8" y="143" type="curve"/>
			<point x="21" y="37"/>
			<point x="85" y="-18"/>
		</contour>
	</outline>
</glyph>
<glyph name="three.lf" format="2">
	<advance width="499"/>
	<outline>
		<contour>
			<point x="199" y="-18" type="curve" smooth="yes"/>
			<point x="396" y="-18"/>
			<point x="485" y="56"/>
			<point x="485" y="160" type="curve" smooth="yes"/>
			<point x="485" y="283"/>
			<point x="382" y="313"/>
			<point x="235" y="315" type="curve"/>
			<point x="235" y="310" type="line"/>
			<point x="371" y="306"/>
			<point x="471" y="358"/>
			<point x="471" y="468" type="curve" smooth="yes"/>
			<point x="471" y="565"/>
			<point x="399" y="633"/>
			<point x="252" y="633" type="curve" smooth="yes"/>
			<point x="107" y="633"/>
			<point x="46" y="577"/>
			<point x="33" y="490" type="curve"/>
			<point x="44" y="453"/>
			<point x="73" y="438"/>
			<point x="98" y="438" type="curve" smooth="yes"/>
			<point x="136" y="438"/>
			<point x="162" y="454"/>
			<point x="175" y="530" type="curve" smooth="yes"/>
			<point x="186" y="617" type="line"/>
			<point x="142" y="595" type="line"/>
			<point x="157" y="600"/>
			<point x="173" y="602"/>
			<point x="193" y="602" type="curve" smooth="yes"/>
			<point x="248" y="602"/>
			<point x="280" y="537"/>
			<point x="280" y="466" type="curve" smooth="yes"/>
			<point x="280" y="375"/>
			<point x="264" y="327"/>
			<point x="164" y="327" type="curve" smooth="yes"/>
			<point x="145" y="327" type="line"/>
			<point x="145" y="286" type="line"/>
			<point x="166" y="286" type="line" smooth="yes"/>
			<point x="263" y="286"/>
			<point x="285" y="228"/>
			<point x="285" y="152" type="curve" smooth="yes"/>
			<point x="285" y="75"/>
			<point x="246" y="13"/>
			<point x="162" y="13" type="curve" smooth="yes"/>
			<point x="142" y="13"/>
			<point x="129" y="15"/>
			<point x="113" y="21" type="curve"/>
			<point x="161" y="-2" type="line"/>
			<point x="150" y="104" type="line" smooth="yes"/>
			<point x="140" y="178"/>
			<point x="112" y="193"/>
			<point x="73" y="193" type="curve" smooth="yes"/>
			<point x="48" y="193"/>
			<point x="18" y="179"/>
			<point x="8" y="143" type="curve"/>
			<point x="21" y="37"/>
			<point x="85" y="-18"/>
		</contour>
	</outline>
</glyph>
<glyph name="two.cap" format="2">
	<advance width="495"/>
	<outline>
		<contour>
			<point x="18" y="0" type="line"/>
			<point x="472" y="0" type="line"/>
			<point x="472" y="160" type="line"/>
			<point x="123" y="160" type="line"/>
			<point x="123" y="177" type="line"/>
			<point x="83" y="118" type="line"/>
			<point x="122" y="141"/>
			<point x="160" y="163"/>
			<point x="197" y="184" type="curve" smooth="yes"/>
			<point x="349" y="277"/>
			<point x="471" y="356"/>
			<point x="471" y="488" type="curve" smooth="yes"/>
			<point x="471" y="580"/>
			<point x="413" y="660"/>
			<point x="242" y="660" type="curve" smooth="yes"/>
			<point x="130" y="660"/>
			<point x="28" y="618"/>
			<point x="19" y="503" type="curve"/>
			<point x="29" y="466"/>
			<point x="61" y="453"/>
			<point x="84" y="453" type="curve" smooth="yes"/>
			<point x="122" y="453"/>
			<point x="150" y="468"/>
			<point x="162" y="542" type="curve" smooth="yes"/>
			<point x="176" y="644" type="line"/>
			<point x="105" y="613" type="line"/>
			<point x="141" y="631"/>
			<point x="161" y="629"/>
			<point x="189" y="629" type="curve" smooth="yes"/>
			<point x="236" y="629"/>
			<point x="274" y="591"/>
			<point x="274" y="491" type="curve" smooth="yes"/>
			<point x="274" y="380"/>
			<point x="208" y="284"/>
			<point x="124" y="193" type="curve" smooth="yes"/>
			<point x="89" y="155"/>
			<point x="55" y="117"/>
			<point x="18" y="77" type="curve"/>
		</contour>
	</outline>
</glyph>
<glyph name="two.lf" format="2">
	<advance width="495"/>
	<outline>
		<contour>
			<point x="18" y="0" type="line"/>
			<point x="472" y="0" type="line"/>
			<point x="472" y="160" type="line"/>
			<point x="126" y="160" type="line"/>
			<point x="126" y="174" type="line"/>
			<point x="83" y="118" type="line"/>
			<point x="122" y="138"/>
			<point x="160" y="156"/>
			<point x="197" y="176" type="curve" smooth="yes"/>
			<point x="359" y="263"/>
			<point x="471" y="327"/>
			<point x="471" y="455" type="curve" smooth="yes"/>
			<point x="471" y="551"/>
			<point x="413" y="633"/>
			<point x="242" y="633" type="curve" smooth="yes"/>
			<point x="130" y="633"/>
			<point x="28" y="589"/>
			<point x="19" y="476" type="curve"/>
			<point x="29" y="439"/>
			<point x="61" y="424"/>
			<point x="84" y="424" type="curve" smooth="yes"/>
			<point x="122" y="424"/>
			<point x="150" y="439"/>
			<point x="162" y="515" type="curve" smooth="yes"/>
			<point x="176" y="617" type="line"/>
			<point x="105" y="584" type="line"/>
			<point x="141" y="602"/>
			<point x="161" y="602"/>
			<point x="189" y="602" type="curve" smooth="yes"/>
			<point x="236" y="602"/>
			<point x="274" y="561"/>
			<point x="274" y="464" type="curve" smooth="yes"/>
			<point x="274" y="361"/>
			<point x="211" y="272"/>
			<point x="124" y="185" type="curve" smooth="yes"/>
			<point x="89" y="151"/>
			<point x="55" y="113"/>
			<point x="18" y="77" type="curve"/>
		</contour>
	</outline>
</glyph>
<glyph name="two.osf" format="2">
	<advance width="509"/>
	<outline>
		<contour>
			<point x="42" y="0" type="line"/>
			<point x="475" y="0" type="line"/>
			<point x="475" y="160" type="line"/>
			<point x="155" y="160" type="line"/>
			<point x="155" y="181" type="line"/>
			<point x="140" y="148" type="line"/>
			<point x="175" y="159"/>
			<point x="212" y="172"/>
			<point x="248" y="184" type="curve" smooth="yes"/>
			<point x="419" y="250"/>
			<point x="449" y="297"/>
			<point x="449" y="359" type="curve" smooth="yes"/>
			<point x="449" y="429"/>
			<point x="398" y="504"/>
			<point x="251" y="504" type="curve" smooth="yes"/>
			<point x="138" y="504"/>
			<point x="40" y="461"/>
			<point x="30" y="348" type="curve"/>
			<point x="40" y="311"/>
			<point x="71" y="297"/>
			<point x="94" y="297" type="curve" smooth="yes"/>
			<point x="133" y="297"/>
			<point x="162" y="312"/>
			<point x="174" y="386" type="curve" smooth="yes"/>
			<point x="187" y="488" type="line"/>
			<point x="115" y="457" type="line"/>
			<point x="153" y="473"/>
			<point x="176" y="473"/>
			<point x="186" y="473" type="curve" smooth="yes"/>
			<point x="240" y="473"/>
			<point x="258" y="414"/>
			<point x="258" y="355" type="curve" smooth="yes"/>
			<point x="258" y="308"/>
			<point x="223" y="254"/>
			<point x="163" y="199" type="curve" smooth="yes"/>
			<point x="122" y="164"/>
			<point x="83" y="128"/>
			<point x="42" y="93" type="curve"/>
		</contour>
	</outline>
</glyph>
<glyph name="u" format="2">
	<advance width="573"/>
	<outline>
		<contour>
			<point x="177" y="-18" type="curve" smooth="yes"/>
			<point x="246" y="-18"/>
			<point x="292" y="2"/>
			<point x="331" y="73" type="curve"/>
			<point x="351" y="73" type="line"/>
			<point x="355" y="141" type="line"/>
			<point x="336" y="92"/>
			<point x="302" y="81"/>
			<point x="284" y="81" type="curve" smooth="yes"/>
			<point x="264" y="81"/>
			<point x="244" y="90"/>
			<point x="244" y="121" type="curve" smooth="yes"/>
			<point x="244" y="330" type="line"/>
			<point x="248" y="470" type="line"/>
			<point x="230" y="480" type="line"/>
			<point x="12" y="432" type="line"/>
			<point x="12" y="404" type="line"/>
			<point x="88" y="389" type="line"/>
			<point x="51" y="417" type="line"/>
			<point x="43" y="167" type="line" smooth="yes"/>
			<point x="41" y="30"/>
			<point x="95" y="-18"/>
		</contour>
		<contour>
			<point x="323" y="-16" type="line"/>
			<point x="557" y="0" type="line"/>
			<point x="557" y="28" type="line"/>
			<point x="522" y="37" type="line"/>
			<point x="522" y="330" type="line"/>
			<point x="526" y="470" type="line"/>
			<point x="508" y="480" type="line"/>
			<point x="286" y="432" type="line"/>
			<point x="286" y="404" type="line"/>
			<point x="323" y="397" type="line"/>
			<point x="323" y="75" type="line"/>
			<point x="323" y="74" type="line"/>
		</contour>
	</outline>
	<anchor name="aboveLC" x="291" y="484"/>
	<anchor name="belowLC" x="285" y="-20"/>
	<anchor name="hornLC" x="449" y="450"/>
	<anchor name="ogonek" x="450" y="0"/>
</glyph>
<glyph name="uhorn" format="2">
	<advance width="573"/>
	<outline>
		<contour>
			<point x="177" y="-18" type="curve" smooth="yes"/>
			<point x="246" y="-18"/>
			<point x="292" y="2"/>
			<point x="331" y="73" type="curve"/>
			<point x="351" y="73" type="line"/>
			<point x="355" y="141" type="line"/>
			<point x="336" y="92"/>
			<point x="302" y="81"/>
			<point x="284" y="81" type="curve" smooth="yes"/>
			<point x="264" y="81"/>
			<point x="244" y="90"/>
			<point x="244" y="121" type="curve" smooth="yes"/>
			<point x="244" y="330" type="line"/>
			<point x="248" y="470" type="line"/>
			<point x="230" y="480" type="line"/>
			<point x="12" y="432" type="line"/>
			<point x="12" y="404" type="line"/>
			<point x="88" y="389" type="line"/>
			<point x="51" y="417" type="line"/>
			<point x="43" y="167" type="line" smooth="yes"/>
			<point x="41" y="30"/>
			<point x="95" y="-18"/>
		</contour>
		<contour>
			<point x="323" y="-16" type="line"/>
			<point x="557" y="0" type="line"/>
			<point x="557" y="28" type="line"/>
			<point x="522" y="37" type="line"/>
			<point x="522" y="330" type="line"/>
			<point x="526" y="470" type="line"/>
			<point x="447" y="440" type="line"/>
			<point x="527" y="445"/>
			<point x="600" y="486"/>
			<point x="600" y="586" type="curve" smooth="yes"/>
			<point x="600" y="601"/>
			<point x="594" y="612"/>
			<point x="588" y="623" type="curve"/>
			<point x="573" y="634"/>
			<point x="558" y="641"/>
			<point x="537" y="641" type="curve" smooth="yes"/>
			<point x="507" y="641"/>
			<point x="478" y="621"/>
			<point x="478" y="591" type="curve" smooth="yes"/>
			<point x="478" y="561"/>
			<point x="518" y="553"/>
			<point x="518" y="511" type="curve" smooth="yes"/>
			<point x="518" y="480"/>
			<point x="482" y="477"/>
			<point x="447" y="468" type="curve" smooth="yes"/>
			<point x="286" y="432" type="line"/>
			<point x="286" y="404" type="line"/>
			<point x="323" y="397" type="line"/>
			<point x="323" y="75" type="line"/>
			<point x="323" y="74" type="line"/>
		</contour>
	</outline>
	<anchor name="aboveLC" x="291" y="484"/>
	<anchor name="belowLC" x="285" y="-20"/>
</glyph>
<glyph name="uogonek" format="2">
	<advance width="573"/>
	<outline>
		<contour>
			<point x="413" y="-228" type="curve" smooth="yes"/>
			<point x="485" y="-228"/>
			<point x="529" y="-192"/>
			<point x="558" y="-154" type="curve"/>
			<point x="548" y="-138" type="line"/>
			<point x="529" y="-141"/>
			<point x="518" y="-144"/>
			<point x="493" y="-144" type="curve" smooth="yes"/>
			<point x="453" y="-144"/>
			<point x="431" y="-120"/>
			<point x="431" y="-94" type="curve" smooth="yes"/>
			<point x="431" y="-53"/>
			<point x="448" y="-12"/>
			<point x="499" y="17" type="curve"/>
			<point x="485" y="25" type="line"/>
			<point x="485" y="17" type="line"/>
			<point x="396" y="-15"/>
			<point x="312" y="-65"/>
			<point x="312" y="-132" type="curve" smooth="yes"/>
			<point x="312" y="-187"/>
			<point x="344" y="-228"/>
		</contour>
		<component base="u"/>
	</outline>
	<anchor name="aboveLC" x="291" y="484"/>
</glyph>
<glyph name="v" format="2">
	<advance width="515"/>
	<outline>
		<contour>
			<point x="218" y="2" type="line"/>
			<point x="307" y="2" type="line"/>
			<point x="471" y="464" type="line"/>
			<point x="435" y="464" type="line"/>
			<point x="337" y="172" type="line"/>
			<point x="333" y="158" type="line"/>
			<point x="350" y="158" type="line"/>
			<point x="241" y="464" type="line"/>
			<point x="32" y="464" type="line"/>
		</contour>
		<contour>
			<point x="10" y="436" type="line"/>
			<point x="69" y="418" type="line"/>
			<point x="245" y="418" type="line"/>
			<point x="317" y="435" type="line"/>
			<point x="317" y="464" type="line"/>
			<point x="10" y="464" type="line"/>
		</contour>
		<contour>
			<point x="357" y="435" type="line"/>
			<point x="439" y="422" type="line"/>
			<point x="445" y="422" type="line"/>
			<point x="505" y="436" type="line"/>
			<point x="505" y="464" type="line"/>
			<point x="357" y="464" type="line"/>
		</contour>
	</outline>
	<anchor name="aboveLC" x="338" y="484"/>
	<anchor name="belowLC" x="272" y="-20"/>
</glyph>
<glyph name="w" format="2">
	<advance width="768"/>
	<outline>
		<contour>
			<point x="188" y="2" type="line"/>
			<point x="296" y="2" type="line"/>
			<point x="388" y="307" type="line"/>
			<point x="393" y="321" type="line"/>
			<point x="367" y="321" type="line"/>
			<point x="464" y="2" type="line"/>
			<point x="568" y="2" type="line"/>
			<point x="716" y="464" type="line"/>
			<point x="683" y="464" type="line"/>
			<point x="596" y="173" type="line"/>
			<point x="590" y="158" type="line"/>
			<point x="608" y="158" type="line"/>
			<point x="521" y="464" type="line"/>
			<point x="403" y="464" type="line"/>
			<point x="317" y="167" type="line"/>
			<point x="312" y="158" type="line"/>
			<point x="330" y="158" type="line"/>
			<point x="247" y="464" type="line"/>
			<point x="32" y="464" type="line"/>
		</contour>
		<contour>
			<point x="10" y="436" type="line"/>
			<point x="69" y="418" type="line"/>
			<point x="229" y="418" type="line"/>
			<point x="305" y="435" type="line"/>
			<point x="305" y="464" type="line"/>
			<point x="10" y="464" type="line"/>
		</contour>
		<contour>
			<point x="344" y="435" type="line"/>
			<point x="424" y="422" type="line"/>
			<point x="497" y="416" type="line"/>
			<point x="579" y="435" type="line"/>
			<point x="579" y="464" type="line"/>
			<point x="344" y="464" type="line"/>
		</contour>
		<contour>
			<point x="609" y="435" type="line"/>
			<point x="692" y="422" type="line"/>
			<point x="700" y="422" type="line"/>
			<point x="760" y="436" type="line"/>
			<point x="760" y="464" type="line"/>
			<point x="609" y="464" type="line"/>
		</contour>
	</outline>
	<anchor name="aboveLC" x="456" y="484"/>
	<anchor name="belowLC" x="373" y="-20"/>
</glyph>
